<?xml version="1.0" standalone="no"?>
<!DOCTYPE svg PUBLIC "-//W3C//DTD SVG 20010904//EN"
 "http://www.w3.org/TR/2001/REC-SVG-20010904/DTD/svg10.dtd">
<svg version="1.0" xmlns="http://www.w3.org/2000/svg"
 width="1600.000000pt" height="432.000000pt" viewBox="0 0 1600.000000 432.000000"
 preserveAspectRatio="xMidYMid meet">

<g transform="translate(0.000000,432.000000) scale(0.100000,-0.100000)"
fill="#000000" stroke="none">
<path d="M60 2190 l0 -2030 325 0 325 0 0 54 c0 30 3 57 8 59 4 3 36 -15 72
-39 36 -24 70 -44 77 -44 6 0 13 -3 15 -8 2 -4 37 -20 78 -36 41 -15 83 -32
93 -37 30 -16 168 -41 262 -49 178 -13 417 21 560 80 66 28 142 62 155 71 8 5
27 15 43 22 15 6 27 15 27 19 0 4 5 8 12 8 41 0 348 279 348 317 0 6 5 13 10
15 23 7 140 222 173 318 63 183 86 382 69 600 -6 77 -18 163 -27 192 -31 107
-58 184 -76 224 -10 22 -19 46 -19 52 0 7 -4 12 -8 12 -4 0 -14 16 -21 35 -7
19 -17 35 -22 35 -5 0 -9 4 -9 10 0 5 -11 26 -25 47 -14 21 -31 47 -38 58 -35
56 -230 237 -316 293 -52 34 -100 62 -107 62 -6 0 -17 6 -23 14 -7 8 -26 18
-42 21 -16 4 -29 10 -29 15 0 5 -15 11 -32 15 -18 4 -46 13 -63 20 -105 46
-293 79 -445 79 -98 0 -282 -24 -316 -42 -10 -5 -38 -13 -61 -17 -24 -4 -43
-11 -43 -16 0 -5 -6 -9 -14 -9 -14 0 -187 -87 -196 -99 -11 -14 -58 -40 -64
-34 -3 4 -6 397 -6 875 l0 868 -325 0 -325 0 0 -2030z m1520 -83 c71 -23 155
-70 213 -117 72 -59 167 -172 167 -198 0 -6 3 -12 8 -14 10 -5 50 -88 58 -123
4 -16 10 -34 14 -40 14 -17 30 -151 30 -240 0 -95 -17 -225 -31 -240 -5 -5 -9
-15 -9 -23 0 -20 -48 -119 -88 -182 -69 -108 -235 -246 -320 -266 -15 -4 -32
-10 -38 -15 -40 -31 -302 -34 -369 -4 -16 7 -41 17 -54 20 -72 21 -233 149
-297 236 -29 39 -83 140 -93 175 -7 21 -17 48 -22 59 -44 96 -40 413 6 502 8
16 15 34 15 40 0 16 53 115 92 171 79 115 218 219 344 258 110 33 274 34 374
1z"/>
<path d="M9470 3345 c0 -481 -2 -875 -5 -875 -7 0 -58 32 -65 40 -13 16 -152
89 -179 95 -17 4 -31 10 -31 15 0 4 -19 11 -42 15 -24 4 -52 12 -62 17 -33 18
-217 42 -311 42 -107 1 -276 -21 -324 -40 -18 -8 -43 -14 -55 -14 -11 -1 -39
-9 -61 -20 -22 -11 -45 -19 -52 -20 -12 0 -82 -32 -113 -51 -8 -5 -26 -14 -39
-19 -65 -28 -205 -135 -296 -225 -117 -117 -172 -194 -235 -325 -66 -137 -76
-167 -122 -360 -13 -59 -14 -422 0 -480 6 -25 18 -74 26 -110 14 -63 37 -134
56 -175 5 -11 14 -31 20 -45 5 -14 14 -32 20 -40 5 -8 15 -26 20 -40 6 -14 19
-38 30 -55 11 -16 26 -42 35 -57 9 -16 20 -28 25 -28 6 0 10 -5 10 -11 0 -31
201 -224 303 -291 23 -15 47 -31 53 -35 9 -7 17 -12 69 -41 11 -6 47 -23 80
-37 33 -15 67 -30 76 -35 9 -5 34 -12 55 -16 22 -3 44 -11 50 -16 38 -29 319
-58 463 -47 94 7 238 34 255 48 6 5 25 12 43 15 17 4 48 16 69 27 21 10 44 19
51 19 7 0 13 4 13 8 0 4 12 13 28 20 32 14 56 29 99 60 17 12 34 22 37 22 3 0
6 -27 6 -60 l0 -60 325 0 325 0 0 2030 0 2030 -325 0 -325 0 0 -875z m-505
-1238 c101 -30 191 -84 270 -162 67 -67 104 -116 130 -172 8 -17 19 -34 24
-37 5 -4 13 -21 16 -39 4 -17 11 -37 16 -43 5 -6 16 -46 26 -90 33 -151 18
-369 -33 -484 -26 -58 -59 -125 -64 -130 -3 -3 -19 -25 -35 -50 -39 -57 -89
-108 -156 -156 -54 -39 -137 -84 -156 -84 -5 0 -25 -8 -44 -17 -27 -14 -62
-17 -164 -17 -112 -1 -140 3 -200 23 -38 13 -77 30 -86 38 -8 7 -20 13 -25 13
-15 0 -104 69 -150 115 -50 50 -100 115 -114 146 -6 13 -21 43 -34 66 -13 23
-34 75 -47 115 -21 64 -23 93 -23 233 0 141 2 169 23 235 35 108 76 186 146
278 9 13 78 80 115 112 17 15 31 24 99 62 130 74 311 91 466 45z"/>
<path d="M15537 3533 c-56 -9 -186 -100 -187 -129 0 -7 -7 -14 -15 -18 -8 -3
-15 -11 -15 -18 0 -7 -8 -26 -17 -43 -24 -43 -24 -198 0 -240 9 -16 17 -35 17
-41 0 -16 100 -124 115 -124 7 0 18 -6 24 -14 6 -8 45 -22 85 -31 69 -16 77
-16 141 0 103 26 141 51 220 147 21 26 55 136 55 180 0 50 -34 161 -56 179 -8
6 -14 16 -14 21 0 17 -73 78 -124 104 -51 26 -161 39 -229 27z"/>
<path d="M4095 2700 c-191 -32 -284 -62 -440 -142 -69 -36 -105 -57 -173 -103
-55 -38 -193 -171 -247 -239 -16 -21 -38 -47 -47 -58 -10 -12 -18 -25 -18 -29
0 -4 -6 -14 -12 -21 -18 -20 -47 -69 -59 -100 -6 -16 -15 -28 -20 -28 -5 0 -9
-6 -9 -13 0 -7 -9 -30 -20 -52 -11 -22 -20 -43 -20 -48 0 -5 -7 -23 -15 -40
-14 -31 -36 -113 -57 -212 -13 -65 -13 -405 0 -470 24 -114 45 -190 53 -193 5
-2 9 -10 9 -17 0 -34 106 -258 130 -275 4 -3 13 -16 20 -29 13 -26 24 -40 53
-72 9 -10 17 -21 17 -24 0 -13 194 -197 242 -230 208 -142 392 -215 618 -245
201 -27 489 9 645 80 11 5 43 18 70 30 66 28 208 111 218 127 4 7 12 13 16 13
19 0 194 166 259 245 37 45 107 155 137 215 15 30 33 67 41 82 8 14 14 32 14
40 0 7 6 25 14 40 8 15 17 42 21 60 4 18 13 53 21 78 15 50 46 312 39 332 -2
7 -9 67 -15 133 -7 66 -18 138 -25 160 -7 22 -16 55 -20 73 -4 18 -13 45 -21
60 -8 15 -14 32 -14 39 0 12 -31 81 -51 113 -5 8 -13 25 -19 38 -13 29 -91
150 -122 187 -33 39 -177 185 -216 216 -134 112 -393 234 -537 254 -27 4 -55
12 -62 17 -16 12 -334 19 -398 8z m365 -589 c121 -47 202 -102 280 -188 59
-66 74 -86 102 -141 12 -26 26 -49 29 -52 4 -3 13 -25 20 -50 7 -25 16 -50 20
-55 12 -16 34 -174 34 -245 0 -71 -22 -229 -34 -245 -4 -5 -13 -30 -20 -55 -7
-25 -16 -47 -20 -50 -3 -3 -19 -31 -34 -62 -16 -32 -32 -58 -37 -58 -5 0 -11
-8 -15 -19 -4 -15 -73 -87 -128 -136 -34 -29 -91 -61 -190 -105 -90 -40 -325
-38 -413 4 -80 37 -112 53 -139 71 -27 17 -146 134 -185 181 -22 27 -100 186
-100 204 0 9 -4 20 -9 25 -18 19 -34 189 -28 306 7 130 25 198 88 322 46 92
44 90 134 182 75 77 154 128 250 163 83 29 95 31 225 27 89 -2 128 -8 170 -24z"/>
<path d="M6870 2700 c-159 -27 -301 -93 -385 -179 -17 -17 -33 -31 -37 -31 -5
0 -8 25 -8 55 l0 55 -325 0 -325 0 0 -1220 0 -1220 323 2 322 3 5 780 c6 841
4 816 59 920 34 64 43 76 103 135 60 59 176 125 238 136 19 3 45 10 56 16 27
13 202 4 319 -16 50 -8 99 -17 110 -18 20 -3 20 3 23 278 l2 282 -37 6 c-141
24 -349 32 -443 16z"/>
<path d="M11610 2700 c-76 -11 -187 -36 -235 -54 -22 -8 -48 -15 -57 -16 -10
0 -18 -4 -18 -9 0 -5 -12 -12 -27 -16 -31 -7 -113 -47 -158 -75 -16 -11 -43
-27 -60 -36 -16 -9 -34 -22 -41 -28 -6 -6 -21 -18 -34 -26 -55 -38 -191 -171
-233 -227 -17 -24 -34 -43 -39 -43 -4 0 -8 -5 -8 -10 0 -6 -15 -32 -33 -58
-18 -26 -38 -58 -45 -72 -6 -14 -16 -32 -22 -40 -9 -14 -27 -57 -62 -145 -65
-162 -106 -473 -80 -600 6 -27 13 -71 17 -97 l6 -48 966 0 c771 0 963 -3 955
-12 -5 -7 -16 -32 -23 -55 -6 -24 -16 -43 -20 -43 -4 0 -11 -10 -15 -22 -9
-28 -40 -73 -76 -110 -16 -15 -28 -32 -28 -38 0 -5 -3 -10 -7 -10 -5 0 -23
-15 -42 -32 -42 -40 -92 -74 -120 -83 -12 -3 -21 -10 -21 -15 0 -5 -14 -11
-30 -15 -17 -4 -45 -14 -63 -23 -25 -13 -61 -17 -177 -17 -127 1 -152 3 -200
23 -75 31 -140 65 -140 74 0 5 -6 8 -12 8 -16 0 -133 112 -169 160 -14 19 -36
59 -50 87 -21 47 -27 52 -49 47 -14 -3 -27 -10 -28 -15 -2 -5 -18 -16 -35 -24
-18 -8 -45 -24 -62 -35 -16 -11 -42 -26 -57 -32 -16 -7 -28 -15 -28 -19 0 -4
-15 -12 -32 -20 -18 -7 -35 -16 -38 -19 -3 -4 -43 -29 -90 -56 -47 -26 -86
-52 -88 -56 -2 -4 -9 -8 -16 -8 -6 0 -21 -8 -33 -17 l-20 -17 21 -35 c11 -20
25 -41 31 -47 5 -6 17 -22 25 -34 46 -70 176 -203 265 -271 68 -52 195 -129
213 -129 7 0 12 -4 12 -9 0 -5 12 -12 28 -16 15 -3 41 -12 57 -20 293 -127
719 -124 1001 6 22 11 46 19 52 19 7 0 12 4 12 9 0 5 12 12 27 16 14 3 38 15
51 26 14 10 30 19 38 19 7 0 14 3 16 8 2 4 30 25 62 47 80 54 263 236 311 310
22 33 45 66 52 73 7 7 13 19 13 26 0 8 6 19 14 25 8 7 18 26 21 42 4 16 10 29
15 29 5 0 14 16 20 36 7 20 18 48 26 62 8 15 14 36 14 48 0 11 4 24 9 30 9 9
35 115 51 209 19 112 9 358 -19 490 -22 99 -92 282 -132 345 -5 8 -15 26 -22
40 -6 14 -15 30 -20 35 -4 6 -29 39 -55 75 -89 123 -254 274 -377 345 -27 16
-51 33 -53 37 -2 4 -8 8 -13 8 -6 0 -44 16 -86 36 -41 19 -90 38 -107 41 -17
3 -36 10 -42 14 -12 9 -134 36 -224 49 -68 10 -256 10 -330 0z m290 -570 c61
-11 142 -41 158 -57 7 -7 18 -13 23 -13 12 0 61 -35 108 -77 20 -18 39 -33 44
-33 4 0 7 -5 7 -10 0 -6 14 -24 30 -40 17 -16 30 -32 30 -34 0 -3 16 -31 36
-61 19 -31 41 -74 49 -95 l14 -40 -621 0 -620 0 6 25 c7 27 73 143 93 163 7 7
13 16 13 20 0 13 86 97 140 138 73 54 194 109 255 117 57 7 190 6 235 -3z"/>
<path d="M14375 2699 c-89 -13 -164 -37 -235 -73 -39 -19 -76 -40 -82 -45 -7
-6 -33 -29 -58 -50 l-45 -40 -3 55 -3 54 -324 0 -325 0 0 -1220 0 -1220 314 0
c247 0 316 3 324 13 8 9 12 250 14 803 l3 789 23 47 c12 26 22 52 22 57 0 6 3
11 8 11 4 0 16 16 26 35 52 96 187 190 326 227 88 23 349 8 468 -28 l22 -6 0
285 0 285 -32 6 c-114 24 -339 31 -443 15z"/>
</g>
</svg>
