<?xml version="1.0" encoding="iso-8859-1"?>
<!-- Generator: Adobe Illustrator 19.0.0, SVG Export Plug-In . SVG Version: 6.00 Build 0)  -->
<svg version="1.1" id="Capa_1" xmlns="http://www.w3.org/2000/svg" xmlns:xlink="http://www.w3.org/1999/xlink" x="0px" y="0px"
	 viewBox="0 0 475.429 475.429" style="enable-background:new 0 0 475.429 475.429;" xml:space="preserve">
<g>
	<g>
		<g>
			<path d="M433.633,26.122H41.796C18.713,26.122,0,44.835,0,67.918V407.51c0,23.083,18.713,41.796,41.796,41.796h391.837
				c23.083,0,41.796-18.713,41.796-41.796V67.918C475.429,44.835,456.716,26.122,433.633,26.122z M454.531,404.898
				c0,11.494-6.792,23.51-18.286,23.51H44.408c-12.552-0.989-22.521-10.958-23.51-23.51V161.959h433.633V404.898z M454.531,65.306
				v75.755H20.898V65.306c0-11.494,12.016-18.286,23.51-18.286h391.837c9.188-0.911,17.375,5.8,18.286,14.988
				C454.639,63.105,454.639,64.21,454.531,65.306z"/>
			<path d="M141.061,59.037c-17.89,0-32.392,14.502-32.392,32.392s14.502,32.392,32.392,32.392s32.392-14.502,32.392-32.392
				S158.951,59.037,141.061,59.037z M141.061,102.922c-6.348,0-11.494-5.146-11.494-11.494s5.146-11.494,11.494-11.494
				s11.494,5.146,11.494,11.494S147.409,102.922,141.061,102.922z"/>
			<path d="M211.592,59.037c-17.89,0-32.392,14.502-32.392,32.392s14.502,32.392,32.392,32.392s32.392-14.502,32.392-32.392
				S229.481,59.037,211.592,59.037z M211.592,102.922c-6.348,0-11.494-5.146-11.494-11.494s5.146-11.494,11.494-11.494
				s11.494,5.146,11.494,11.494S217.94,102.922,211.592,102.922z"/>
			<path d="M70.531,59.037c-17.89,0-32.392,14.502-32.392,32.392s14.502,32.392,32.392,32.392s32.392-14.502,32.392-32.392
				S88.42,59.037,70.531,59.037z M70.531,102.922c-6.348,0-11.494-5.146-11.494-11.494s5.146-11.494,11.494-11.494
				s11.494,5.146,11.494,11.494C82.024,97.776,76.879,102.922,70.531,102.922z"/>
		</g>
	</g>
</g>
<g>
</g>
<g>
</g>
<g>
</g>
<g>
</g>
<g>
</g>
<g>
</g>
<g>
</g>
<g>
</g>
<g>
</g>
<g>
</g>
<g>
</g>
<g>
</g>
<g>
</g>
<g>
</g>
<g>
</g>
</svg>
