<?xml version="1.0" encoding="iso-8859-1"?>
<!-- Generator: Adobe Illustrator 19.0.0, SVG Export Plug-In . SVG Version: 6.00 Build 0)  -->
<svg version="1.1" id="Capa_1" xmlns="http://www.w3.org/2000/svg" xmlns:xlink="http://www.w3.org/1999/xlink" x="0px" y="0px"
	 viewBox="0 0 469.682 469.682" style="enable-background:new 0 0 469.682 469.682;" xml:space="preserve">
<g>
	<g>
		<g>
			<path d="M120.406,298.318h87.771c5.771,0,10.449-4.678,10.449-10.449s-4.678-10.449-10.449-10.449h-87.771
				c-5.771,0-10.449,4.678-10.449,10.449S114.635,298.318,120.406,298.318z"/>
			<path d="M291.769,319.216H120.406c-5.771,0-10.449,4.678-10.449,10.449s4.678,10.449,10.449,10.449h171.363
				c5.771,0,10.449-4.678,10.449-10.449S297.54,319.216,291.769,319.216z"/>
			<path d="M291.769,361.012H120.406c-5.771,0-10.449,4.678-10.449,10.449c0,5.771,4.678,10.449,10.449,10.449h171.363
				c5.771,0,10.449-4.678,10.449-10.449C302.218,365.69,297.54,361.012,291.769,361.012z"/>
			<path d="M420.291,387.135V42.318C420.291,19.331,404.095,0,381.108,0H156.455c-22.988,0-44.408,19.331-44.408,42.318v20.376
				H93.761c-22.988,0-44.408,17.763-44.408,40.751v345.339c0.68,6.37,4.644,11.919,10.449,14.629
				c6.009,2.654,13.026,1.416,17.763-3.135l31.869-28.735l38.139,33.959c2.845,2.639,6.569,4.128,10.449,4.18
				c3.861-0.144,7.554-1.621,10.449-4.18l37.616-33.959l37.616,33.959c5.95,5.322,14.948,5.322,20.898,0l38.139-33.959
				l31.347,28.735c3.795,4.671,10.374,5.987,15.673,3.135c5.191-2.98,8.232-8.656,7.837-14.629v-74.188l6.269-4.702l31.869,28.735
				c2.947,2.811,6.901,4.318,10.971,4.18c1.806,0.163,3.62-0.2,5.224-1.045C417.423,399.029,420.723,393.253,420.291,387.135z
				 M336.7,437.29l-24.555-24.033c-5.533-5.656-14.56-5.887-20.376-0.522l-38.139,33.959l-37.094-33.959
				c-6.108-4.89-14.79-4.89-20.898,0l-37.616,33.959l-38.139-33.959c-6.589-5.4-16.134-5.178-22.465,0.522L70.251,437.29V103.445
				c0-11.494,12.016-19.853,23.51-19.853h224.653c11.494,0,18.286,8.359,18.286,19.853V437.29z M399.393,375.641l-26.122-24.033
				c-4.18-4.18-5.224-5.224-15.673-3.657V103.445c1.157-21.321-15.19-39.542-36.51-40.699c-0.89-0.048-1.782-0.066-2.673-0.052
				H132.944V42.318c0-11.494,12.016-21.42,23.51-21.42h224.653c11.494,0,18.286,9.927,18.286,21.42V375.641z"/>
			<path d="M206.087,250.775c14.429-0.287,28.151-6.302,38.139-16.718c20.463-22.516,20.463-56.896,0-79.412l-38.139-40.229
				l-38.139,40.229c-20.463,22.516-20.463,56.896,0,79.412C177.832,244.623,191.62,250.667,206.087,250.775z M183.099,169.273
				l22.988-24.555l22.988,24.555c13.015,14.185,13.015,35.97,0,50.155c-5.913,6.412-14.266,10.019-22.988,9.927
				c-8.696-0.034-17-3.62-22.988-9.927C170.084,205.243,170.084,183.459,183.099,169.273z"/>
		</g>
	</g>
</g>
<g>
</g>
<g>
</g>
<g>
</g>
<g>
</g>
<g>
</g>
<g>
</g>
<g>
</g>
<g>
</g>
<g>
</g>
<g>
</g>
<g>
</g>
<g>
</g>
<g>
</g>
<g>
</g>
<g>
</g>
</svg>
