<?xml version="1.0" encoding="iso-8859-1"?>
<!-- Generator: Adobe Illustrator 19.0.0, SVG Export Plug-In . SVG Version: 6.00 Build 0)  -->
<svg version="1.1" id="Capa_1" xmlns="http://www.w3.org/2000/svg" xmlns:xlink="http://www.w3.org/1999/xlink" x="0px" y="0px"
	 viewBox="0 0 428.44 428.44" style="enable-background:new 0 0 428.44 428.44;" xml:space="preserve">
<g>
	<g>
		<path d="M428.404,200.034c0.3-3.5-1.3-6.9-4.2-8.9c-3-1.7-6.7-1.9-9.9-0.5l-90.4,41.3v-12.5c0-22.8-18.5-41.3-41.3-41.3
			c-0.2,0-0.4,0-0.5,0h-12.5c22.5-15.7,37.1-37.6,37.1-65.3c0.8-41.5-32.3-75.9-73.8-76.6c-33.2-0.6-62.8,20.5-73,52.1
			c-12.8-39.5-55.2-61.2-94.7-48.5c-31.6,10.2-52.7,39.9-52.1,73c0,27.7,14.6,49.6,37.1,65.3h-9.4c-22.5,0-40.8,18.2-40.8,40.7
			c0,0.2,0,0.4,0,0.5v131.1c-0.3,22.8,18,41.5,40.7,41.8h241.4c23.1,0,41.8-18.7,41.8-41.8v-11.5l90.9,40.8l4.2,1
			c1.9,0,3.7-0.5,5.2-1.6c2.9-2,4.5-5.4,4.2-8.9V200.034z M231.404,57.934c30.3,0,54.9,24.6,54.9,54.9s-24.6,54.8-54.9,54.8
			s-54.9-24.6-54.9-54.9C176.604,82.434,201.104,57.934,231.404,57.934z M192.804,178.034h-65.8c15.2-9.6,26.8-23.9,32.9-40.8
			C166.004,154.134,177.604,168.534,192.804,178.034z M34.004,112.734c-0.3-30.3,24-55.1,54.3-55.4c30.3-0.3,55.1,24,55.4,54.3
			s-24,55.1-54.3,55.4c-0.3,0-0.7,0-1,0C58.304,167.134,34.004,142.734,34.004,112.734z M303.004,350.434c0,11.5-9.4,20.9-20.9,20.9
			h-240.3c-11.5,0-20.9-9.4-20.9-20.9v-130.6c0-11.5,9.4-20.9,20.9-20.9h240.3c11.5,0,20.9,9.4,20.9,20.9V350.434z M407.504,354.134
			l-83.6-38.1v-61.1l83.6-38.7V354.134z"/>
	</g>
</g>
<g>
	<g>
		<path d="M88.304,80.834c-17.6,0-31.9,14.3-31.9,31.9c0.3,17.5,14.4,31.6,31.9,31.9c17.6,0,31.9-14.3,31.9-31.9
			C120.204,95.134,105.904,80.834,88.304,80.834z M88.304,123.734c-6-0.3-10.7-5-11-11c0-6.1,4.9-11,11-11c6.1,0,11,4.9,11,11
			C99.304,118.834,94.404,123.734,88.304,123.734z"/>
	</g>
</g>
<g>
	<g>
		<path d="M231.904,80.834c-17.6,0-31.9,14.3-31.9,31.9c0.3,17.5,14.4,31.6,31.9,31.9c17.7,0,31.9-14.3,31.9-31.9
			C263.804,95.134,249.504,80.834,231.904,80.834z M232.004,123.734c-6-0.3-10.7-5-11-11c0-6.1,4.9-11,11-11c6.1,0,11,4.9,11,11
			C243.004,118.834,238.104,123.734,232.004,123.734z"/>
	</g>
</g>
<g>
	<g>
		<path d="M263.804,321.934v-73.7c0-0.4,0-0.7,0-1.1c-0.2-5.5-4.9-9.7-10.4-9.4h-184.4c-5.7,0-10.4,4.6-10.4,10.4v73.7
			c0,5.7,4.6,10.4,10.4,10.4h184.4c0.3,0,0.7,0,1,0.1C259.904,332.134,264.104,327.434,263.804,321.934z M242.904,311.334h-163.5
			v-52.8h163.5V311.334z"/>
	</g>
</g>
<g>
</g>
<g>
</g>
<g>
</g>
<g>
</g>
<g>
</g>
<g>
</g>
<g>
</g>
<g>
</g>
<g>
</g>
<g>
</g>
<g>
</g>
<g>
</g>
<g>
</g>
<g>
</g>
<g>
</g>
</svg>
