<?xml version="1.0" encoding="iso-8859-1"?>
<!-- Generator: Adobe Illustrator 19.0.0, SVG Export Plug-In . SVG Version: 6.00 Build 0)  -->
<svg version="1.1" id="Capa_1" xmlns="http://www.w3.org/2000/svg" xmlns:xlink="http://www.w3.org/1999/xlink" x="0px" y="0px"
	 viewBox="0 0 434.678 434.678" style="enable-background:new 0 0 434.678 434.678;" xml:space="preserve">
<g>
	<g>
		<g>
			<path d="M392.882,57.992H41.796C18.713,57.992,0,76.704,0,99.788V334.89c0,23.083,18.713,41.796,41.796,41.796h351.086
				c23.083,0,41.796-18.713,41.796-41.796V99.788C434.678,76.704,415.965,57.992,392.882,57.992z M41.796,78.89h351.086
				c11.542,0,20.898,9.356,20.898,20.898v190.694H149.42V253.91H91.951v36.571H20.898V99.788
				C20.898,88.246,30.254,78.89,41.796,78.89z M128.522,274.808v41.796h-15.673v-41.796H128.522z M392.882,355.788H41.796
				c-11.542,0-20.898-9.356-20.898-20.898v-23.51h71.053v26.122h57.469V311.38H413.78v23.51
				C413.78,346.431,404.423,355.788,392.882,355.788z"/>
			<path d="M179.722,248.686c1.534,1.058,3.362,1.606,5.224,1.567c1.854-0.024,3.664-0.567,5.224-1.567l89.861-52.767
				c1.926-0.961,3.487-2.523,4.449-4.448c2.448-4.905,0.457-10.866-4.449-13.315l-89.861-52.767c-3.162-2.113-7.286-2.113-10.449,0
				c-3.262,1.754-5.276,5.178-5.224,8.882v105.535C174.654,243.449,176.613,246.778,179.722,248.686z M195.396,152.555
				l58.514,34.482l-58.514,34.482V152.555z"/>
		</g>
	</g>
</g>
<g>
</g>
<g>
</g>
<g>
</g>
<g>
</g>
<g>
</g>
<g>
</g>
<g>
</g>
<g>
</g>
<g>
</g>
<g>
</g>
<g>
</g>
<g>
</g>
<g>
</g>
<g>
</g>
<g>
</g>
</svg>
