<?xml version="1.0" encoding="iso-8859-1"?>
<!-- Generator: Adobe Illustrator 19.0.0, SVG Export Plug-In . SVG Version: 6.00 Build 0)  -->
<svg version="1.1" id="Capa_1" xmlns="http://www.w3.org/2000/svg" xmlns:xlink="http://www.w3.org/1999/xlink" x="0px" y="0px"
	 viewBox="0 0 482.246 482.246" style="enable-background:new 0 0 482.246 482.246;" xml:space="preserve">
<g>
	<g>
		<g>
			<path d="M191.07,201.665c55.688,0,100.833-45.144,100.833-100.833C291.903,45.144,246.759,0,191.07,0
				C135.382,0,90.238,45.144,90.238,100.833C90.238,156.521,135.382,201.665,191.07,201.665z M191.07,20.898
				c44.147,0,79.935,35.788,79.935,79.935c0,44.147-35.788,79.935-79.935,79.935c-44.147,0-79.935-35.788-79.935-79.935
				C111.136,56.686,146.924,20.898,191.07,20.898z"/>
			<path d="M479.031,328.62c-12.585-58.627-64.472-100.454-124.435-100.31c-12.58,0.082-25.079,2.019-37.094,5.747
				c-15.013-10.827-32.081-18.472-50.155-22.465c-2.864-1.04-6.067-0.439-8.359,1.567c-40.583,28.563-94.731,28.563-135.314,0
				c-2.071-2.03-5.145-2.644-7.837-1.567c-0.147,0.034-0.292,0.072-0.439,0.106c-0.654,0.094-1.3,0.25-1.927,0.466
				C47.279,228.55,0.55,287.912,0.377,356.31v15.674c-0.297,5.185,3.666,9.629,8.851,9.927c0.358,0.021,0.717,0.021,1.076,0h220.474
				c14.716,68.554,82.219,112.198,150.773,97.482C450.103,464.677,493.747,397.173,479.031,328.62z M283.544,277.42
				c7.528-7.253,16.171-13.25,25.6-17.763c-6.475,7.802-11.919,16.407-16.196,25.6L283.544,277.42z M285.111,305.633
				c-4.084,12.859-6.37,26.221-6.792,39.706h-28.735c1.419-18.97,8.316-37.12,19.853-52.245
				C274.189,297.833,279.445,302.038,285.111,305.633z M228.164,354.743v6.269H21.275v-4.702
				c0.294-57.441,38.668-107.673,93.942-123.114c22.469,14.86,48.843,22.816,75.854,22.804c25.002-0.054,49.441-6.956,70.704-19.857
				c1.701-1.01,3.39-2.046,5.051-3.131c9.49,2.472,18.622,6.16,27.167,10.971C253.473,266.115,228.238,308.573,228.164,354.743z
				 M249.585,366.237h28.735c0.416,13.315,2.702,26.505,6.792,39.184c-5.666,3.595-10.922,7.8-15.673,12.539
				C257.888,403.04,250.983,385.052,249.585,366.237z M283.544,433.11c2.753-3.039,5.919-5.677,9.404-7.837
				c4.406,8.96,9.841,17.376,16.196,25.078C299.844,445.833,291.227,440.029,283.544,433.11z M345.193,455.053
				c-14.888-9.797-26.527-23.8-33.437-40.229c10.626-4.654,21.902-7.649,33.437-8.882V455.053z M345.193,385.045
				c-14.125,0.86-27.955,4.407-40.751,10.449c-2.84-9.524-4.593-19.339-5.224-29.257h45.976V385.045z M345.193,345.339h-45.976
				c0.632-10.09,2.384-20.077,5.224-29.78c12.946,5.442,26.729,8.623,40.751,9.404V345.339z M345.193,304.065
				c-11.466-1.297-22.709-4.108-33.437-8.359c6.765-16.654,18.424-30.864,33.437-40.751V304.065z M426.172,276.898
				c-3.075,2.896-6.396,5.518-9.927,7.837c-4.221-8.946-9.482-17.363-15.673-25.078C409.8,264.299,418.402,270.093,426.172,276.898z
				 M366.091,254.955c14.872,9.678,26.373,23.734,32.914,40.229c-10.445,4.649-21.549,7.646-32.914,8.882V254.955z M366.091,324.963
				c13.686-0.774,27.127-3.958,39.706-9.404c2.702,9.714,4.28,19.706,4.702,29.78h-44.408V324.963z M366.091,366.237h44.408
				c-0.461,9.898-2.039,19.713-4.702,29.257c-12.516-5.796-25.958-9.333-39.706-10.449V366.237z M366.091,455.053v-49.11
				c11.366,1.236,22.47,4.232,32.914,8.882C392.464,431.319,380.963,445.375,366.091,455.053z M400.572,450.351
				c6.416-7.552,11.696-16.001,15.673-25.078l9.927,7.837C418.402,439.916,409.8,445.709,400.572,450.351z M439.756,417.959
				c-4.685-4.446-9.755-8.467-15.151-12.016c3.789-12.929,6.068-26.253,6.792-39.706h28.735
				C458.405,385.066,451.336,403.011,439.756,417.959z M431.397,345.339c-0.725-13.624-3.004-27.121-6.792-40.229
				c5.396-3.549,10.466-7.571,15.151-12.016c11.57,15.152,18.632,33.26,20.376,52.245H431.397z"/>
		</g>
	</g>
</g>
<g>
</g>
<g>
</g>
<g>
</g>
<g>
</g>
<g>
</g>
<g>
</g>
<g>
</g>
<g>
</g>
<g>
</g>
<g>
</g>
<g>
</g>
<g>
</g>
<g>
</g>
<g>
</g>
<g>
</g>
</svg>
