<?xml version="1.0" encoding="iso-8859-1"?>
<!-- Generator: Adobe Illustrator 19.0.0, SVG Export Plug-In . SVG Version: 6.00 Build 0)  -->
<svg version="1.1" id="Capa_1" xmlns="http://www.w3.org/2000/svg" xmlns:xlink="http://www.w3.org/1999/xlink" x="0px" y="0px"
	 viewBox="0 0 449.3 449.3" style="enable-background:new 0 0 449.3 449.3;" xml:space="preserve">
<g>
	<g>
		<path d="M437.9,46.832H127.5c-5.7,0-12.5,4.2-12.5,9.9v47.5H11.5c-6,0-11,4.5-11.5,10.4v277.4c0.1,4.1,2.5,7.8,6.3,9.4
			c1.4,0.8,3.1,1.2,4.7,1c2.3,0.1,4.5-0.6,6.3-2.1l71.1-50.7h233.5c6.2,0.1,11.5-4.4,12.5-10.4v-47H361l71.1,50.7
			c1.7,1.1,3.7,1.6,5.7,1.6c1.8,0.2,3.6-0.2,5.2-1c3.8-1.6,6.2-5.3,6.3-9.4v-277.4C448.8,50.832,443.7,46.532,437.9,46.832z
			 M85.2,328.932c-2.5-0.2-4.9,0.5-6.8,2.1l-57.5,40.8v-246.7h94v156.2c1,6.2,6.3,10.8,12.5,11h186v36.6H85.2z M428.5,313.732
			l-57.5-40.8c-2.1-1.1-4.4-1.7-6.8-1.6H135.9v-203.6h292.6V313.732z"/>
	</g>
</g>
<g>
	<g>
		<path d="M356.3,85.432c-22.5,0.3-40.5,18.8-40.2,41.3s18.8,40.5,41.3,40.2c22.2,0,40.2-18,40.2-40.3c0-0.3,0-0.7,0-1
			C397.3,103.132,378.8,85.132,356.3,85.432z M376.7,127.232c-0.3,10.9-9.4,19.6-20.4,19.3c-10.9-0.3-19.6-9.5-19.3-20.4
			c0.3-10.9,9.4-19.6,20.4-19.3c0.2,0,0.4,0.1,0.5,0.1c10.7,0.2,19.1,9.1,18.8,19.8C376.7,126.932,376.7,127.032,376.7,127.232z"/>
	</g>
</g>
<g>
	<g>
		<path d="M280.5,103.232c-22.5,0.3-40.5,18.8-40.2,41.3s18.8,40.5,41.3,40.2c22.3,0,40.3-18,40.2-40.3c0-0.3,0-0.7,0-1
			C321.5,120.932,303,102.932,280.5,103.232z M300.9,145.032c-0.3,10.9-9.4,19.6-20.4,19.3c-10.9-0.3-19.6-9.5-19.3-20.4
			s9.4-19.6,20.4-19.3c0.2,0,0.4,0,0.5,0.1c10.7,0.2,19.1,9.1,18.8,19.8C300.9,144.732,300.9,144.832,300.9,145.032z"/>
	</g>
</g>
<g>
	<g>
		<path d="M363,172.332c-0.5-0.2-0.7-0.1-0.9-0.1h-9.9c-17.3-0.2-33.8,7.7-44.4,21.4c-6.6-3.4-14-5.4-21.4-5.7H276
			c-7.5,0.3-14.8,2.3-21.4,5.7c-10.6-13.7-27.1-21.6-44.4-21.4h-10.4c-29.7-0.6-54.3,23-54.8,52.8c0,0.4,0,0.7,0,1.1
			c0.3,5.2,4.7,9.2,9.9,8.9c0.2,0,0.4,0,0.6,0h66.9c-0.5,3.5-0.9,7-1,10.4c0,5.8,4.7,10.4,10.4,10.4h99.3c5.8,0,10.4-4.7,10.4-10.4
			c-0.2-3.5-0.5-7-1-10.4h66.9c5.2,0.6,9.8-3.1,10.4-8.3c0-0.2,0-0.4,0-0.6C417.5,196.132,393,172.032,363,172.332z M229.9,214.032
			h-62.7c4.7-15.7,17.2-20.9,32.4-20.9H210c10.6-0.6,20.8,4.1,27.2,12.5C234.6,208.732,232,208.732,229.9,214.032z M243.5,234.832
			c3.7-15,17-25.6,32.4-26.1h10.4c15.4,0.5,28.7,11.1,32.4,26.1H243.5z M332.3,214.032c-2.1-5.2-4.7-5.2-7.3-8.4
			c6.4-8.4,16.6-13.1,27.2-12.5h9.9c15.7,0,28.2,5.2,32.9,20.9H332.3z"/>
	</g>
</g>
<g>
	<g>
		<path d="M204.9,85.432c-22.6,0-40.8,18.2-40.8,40.7c0,22.6,18.2,40.8,40.7,40.8c22.4,0,40.5-17.9,40.8-40.2c0-0.2,0-0.3,0-0.5
			C245.6,103.632,227.4,85.432,204.9,85.432z M204.8,146.632c-11,0-19.9-8.9-19.9-19.9s8.9-19.9,19.9-19.9s19.9,8.9,19.9,19.9
			S215.8,146.632,204.8,146.632z"/>
	</g>
</g>
<g>
</g>
<g>
</g>
<g>
</g>
<g>
</g>
<g>
</g>
<g>
</g>
<g>
</g>
<g>
</g>
<g>
</g>
<g>
</g>
<g>
</g>
<g>
</g>
<g>
</g>
<g>
</g>
<g>
</g>
</svg>
