<?xml version="1.0" encoding="iso-8859-1"?>
<!-- Generator: Adobe Illustrator 19.0.0, SVG Export Plug-In . SVG Version: 6.00 Build 0)  -->
<svg version="1.1" id="Capa_1" xmlns="http://www.w3.org/2000/svg" xmlns:xlink="http://www.w3.org/1999/xlink" x="0px" y="0px"
	 viewBox="0 0 491.102 491.102" style="enable-background:new 0 0 491.102 491.102;" xml:space="preserve">
<g>
	<g>
		<g>
			<path d="M489.535,230.534l-44.408-79.412c-1.838-3.436-5.516-5.48-9.404-5.224h-97.698c-4.905-0.034-8.909,3.915-8.943,8.82
				c-0.003,0.37,0.018,0.74,0.062,1.107V276.51h-5.224V88.428c-0.792-6.018-5.947-10.501-12.016-10.449H21.943
				c-5.961-0.025-10.952,4.512-11.494,10.449V276.51C4.791,276.773,0.264,281.301,0,286.959v70.008
				c0,5.747,5.747,8.359,11.494,8.359h22.465c4.191,30.297,32.149,51.459,62.446,47.268c24.561-3.398,43.87-22.707,47.268-47.268
				h207.935c4.191,30.297,32.149,51.459,62.446,47.268c24.561-3.398,43.87-22.707,47.268-47.268h18.286
				c5.747,0,11.494-2.612,11.494-8.359V235.759C490.822,233.953,490.295,232.195,489.535,230.534z M31.347,98.877H303.02V276.51
				H31.347V98.877z M88.816,391.448c-19.044,0-34.482-15.438-34.482-34.482s15.438-34.482,34.482-34.482
				c19.044,0,34.482,15.438,34.482,34.482C123.018,375.893,107.743,391.168,88.816,391.448z M329.143,344.428H142.629
				c-7.225-29.72-37.175-47.955-66.894-40.73c-20.125,4.892-35.838,20.605-40.73,40.73H20.898v-47.02h308.245V344.428z
				 M350.041,166.795h79.412l32.914,57.469H350.041V166.795z M406.465,391.448c-19.044,0-34.482-15.438-34.482-34.482
				s15.438-34.482,34.482-34.482c19.044,0,34.482,15.438,34.482,34.482C440.667,375.893,425.392,391.168,406.465,391.448z
				 M470.204,344.428h-9.927c-7.225-29.72-37.175-47.955-66.894-40.73c-20.125,4.892-35.838,20.605-40.73,40.73h-2.612v-99.265
				h120.163V344.428z"/>
			<path d="M240.327,109.849c-5.771,0-10.449,4.678-10.449,10.449v2.09l-122.253,23.51h-27.69
				c-6.491,1.149-11.411,6.497-12.016,13.061v53.29c0.696,6.326,5.691,11.32,12.016,12.016h27.69l12.539,1.045v26.645
				c0,5.747,5.224,8.882,10.971,8.882h55.902c5.747,0,11.494-3.135,11.494-8.882v-11.494l31.347,6.792v3.657
				c0,5.771,4.678,10.449,10.449,10.449s10.449-4.678,10.449-10.449V120.297C250.776,114.527,246.097,109.849,240.327,109.849z
				 M99.265,203.367H88.816v-36.571h10.449V203.367z M177.633,239.938h-36.571v-10.449l36.571,6.792V239.938z M229.878,225.832
				l-109.714-21.943v-36.571l109.714-21.943V225.832z"/>
		</g>
	</g>
</g>
<g>
</g>
<g>
</g>
<g>
</g>
<g>
</g>
<g>
</g>
<g>
</g>
<g>
</g>
<g>
</g>
<g>
</g>
<g>
</g>
<g>
</g>
<g>
</g>
<g>
</g>
<g>
</g>
<g>
</g>
</svg>
