<?xml version="1.0" encoding="iso-8859-1"?>
<!-- Generator: Adobe Illustrator 19.0.0, SVG Export Plug-In . SVG Version: 6.00 Build 0)  -->
<svg version="1.1" id="Capa_1" xmlns="http://www.w3.org/2000/svg" xmlns:xlink="http://www.w3.org/1999/xlink" x="0px" y="0px"
	 viewBox="0 0 491.102 491.102" style="enable-background:new 0 0 491.102 491.102;" xml:space="preserve">
<g>
	<g>
		<g>
			<path d="M489.535,246.208l-44.408-79.412c-1.838-3.436-5.516-5.48-9.404-5.224h-97.698c-4.905-0.034-8.909,3.915-8.943,8.82
				c-0.003,0.37,0.018,0.74,0.062,1.107v120.686h-5.224V130.224c-0.792-6.018-5.947-10.501-12.016-10.449h-29.78v-10.449h22.465
				c4.605,0.326,8.603-3.143,8.929-7.748c0.039-0.552,0.023-1.107-0.047-1.656V72.755c0.583-5.161-3.127-9.818-8.288-10.401
				c-0.197-0.022-0.395-0.038-0.593-0.048h-57.469c-6.07-0.052-11.225,4.431-12.016,10.449v27.167c0,5.747,6.269,9.404,12.016,9.404
				h19.331v10.449h-88.816v-10.449h18.808c5.747,0,12.539-3.657,12.539-9.404V72.755c-1.03-6.099-6.354-10.535-12.539-10.449
				h-56.947c-5.187,0.256-9.185,4.668-8.93,9.856c0.01,0.198,0.026,0.396,0.048,0.593v27.167c-0.589,4.579,2.646,8.768,7.225,9.357
				c0.549,0.071,1.104,0.086,1.656,0.047h22.465v10.449H67.918v-10.449h20.898c5.162,0.577,9.814-3.139,10.391-8.301
				c0.041-0.366,0.06-0.735,0.058-1.103V72.755c0-5.771-4.678-10.449-10.449-10.449H31.869c-5.861-0.007-10.692,4.595-10.971,10.449
				v27.167c0.257,5.476,4.906,9.707,10.382,9.449c0.197-0.009,0.394-0.024,0.59-0.045h20.375v10.449h-27.69
				c-6.269,0-8.882,4.702-8.882,10.449v161.959h-4.18C5.533,292.159,0.542,296.696,0,302.633v70.008C0,378.388,5.747,381,11.494,381
				h22.465c4.191,30.297,32.149,51.459,62.446,47.268c24.561-3.398,43.87-22.707,47.268-47.268h207.935
				c4.191,30.297,32.149,51.459,62.446,47.268c24.561-3.398,43.87-22.707,47.268-47.268h18.286c5.747,0,11.494-2.612,11.494-8.359
				V251.433C490.9,249.611,490.369,247.84,489.535,246.208z M256,88.428v-5.224h36.571v5.224H256z M151.51,88.428v-5.224h36.571
				v5.224H151.51z M41.796,88.428v-5.224h36.571v5.224H41.796z M36.571,140.673H303.02v151.51H36.571V140.673z M88.816,407.122
				c-19.044,0-34.482-15.438-34.482-34.482s15.438-34.482,34.482-34.482c19.044,0,34.482,15.438,34.482,34.482
				C123.018,391.567,107.743,406.842,88.816,407.122z M329.143,360.102H142.629c-7.225-29.72-37.175-47.955-66.894-40.73
				c-20.125,4.893-35.838,20.605-40.73,40.73H20.898v-47.02h308.245V360.102z M350.041,182.469h79.412l33.437,57.469H350.041
				V182.469z M406.465,407.122c-19.044,0-34.482-15.438-34.482-34.482s15.438-34.482,34.482-34.482
				c19.044,0,34.482,15.438,34.482,34.482C440.667,391.567,425.392,406.842,406.465,407.122z M470.204,360.102h-9.927
				c-7.225-29.72-37.175-47.955-66.894-40.73c-20.125,4.892-35.838,20.605-40.73,40.73h-2.612v-99.265h120.163V360.102z"/>
			<path d="M161.959,161.571H62.694c-5.771,0-10.449,4.678-10.449,10.449v83.592c0,5.771,4.678,10.449,10.449,10.449h99.265
				c5.771,0,10.449-4.678,10.449-10.449V172.02C172.408,166.249,167.73,161.571,161.959,161.571z M151.51,245.163H73.143v-62.694
				h78.367V245.163z"/>
			<path d="M274.286,224.265h-76.278c-5.771,0-10.449,4.678-10.449,10.449s4.678,10.449,10.449,10.449h76.278
				c5.771,0,10.449-4.678,10.449-10.449S280.057,224.265,274.286,224.265z"/>
			<path d="M274.286,182.469h-76.278c-5.771,0-10.449,4.678-10.449,10.449c0,5.771,4.678,10.449,10.449,10.449h76.278
				c5.771,0,10.449-4.678,10.449-10.449C284.735,187.147,280.057,182.469,274.286,182.469z"/>
		</g>
	</g>
</g>
<g>
</g>
<g>
</g>
<g>
</g>
<g>
</g>
<g>
</g>
<g>
</g>
<g>
</g>
<g>
</g>
<g>
</g>
<g>
</g>
<g>
</g>
<g>
</g>
<g>
</g>
<g>
</g>
<g>
</g>
</svg>
