<?xml version="1.0" encoding="iso-8859-1"?>
<!-- Generator: Adobe Illustrator 19.0.0, SVG Export Plug-In . SVG Version: 6.00 Build 0)  -->
<svg version="1.1" id="Capa_1" xmlns="http://www.w3.org/2000/svg" xmlns:xlink="http://www.w3.org/1999/xlink" x="0px" y="0px"
	 viewBox="0 0 444.654 444.654" style="enable-background:new 0 0 444.654 444.654;" xml:space="preserve">
<g>
	<g>
		<g>
			<path d="M222.327,145.804c-35.202,0-63.739,28.537-63.739,63.739s28.537,63.739,63.739,63.739s63.739-28.537,63.739-63.739
				S257.529,145.804,222.327,145.804z M222.327,252.384c-23.66,0-42.841-19.18-42.841-42.841s19.18-42.841,42.841-42.841
				s42.841,19.18,42.841,42.841S245.987,252.384,222.327,252.384z"/>
			<path d="M222.327,69.004c-77.617,0-140.539,62.921-140.539,140.539s62.921,140.539,140.539,140.539
				c77.498-0.286,140.252-63.04,140.539-140.539C362.866,131.926,299.944,69.004,222.327,69.004z M222.329,329.706
				c-66.076,0.001-119.641-53.564-119.642-119.64c-0.001-66.076,53.564-119.641,119.64-119.642
				c65.872-0.001,119.353,53.247,119.641,119.118c0.001,0.174,0.001,0.348,0.001,0.521
				C341.97,276.14,288.405,329.706,222.329,329.706z"/>
			<path d="M371.747,356.351c81.102-82.523,79.951-215.167-2.571-296.269S154.009-19.87,72.906,62.653
				c-80.109,81.512-80.109,212.187,0,293.698l-37.094,37.094c-11.545,11.947-11.545,30.894,0,42.841
				c5.733,5.542,13.449,8.553,21.42,8.359c7.951,0.081,15.626-2.914,21.42-8.359l42.841-43.363
				c62.697,34.879,138.968,34.879,201.665,0L366,436.286c5.795,5.445,13.469,8.44,21.42,8.359
				c16.533,0.002,30.017-13.249,30.302-29.78c0.055-8.047-3.149-15.773-8.882-21.42L371.747,356.351z M63.502,421.135
				c-3.644,3.517-9.418,3.517-13.061,0c-3.056-3.817-3.056-9.244,0-13.061l38.139-37.616l14.629,11.494L63.502,421.135z
				 M222.327,398.147c-104.163,0-188.604-84.441-188.604-188.604S118.164,20.939,222.327,20.939s188.604,84.441,188.604,188.604
				S326.49,398.147,222.327,398.147z M394.213,421.135c-3.644,3.517-9.418,3.517-13.061,0l-39.706-39.184l14.629-11.494
				l38.139,37.616c1.618,1.901,2.539,4.297,2.612,6.792C396.766,417.208,395.834,419.443,394.213,421.135z"/>
		</g>
	</g>
</g>
<g>
</g>
<g>
</g>
<g>
</g>
<g>
</g>
<g>
</g>
<g>
</g>
<g>
</g>
<g>
</g>
<g>
</g>
<g>
</g>
<g>
</g>
<g>
</g>
<g>
</g>
<g>
</g>
<g>
</g>
</svg>
