<?xml version="1.0" encoding="iso-8859-1"?>
<!-- Generator: Adobe Illustrator 19.0.0, SVG Export Plug-In . SVG Version: 6.00 Build 0)  -->
<svg version="1.1" id="Capa_1" xmlns="http://www.w3.org/2000/svg" xmlns:xlink="http://www.w3.org/1999/xlink" x="0px" y="0px"
	 viewBox="0 0 470.206 470.206" style="enable-background:new 0 0 470.206 470.206;" xml:space="preserve">
<g>
	<g>
		<g>
			<path d="M415.068,428.408V41.796C415.068,18.713,396.355,0,373.272,0H96.896C73.813,0,55.1,18.713,55.1,41.796v386.612
				c0,23.083,18.713,41.796,41.796,41.796h276.898c11.23,0.102,22.005-4.434,29.78-12.539
				C411.376,449.981,415.553,439.348,415.068,428.408z M388.945,443.037c-3.985,4.067-9.457,6.331-15.151,6.269H96.896
				c-11.542,0-20.898-9.356-20.898-20.898V41.796c0-11.542,9.356-20.898,20.898-20.898h276.375c0.353-0.009,0.706-0.009,1.059,0
				c11.249,0.292,20.132,9.649,19.839,20.898v387.135C394.603,434.174,392.69,439.341,388.945,443.037z"/>
			<path d="M368.047,55.902c0.019-0.358,0.019-0.716,0-1.074c-0.297-5.474-4.975-9.672-10.449-9.375H112.57
				c-5.771,0-10.449,4.678-10.449,10.449v312.947c0,5.771,4.678,10.449,10.449,10.449h245.029c0.358,0.019,0.716,0.019,1.074,0
				c5.474-0.297,9.672-4.975,9.375-10.449V55.902z M347.149,358.4H123.019V66.351h224.131V358.4z"/>
			<path d="M264.08,400.718H206.61c-5.771,0-10.449,4.678-10.449,10.449c0,5.771,4.678,10.449,10.449,10.449h57.469
				c5.771,0,10.449-4.678,10.449-10.449C274.529,405.397,269.851,400.718,264.08,400.718z"/>
			<path d="M170.561,150.988h66.873c5.771,0,10.449-4.678,10.449-10.449c0-5.771-4.678-10.449-10.449-10.449h-66.873
				c-5.771,0-10.449,4.678-10.449,10.449C160.112,146.31,164.791,150.988,170.561,150.988z"/>
			<path d="M170.561,218.906h129.567c5.771,0,10.449-4.678,10.449-10.449s-4.678-10.449-10.449-10.449H170.561
				c-5.771,0-10.449,4.678-10.449,10.449S164.791,218.906,170.561,218.906z"/>
			<path d="M170.561,286.825h129.567c5.771,0,10.449-4.678,10.449-10.449c0-5.771-4.678-10.449-10.449-10.449H170.561
				c-5.771,0-10.449,4.678-10.449,10.449C160.112,282.146,164.791,286.825,170.561,286.825z"/>
		</g>
	</g>
</g>
<g>
</g>
<g>
</g>
<g>
</g>
<g>
</g>
<g>
</g>
<g>
</g>
<g>
</g>
<g>
</g>
<g>
</g>
<g>
</g>
<g>
</g>
<g>
</g>
<g>
</g>
<g>
</g>
<g>
</g>
</svg>
