<?xml version="1.0" encoding="iso-8859-1"?>
<!-- Generator: Adobe Illustrator 19.0.0, SVG Export Plug-In . SVG Version: 6.00 Build 0)  -->
<svg version="1.1" id="Capa_1" xmlns="http://www.w3.org/2000/svg" xmlns:xlink="http://www.w3.org/1999/xlink" x="0px" y="0px"
	 viewBox="0 0 490.102 490.102" style="enable-background:new 0 0 490.102 490.102;" xml:space="preserve">
<g>
	<g>
		<g>
			<path d="M487.445,191.238L365.714,45.475c-1.808-2.549-4.712-4.098-7.837-4.18H132.18c-3.085,0.226-5.93,1.744-7.837,4.18
				L2.612,184.969c-1.633,2.293-2.543,5.022-2.612,7.837c0.162,2.961,1.711,5.671,4.18,7.314l64.784,52.245
				c4.127,3.508,10.25,3.281,14.106-0.522l31.347-31.869l-1.567,217.339c-0.173,2.948,0.976,5.821,3.135,7.837
				c1.699,2.336,4.427,3.7,7.314,3.657h243.461c2.888,0.043,5.616-1.321,7.314-3.657c2.076-1.854,3.224-4.532,3.135-7.314
				l-1.567-215.249l25.078,28.735c3.368,3.995,9.17,4.888,13.584,2.09l71.053-46.498c2.39-1.799,4.057-4.393,4.702-7.314
				C490.324,196.575,489.385,193.571,487.445,191.238z M298.318,62.193c-5.857,29.431-34.463,48.542-63.894,42.685
				c-21.551-4.289-38.397-21.135-42.685-42.685H298.318z M410.645,230.944l-37.616-43.363c-2.928-3.155-7.49-4.192-11.494-2.612
				c-4.132,1.544-6.85,5.516-6.792,9.927l1.567,233.012H133.747l1.567-233.012c0.005-4.243-2.436-8.108-6.269-9.927
				c-3.926-1.448-8.329-0.647-11.494,2.09L74.71,230.422L25.6,190.716L136.882,62.193h33.437
				c4.888,41.261,42.3,70.748,83.561,65.859c34.537-4.092,61.768-31.323,65.859-65.859h32.914l111.282,133.224L410.645,230.944z"/>
			<path d="M245.029,182.356c-23.245,0.47-45.379,10.037-61.649,26.645c-16.098,16.903-25.078,39.351-25.078,62.694
				c0.54,47.932,38.812,86.895,86.727,88.294c23.245-0.47,45.379-10.037,61.649-26.645c16.098-16.903,25.078-39.351,25.078-62.694
				C331.763,222.493,293.179,183.211,245.029,182.356z M291.527,318.716c-12.082,12.835-28.872,20.192-46.498,20.376
				c-17.6-0.302-34.346-7.64-46.498-20.376c-12.493-12.87-19.434-30.13-19.331-48.065c-0.113-17.63,6.851-34.568,19.331-47.02
				c12.082-12.835,28.872-20.192,46.498-20.375c17.6,0.302,34.346,7.64,46.498,20.375c12.493,12.87,19.434,30.13,19.331,48.065
				C310.855,289.302,303.909,306.198,291.527,318.716z"/>
			<path d="M264.359,248.185l-10.449-20.898c-1.025-2.116-2.733-3.825-4.849-4.849c-5.194-2.515-11.443-0.344-13.959,4.849
				l-10.449,20.898l-22.988,3.135c-2.218,0.342-4.267,1.389-5.843,2.987c-4.054,4.107-4.011,10.723,0.096,14.777l16.718,16.718
				l-3.657,22.988c-0.934,3.746,0.516,7.682,3.657,9.927c3.366,2.386,7.753,2.785,11.494,1.045l20.375-10.971l20.375,10.971
				l5.224,1.045c2.267,0.04,4.48-0.698,6.269-2.09c3.123-2.281,4.73-6.099,4.18-9.927l-4.18-22.988l16.718-16.718
				c1.597-1.576,2.644-3.625,2.987-5.843c0.88-5.703-3.03-11.04-8.733-11.92L264.359,248.185z M258.09,274.307
				c-2.56,2.408-3.738,5.942-3.135,9.404l1.045,7.314l-6.792-3.135c-1.373-0.986-3.012-1.532-4.702-1.567
				c-1.69,0.035-3.329,0.582-4.702,1.567l-6.792,3.135l1.045-7.314c0.499-3.363-0.45-6.78-2.612-9.404l-5.747-5.224l7.837-1.045
				c3.365-0.591,6.262-2.716,7.837-5.747l3.135-6.792l3.135,6.792c1.68,3.166,4.801,5.312,8.359,5.747l7.314,1.045L258.09,274.307z"
				/>
		</g>
	</g>
</g>
<g>
</g>
<g>
</g>
<g>
</g>
<g>
</g>
<g>
</g>
<g>
</g>
<g>
</g>
<g>
</g>
<g>
</g>
<g>
</g>
<g>
</g>
<g>
</g>
<g>
</g>
<g>
</g>
<g>
</g>
</svg>
