<?xml version="1.0" encoding="iso-8859-1"?>
<!-- Generator: Adobe Illustrator 19.0.0, SVG Export Plug-In . SVG Version: 6.00 Build 0)  -->
<svg version="1.1" id="Capa_1" xmlns="http://www.w3.org/2000/svg" xmlns:xlink="http://www.w3.org/1999/xlink" x="0px" y="0px"
	 viewBox="0 0 417.973 417.973" style="enable-background:new 0 0 417.973 417.973;" xml:space="preserve">
<g>
	<g>
		<g>
			<path d="M408.569,76.298c-0.179-0.009-0.357-0.014-0.536-0.014H114.939V27.697c-0.739-6.503-6.01-11.555-12.539-12.016H47.543
				c-25.442,0.838-45.71,21.566-45.976,47.02H0v291.527c0.543,26.116,21.434,47.237,47.543,48.065h358.922
				c6.215-0.734,11.036-5.774,11.494-12.016V86.734C418.248,81.259,414.043,76.587,408.569,76.298z M20.898,63.746
				C21.165,49.055,32.86,37.13,47.543,36.578h46.498v266.449H47.543c-9.404,0-16.196,4.18-26.645,9.404V63.746z M397.061,381.395
				H47.543c-14.683-0.552-26.378-12.476-26.645-27.167v-3.135c0.267-14.691,11.962-26.615,26.645-27.167H102.4
				c6.269,0,12.539-3.135,12.539-8.882V96.66h282.122V381.395z"/>
			<path d="M199.576,185.476l35.526-32.701V289.64c-12.463,4.327-21.414,16.165-21.416,30.102
				c-0.002,17.601,14.264,31.871,31.865,31.874c17.399,0.002,31.584-13.95,31.869-31.347c0.003-0.173,0.004-0.345,0.004-0.518
				c0.002-13.943-8.954-25.788-21.425-30.113V152.776l35.527,32.701c1.982,1.828,4.623,2.771,7.314,2.612
				c2.915-0.013,5.717-1.134,7.837-3.135c0.209-0.22,0.407-0.449,0.595-0.686c3.397-4.303,2.663-10.545-1.64-13.942l-52.767-49.11
				c-4.165-3.725-10.464-3.725-14.629,0l-52.767,49.11c-0.238,0.188-0.467,0.386-0.686,0.595
				c-3.974,3.776-4.135,10.059-0.358,14.034C188.523,189.15,195.198,189.38,199.576,185.476z M245.551,331.24
				c-6.059,0-10.971-4.912-10.971-10.971c0-6.059,4.912-10.971,10.971-10.971v0h0c6.059,0,10.971,4.912,10.971,10.971
				C256.522,326.328,251.61,331.24,245.551,331.24z"/>
			<path d="M179.722,265.934c17.024,0,30.824-13.801,30.824-30.825c0-17.024-13.801-30.824-30.824-30.824
				c-17.024,0-30.825,13.801-30.825,30.824C148.898,252.133,162.699,265.934,179.722,265.934z M179.722,225.183
				c5.478,0.003,9.917,4.443,9.92,9.92c0.003,5.482-4.438,9.929-9.92,9.933c-5.478-0.003-9.917-4.443-9.92-9.921
				C169.799,229.633,174.24,225.186,179.722,225.183z"/>
			<path d="M293.094,211.599c-2.786,3.715-2.786,8.824,0,12.539l10.971,10.971l-10.971,10.971c-4.04,3.706-4.31,9.986-0.603,14.025
				c0.192,0.21,0.394,0.411,0.603,0.603c1.854,2.076,4.532,3.224,7.314,3.135c2.756-0.039,5.385-1.166,7.314-3.135l10.971-10.971
				l10.971,10.971c1.929,1.969,4.558,3.095,7.314,3.135c2.782,0.089,5.46-1.059,7.314-3.135c4.04-3.706,4.31-9.986,0.603-14.025
				c-0.192-0.21-0.394-0.411-0.603-0.603l-10.971-10.971l10.971-10.971c4.617-3.462,5.552-10.012,2.09-14.629
				c-3.462-4.617-10.012-5.552-14.629-2.09c-0.792,0.594-1.496,1.298-2.09,2.09l-10.971,10.971l-10.971-10.971
				C303.106,206.047,296.556,206.982,293.094,211.599z"/>
		</g>
	</g>
</g>
<g>
</g>
<g>
</g>
<g>
</g>
<g>
</g>
<g>
</g>
<g>
</g>
<g>
</g>
<g>
</g>
<g>
</g>
<g>
</g>
<g>
</g>
<g>
</g>
<g>
</g>
<g>
</g>
<g>
</g>
</svg>
