<?xml version="1.0" encoding="iso-8859-1"?>
<!-- Generator: Adobe Illustrator 19.0.0, SVG Export Plug-In . SVG Version: 6.00 Build 0)  -->
<svg version="1.1" id="Capa_1" xmlns="http://www.w3.org/2000/svg" xmlns:xlink="http://www.w3.org/1999/xlink" x="0px" y="0px"
	 viewBox="0 0 470.204 470.204" style="enable-background:new 0 0 470.204 470.204;" xml:space="preserve">
<g>
	<g>
		<g>
			<path d="M433.633,26.122H292.571l-9.404-19.853c-1.636-3.751-5.312-6.202-9.404-6.269h-77.323
				c-4.092,0.068-7.768,2.518-9.404,6.269l-9.404,19.853H36.571c-5.771,0-10.449,4.678-10.449,10.449v47.02
				c0,5.771,4.678,10.449,10.449,10.449h15.674v233.535c0,5.747,3.657,12.016,9.404,12.016h163.004V384
				c-19.521,4.785-33.297,22.22-33.437,42.318c0,24.237,19.648,43.886,43.886,43.886s43.886-19.648,43.886-43.886
				c-0.14-20.099-13.916-37.533-33.437-42.318v-44.408h163.004c5.747,0,9.404-6.269,9.404-12.016V94.041h15.673
				c5.771,0,10.449-4.678,10.449-10.449v-47.02C444.082,30.801,439.403,26.122,433.633,26.122z M258.09,426.318
				c0,12.696-10.292,22.988-22.988,22.988s-22.988-10.292-22.988-22.988s10.292-22.988,22.988-22.988S258.09,413.623,258.09,426.318
				z M397.061,318.694H73.143V94.041h323.918V318.694z M423.184,73.143H47.02V47.02h137.404c4.092-0.068,7.768-2.518,9.404-6.269
				l9.404-19.853h63.739l9.404,19.853c1.636,3.751,5.312,6.202,9.404,6.269h137.404V73.143z"/>
			<path d="M252.865,223.086h-35.527c-0.358-0.019-0.716-0.019-1.074,0c-5.474,0.297-9.672,4.975-9.375,10.449v63.739
				c0,5.771,4.678,10.449,10.449,10.449h35.527c5.771,0,10.449-4.678,10.449-10.449v-63.739c0.019-0.358,0.019-0.716,0-1.074
				C263.018,226.986,258.34,222.789,252.865,223.086z M242.416,286.825h-14.629v-42.841h14.629V286.825z"/>
			<path d="M322.873,185.992h-35.527c-5.771,0-10.449,4.678-10.449,10.449v100.833c0,5.771,4.678,10.449,10.449,10.449h35.527
				c5.771,0,10.449-4.678,10.449-10.449V196.441C333.322,190.67,328.644,185.992,322.873,185.992z M312.424,286.825h-14.629
				l0-79.935h14.629V286.825z"/>
			<path d="M182.857,248.686h-35.527c-5.771,0-10.449,4.678-10.449,10.449v38.139c0,5.771,4.678,10.449,10.449,10.449h35.527
				c5.771,0,10.449-4.678,10.449-10.449v-38.139C193.306,253.364,188.628,248.686,182.857,248.686z M172.408,286.825H157.78v-17.241
				h14.629V286.825z"/>
			<path d="M145.241,197.486c2.756-0.039,5.385-1.166,7.314-3.135l43.363-41.273l44.408,35.004c3.817,3.056,9.244,3.056,13.061,0
				l59.098-46.056l-1.629,21.501c-0.306,5.872,4.072,10.942,9.927,11.494h0.522c5.573,0.007,10.17-4.361,10.449-9.927l3.657-44.931
				c-0.069-2.814-0.979-5.544-2.612-7.837c-1.854-2.076-4.532-3.224-7.314-3.135l-48.588-3.657c-0.196-0.021-0.393-0.036-0.59-0.045
				c-5.476-0.257-10.124,3.973-10.382,9.449c-0.004,0.035-0.007,0.069-0.01,0.104c-0.545,5.745,3.669,10.844,9.414,11.39
				l20.882,1.43l-49.617,38.798l-44.931-35.527c-4.038-3.198-9.803-2.976-13.584,0.522l-50.155,48.065
				c-0.21,0.192-0.411,0.394-0.603,0.603c-3.706,4.04-3.436,10.319,0.603,14.025C139.856,196.32,142.485,197.446,145.241,197.486z"
				/>
		</g>
	</g>
</g>
<g>
</g>
<g>
</g>
<g>
</g>
<g>
</g>
<g>
</g>
<g>
</g>
<g>
</g>
<g>
</g>
<g>
</g>
<g>
</g>
<g>
</g>
<g>
</g>
<g>
</g>
<g>
</g>
<g>
</g>
</svg>
