<?xml version="1.0" encoding="iso-8859-1"?>
<!-- Generator: Adobe Illustrator 19.0.0, SVG Export Plug-In . SVG Version: 6.00 Build 0)  -->
<svg version="1.1" id="Capa_1" xmlns="http://www.w3.org/2000/svg" xmlns:xlink="http://www.w3.org/1999/xlink" x="0px" y="0px"
	 viewBox="0 0 428.411 428.411" style="enable-background:new 0 0 428.411 428.411;" xml:space="preserve">
<g>
	<g>
		<g>
			<path d="M370.94,282.125h-20.898V129.57c16.051-3.778,27.069-18.541,26.122-35.004V77.325c0.205-1.976-0.157-3.97-1.045-5.747
				L343.25,5.749c-1.5-3.557-5.022-5.836-8.882-5.747H100.834c-3.806,0.077-7.328,2.033-9.404,5.224L53.813,71.056
				c-1.342,1.795-1.906,4.054-1.567,6.269v17.241c-0.946,16.463,10.071,31.226,26.122,35.004v152.555H57.471
				c-5.771,0-10.449,4.678-10.449,10.449v125.388c0,5.771,4.678,10.449,10.449,10.449H370.94c5.771,0,10.449-4.678,10.449-10.449
				V292.574C381.389,286.803,376.711,282.125,370.94,282.125z M355.267,94.566c0,8.359-4.702,15.151-13.061,15.151
				s-13.061-6.792-13.061-15.151v-5.747h26.122V94.566z M327.577,20.9l22.988,47.02h-27.167L303.544,20.9H327.577z M169.064,138.578
				c4.231-2.534,8.01-5.755,11.182-9.531c8.415,10.028,20.868,15.776,33.959,15.673c13.075,0.03,25.499-5.704,33.959-15.673
				c8.708,9.936,21.27,15.646,34.482,15.673c15.433-0.029,29.716-8.163,37.616-21.42c2.667,2.068,5.672,3.659,8.882,4.702v154.122
				H292.05c-10.962-33.852-42.266-56.962-77.845-57.469c-35.579,0.507-66.883,23.618-77.845,57.469H99.267V128.003
				c3.21-1.043,6.214-2.634,8.882-4.702C120.751,144.341,148.024,151.181,169.064,138.578z M125.389,100.313V88.819h41.796v11.494
				c0,13.061-8.359,23.51-20.898,23.51C133.748,123.823,125.389,113.374,125.389,100.313z M261.226,100.313V88.819h47.02v11.494
				c0,12.984-10.526,23.51-23.51,23.51C271.752,123.823,261.226,113.297,261.226,100.313z M281.079,20.9l19.853,47.02h-44.408
				L244.507,20.9H281.079z M205.324,20.9h17.763l11.494,47.02H193.83L205.324,20.9z M188.083,88.819h47.02v11.494
				c0,12.984-10.526,23.51-23.51,23.51s-23.51-10.526-23.51-23.51V88.819z M183.903,20.9l-12.016,47.02h-42.841l23.51-47.02H183.903
				z M106.581,20.9h22.465l-23.51,47.02H79.414L106.581,20.9z M73.144,94.566v-5.747h26.122v5.747
				c0,8.359-4.702,15.151-13.061,15.151S73.144,102.925,73.144,94.566z M360.491,407.513H67.92v-104.49h76.278
				c5.012-0.195,9.178-3.922,9.927-8.882c6.808-27.873,31.401-47.761,60.082-48.588c28.901,0.707,53.639,20.928,60.082,49.11
				c0.968,4.752,5.079,8.214,9.927,8.359h76.278V407.513z"/>
			<path d="M253.911,288.917l-21.42-3.135l-9.404-18.808c-1.636-3.751-5.312-6.202-9.404-6.269c-4.053,0.19-7.67,2.602-9.404,6.269
				l-9.404,18.808l-21.42,3.135c-3.814,0.927-6.934,3.657-8.359,7.314c-1.006,3.864-0.027,7.975,2.612,10.971l15.673,14.629
				l-3.657,21.42c-1.001,3.872,0.71,7.936,4.18,9.927c1.554,1.446,3.627,2.2,5.747,2.09c1.806,0.163,3.62-0.2,5.224-1.045
				l18.808-9.927l19.331,9.927c3.5,2.056,7.923,1.634,10.971-1.045c3.123-2.281,4.73-6.099,4.18-9.927l-3.657-21.42l15.151-14.629
				c3.065-2.759,4.105-7.127,2.612-10.971C261.015,292.458,257.817,289.66,253.911,288.917z M225.699,310.86
				c-2.56,2.408-3.738,5.942-3.135,9.404l1.045,5.747l-5.224-2.612c-2.786-2.09-6.618-2.09-9.404,0l-5.224,2.612l1.045-5.747
				c0.603-3.462-0.575-6.996-3.135-9.404l-4.18-4.18h5.747c3.435-0.419,6.405-2.596,7.837-5.747l2.612-5.224l2.612,5.224
				c1.575,3.031,4.472,5.156,7.837,5.747h5.747L225.699,310.86z"/>
		</g>
	</g>
</g>
<g>
</g>
<g>
</g>
<g>
</g>
<g>
</g>
<g>
</g>
<g>
</g>
<g>
</g>
<g>
</g>
<g>
</g>
<g>
</g>
<g>
</g>
<g>
</g>
<g>
</g>
<g>
</g>
<g>
</g>
</svg>
