<?xml version="1.0" encoding="iso-8859-1"?>
<!-- Generator: Adobe Illustrator 19.0.0, SVG Export Plug-In . SVG Version: 6.00 Build 0)  -->
<svg version="1.1" id="Capa_1" xmlns="http://www.w3.org/2000/svg" xmlns:xlink="http://www.w3.org/1999/xlink" x="0px" y="0px"
	 viewBox="0 0 426.318 426.318" style="enable-background:new 0 0 426.318 426.318;" xml:space="preserve">
<g>
	<g>
		<g>
			<path d="M377.741,355.788l-25.6-233.012c-0.262-5.37-4.557-9.664-9.927-9.927h-40.229V86.204C301.986,38.595,263.391,0,215.782,0
				s-86.204,38.595-86.204,86.204v26.645H84.125c-5.37,0.262-9.664,4.557-9.927,9.927l-25.6,232.49
				c-1.858,17.84,3.824,35.645,15.673,49.11c11.569,13.439,28.251,21.401,45.975,21.943h205.845
				c17.658-0.346,34.352-8.123,45.976-21.42C373.86,391.401,379.535,373.621,377.741,355.788z M150.476,86.204
				c0-36.068,29.239-65.306,65.306-65.306s65.306,29.239,65.306,65.306v26.645H150.476V86.204z M346.394,390.792
				c-7.564,8.959-18.582,14.278-30.302,14.629H110.247c-11.72-0.351-22.738-5.669-30.302-14.629
				c-7.835-9.083-11.61-20.976-10.449-32.914l24.033-224.131h36.049v25.6c0,5.771,4.678,10.449,10.449,10.449
				s10.449-4.678,10.449-10.449v-25.6h130.612v25.6c0,5.771,4.678,10.449,10.449,10.449c5.771,0,10.449-4.678,10.449-10.449v-25.6
				h30.824l24.033,224.131C358.004,369.816,354.229,381.709,346.394,390.792z"/>
			<path d="M213.169,165.094c-56.424,0-102.4,48.065-102.4,104.49c0,56.424,45.976,104.49,102.4,104.49s102.4-48.065,102.4-104.49
				S269.594,165.094,213.169,165.094z M213.169,353.176c-44.931,0-81.502-38.661-81.502-83.592s36.571-83.592,81.502-83.592
				s81.502,38.661,81.502,83.592S258.1,353.176,213.169,353.176z"/>
			<path d="M263.847,248.163l-29.257-4.18l-12.539-26.122c-1.82-3.593-5.387-5.972-9.404-6.269
				c-4.092,0.068-7.768,2.518-9.404,6.269l-13.061,26.122l-28.735,4.18c-3.935,0.286-7.273,2.998-8.359,6.792
				c-1.493,3.845-0.453,8.212,2.612,10.971l20.898,20.375l-5.224,28.735c-0.551,3.827,1.057,7.646,4.18,9.927
				c3.049,2.679,7.472,3.101,10.971,1.045l26.122-13.584l25.6,13.584c1.581,0.909,3.416,1.276,5.224,1.045
				c2.12,0.11,4.193-0.644,5.747-2.09c3.338-2.104,5.007-6.069,4.18-9.927l-4.702-28.735l20.898-20.375
				c2.64-2.996,3.618-7.107,2.612-10.971C270.891,251.319,267.675,248.706,263.847,248.163z M229.888,275.331
				c-2.138,2.43-3.094,5.681-2.612,8.882l2.09,13.584l-12.016-6.269c-1.373-0.986-3.012-1.532-4.702-1.567
				c-1.702-0.041-3.365,0.514-4.702,1.567l-12.016,6.269l2.09-13.584c0.62-3.308-0.576-6.695-3.135-8.882l-9.404-9.927l13.061-1.567
				c3.435-0.419,6.405-2.596,7.837-5.747l6.269-12.016l5.747,12.016c1.575,3.031,4.472,5.156,7.837,5.747l13.584,1.567
				L229.888,275.331z"/>
		</g>
	</g>
</g>
<g>
</g>
<g>
</g>
<g>
</g>
<g>
</g>
<g>
</g>
<g>
</g>
<g>
</g>
<g>
</g>
<g>
</g>
<g>
</g>
<g>
</g>
<g>
</g>
<g>
</g>
<g>
</g>
<g>
</g>
</svg>
