<?xml version="1.0" encoding="iso-8859-1"?>
<!-- Generator: Adobe Illustrator 19.0.0, SVG Export Plug-In . SVG Version: 6.00 Build 0)  -->
<svg version="1.1" id="Capa_1" xmlns="http://www.w3.org/2000/svg" xmlns:xlink="http://www.w3.org/1999/xlink" x="0px" y="0px"
	 viewBox="0 0 482.743 482.743" style="enable-background:new 0 0 482.743 482.743;" xml:space="preserve">
<g>
	<g>
		<path d="M472.294,419.523L472.294,419.523c-16.023-0.232-31.66,4.919-44.408,14.629c-9.339,7.416-20.994,11.301-32.914,10.971
			h-7.837l34.482-114.939c1.626-4.102,0.349-8.785-3.135-11.494l-46.498-33.437v-99.788c-0.539-23.521-19.328-42.539-42.841-43.363
			h-45.976V32.388c0-8.882-4.702-15.673-13.584-15.673h-56.424c-8.882,0-13.584,6.792-13.584,15.673v109.714H153.6
			c-23.512,0.824-42.302,19.843-42.841,43.363v99.788L64.261,318.69c-3.405,2.757-4.842,7.276-3.657,11.494L95.608,444.6h-8.359
			c-11.749,0.251-23.213-3.632-32.392-10.971c-12.748-9.71-28.385-14.861-44.408-14.629C4.678,419,0,423.678,0,429.449
			s4.678,10.449,10.449,10.449c11.921-0.329,23.575,3.556,32.914,10.971c12.479,9.895,27.96,15.24,43.886,15.151
			c16.023,0.232,31.66-4.919,44.408-14.629c9.178-7.339,20.643-11.222,32.392-10.971c11.921-0.329,23.575,3.556,32.914,10.971
			c12.548,9.708,28.022,14.866,43.886,14.629c16.023,0.232,31.66-4.919,44.408-14.629c19.34-14.542,45.966-14.542,65.306,0
			c26.392,19.508,62.424,19.508,88.816,0c9.339-7.416,20.994-11.301,32.914-10.971c5.771,0,10.449-4.678,10.449-10.449
			S478.065,419.523,472.294,419.523z M220.473,37.612h41.796v31.347h-41.796V37.612z M220.473,89.857h41.796v52.245h-41.796V89.857z
			 M230.922,444.078c-8.142-1.568-15.823-4.962-22.465-9.927c-12.748-9.71-28.385-14.861-44.408-14.629
			c-15.864-0.237-31.337,4.921-43.886,14.629l-4.702,3.135L83.069,331.229l147.853-104.49V444.078z M235.102,198.004l-103.445,72.62
			v-85.159c0.507-11.992,9.966-21.676,21.943-22.465h175.543c11.977,0.789,21.435,10.474,21.943,22.465v85.159l-102.922-72.62
			C244.19,195.432,239.076,195.432,235.102,198.004z M362.057,434.151c-12.748-9.71-28.385-14.861-44.408-14.629
			c-15.864-0.237-31.337,4.921-43.886,14.629c-6.388,5.06-13.924,8.469-21.943,9.927V226.739l101.355,71.576
			c0.618,0.964,1.536,1.698,2.612,2.09l43.886,30.825l-32.392,106.057L362.057,434.151z"/>
	</g>
</g>
<g>
</g>
<g>
</g>
<g>
</g>
<g>
</g>
<g>
</g>
<g>
</g>
<g>
</g>
<g>
</g>
<g>
</g>
<g>
</g>
<g>
</g>
<g>
</g>
<g>
</g>
<g>
</g>
<g>
</g>
</svg>
