<?xml version="1.0" encoding="iso-8859-1"?>
<!-- Generator: Adobe Illustrator 19.0.0, SVG Export Plug-In . SVG Version: 6.00 Build 0)  -->
<svg version="1.1" id="Capa_1" xmlns="http://www.w3.org/2000/svg" xmlns:xlink="http://www.w3.org/1999/xlink" x="0px" y="0px"
	 viewBox="0 0 463.969 463.969" style="enable-background:new 0 0 463.969 463.969;" xml:space="preserve">
<g>
	<g>
		<g>
			<path d="M398.123,170.841H65.846c-5.771,0-10.449,4.678-10.449,10.449v44.931c-0.043,3.034,1.304,5.921,3.657,7.837
				l125.91,108.147v111.282c0.264,5.658,4.791,10.185,10.449,10.449c1.638,0.154,3.283-0.212,4.702-1.045l73.143-36.049
				c3.325-2.02,5.466-5.524,5.747-9.404v-75.233l125.91-108.147c2.353-1.916,3.7-4.803,3.657-7.837V181.29
				C408.572,175.519,403.894,170.841,398.123,170.841z M387.674,220.996l-125.91,108.147c-2.435,2.079-3.783,5.16-3.657,8.359
				v73.143l-52.245,26.122v-99.265c0.126-3.2-1.222-6.28-3.657-8.359L76.295,220.996v-29.257h311.38V220.996z"/>
			<path d="M135.854,154.645c3.706,4.04,9.986,4.31,14.025,0.603c0.21-0.192,0.411-0.394,0.603-0.603l56.947-56.947
				c4.047-4.24,4.047-10.911,0-15.151c-4.204-3.841-10.709-3.609-14.629,0.522l-39.184,39.184V10.449
				C153.617,4.678,148.939,0,143.168,0s-10.449,4.678-10.449,10.449v111.804L93.536,83.069c-3.919-4.131-10.425-4.364-14.629-0.522
				c-4.047,4.24-4.047,10.911,0,15.151L135.854,154.645z"/>
			<path d="M313.487,154.645c3.706,4.04,9.986,4.31,14.025,0.603c0.21-0.192,0.411-0.394,0.603-0.603l56.947-56.947
				c4.047-4.24,4.047-10.911,0-15.151c-4.204-3.841-10.709-3.609-14.629,0.522l-39.184,39.184V10.449
				C331.25,4.678,326.572,0,320.801,0c-5.771,0-10.449,4.678-10.449,10.449v111.804l-39.184-39.184
				c-3.919-4.131-10.425-4.364-14.629-0.522c-4.047,4.24-4.047,10.911,0,15.151L313.487,154.645z"/>
		</g>
	</g>
</g>
<g>
</g>
<g>
</g>
<g>
</g>
<g>
</g>
<g>
</g>
<g>
</g>
<g>
</g>
<g>
</g>
<g>
</g>
<g>
</g>
<g>
</g>
<g>
</g>
<g>
</g>
<g>
</g>
<g>
</g>
</svg>
