<?xml version="1.0" encoding="iso-8859-1"?>
<!-- Generator: Adobe Illustrator 19.0.0, SVG Export Plug-In . SVG Version: 6.00 Build 0)  -->
<svg version="1.1" id="Capa_1" xmlns="http://www.w3.org/2000/svg" xmlns:xlink="http://www.w3.org/1999/xlink" x="0px" y="0px"
	 viewBox="0 0 446.766 446.766" style="enable-background:new 0 0 446.766 446.766;" xml:space="preserve">
<g>
	<g>
		<g>
			<path d="M236.888,112.398H115.157c-17.312,0-31.347,14.034-31.347,31.347v76.278c0,17.312,14.034,31.347,31.347,31.347h121.731
				c17.312,0,31.347-14.034,31.347-31.347v-76.278C268.235,126.432,254.201,112.398,236.888,112.398z M115.157,133.296h121.731
				l4.702,1.045l-66.351,38.139l-64.784-38.139L115.157,133.296z M247.337,220.022c0,5.771-4.678,10.449-10.449,10.449H115.157
				c-5.771,0-10.449-4.678-10.449-10.449v-64.784l64.784,38.139c3.139,2.031,7.123,2.23,10.449,0.522l67.396-38.661V220.022z"/>
			<path d="M179.419,29.853C96.608,30.141,29.711,97.507,29.999,180.317c0.289,82.811,67.654,149.708,150.464,149.419
				c82.488-0.572,149.136-67.453,149.42-149.943c0-0.174,0-0.348-0.001-0.522C329.595,96.462,262.229,29.564,179.419,29.853z
				 M308.986,180.837c-0.288,71.269-58.296,128.81-129.565,128.522c-71.269-0.288-128.81-58.296-128.522-129.565
				s58.296-128.81,129.565-128.522c70.862,0.286,128.236,57.66,128.522,128.522C308.987,180.141,308.987,180.489,308.986,180.837z"
				/>
			<path d="M435.386,379.337c-0.162-0.165-0.325-0.328-0.49-0.49l-72.62-73.143c-4.414-3.585-10.737-3.585-15.151,0l-13.061,13.584
				l-20.898-20.898c65.826-73.905,59.276-187.179-14.629-253.005S111.358-13.891,45.532,60.014s-59.276,187.179,14.629,253.004
				c67.938,60.511,170.438,60.511,238.376,0l20.898,20.898L305.851,347.5c-4.04,3.706-4.31,9.986-0.603,14.025
				c0.192,0.21,0.394,0.411,0.603,0.603l73.143,73.143c7.502,7.43,17.654,11.566,28.212,11.494
				c10.503,0.036,20.542-4.321,27.69-12.016C450.333,419.583,450.553,394.774,435.386,379.337z M180.464,337.573
				c-87.139,0.289-158.013-70.117-158.301-157.256C21.874,93.178,92.28,22.304,179.419,22.016
				c87.139-0.289,158.013,70.117,158.301,157.256c0.001,0.174,0.001,0.348,0.001,0.522
				C337.436,266.611,267.28,337.001,180.464,337.573z M420.314,420.074c-0.015,0.015-0.031,0.031-0.046,0.046
				c-7.332,7.358-19.241,7.378-26.599,0.046c-0.015-0.015-0.031-0.031-0.046-0.046l-65.306-65.306l26.645-26.645l65.306,65.306
				C427.625,400.808,427.646,412.716,420.314,420.074z"/>
		</g>
	</g>
</g>
<g>
</g>
<g>
</g>
<g>
</g>
<g>
</g>
<g>
</g>
<g>
</g>
<g>
</g>
<g>
</g>
<g>
</g>
<g>
</g>
<g>
</g>
<g>
</g>
<g>
</g>
<g>
</g>
<g>
</g>
</svg>
