<?xml version="1.0" encoding="iso-8859-1"?>
<!-- Generator: Adobe Illustrator 19.0.0, SVG Export Plug-In . SVG Version: 6.00 Build 0)  -->
<svg version="1.1" id="Capa_1" xmlns="http://www.w3.org/2000/svg" xmlns:xlink="http://www.w3.org/1999/xlink" x="0px" y="0px"
	 viewBox="0 0 446.688 446.688" style="enable-background:new 0 0 446.688 446.688;" xml:space="preserve">
<g>
	<g>
		<path d="M179.323,29.786c-82.8,0.3-149.7,67.7-149.4,150.5c0.3,82.8,67.7,149.7,150.5,149.4c82.5-0.5,149.2-67.4,149.4-150
			c0-0.2,0-0.3,0-0.5C329.523,96.386,262.123,29.486,179.323,29.786z M308.923,180.886c-0.3,71.2-58.3,128.8-129.6,128.5
			c-71.2-0.3-128.8-58.3-128.5-129.6c0.3-71.2,58.3-128.8,129.6-128.5c70.9,0.3,128.3,57.6,128.5,128.6
			C308.923,180.186,308.923,180.586,308.923,180.886z"/>
	</g>
</g>
<g>
	<g>
		<path d="M435.323,379.286c-0.1-0.1-0.3-0.3-0.5-0.5l-72.6-73.1c-4.4-3.6-10.7-3.6-15.2,0l-13.1,13.6l-20.9-20.9
			c65.8-73.9,59.3-187.2-14.6-253c-73.9-65.8-187.1-59.3-252.9,14.6s-59.3,187.2,14.6,253c67.9,60.5,170.4,60.5,238.4,0l20.9,20.9
			l-13.6,13.6c-4,3.7-4.3,10-0.6,14c0.2,0.2,0.4,0.4,0.6,0.6l73.1,73.1c7.5,7.4,17.7,11.6,28.2,11.5c10.5,0,20.5-4.3,27.7-12
			C450.223,419.486,450.523,394.686,435.323,379.286z M180.423,337.586c-87.1,0.3-158-70.1-158.3-157.3
			c-0.3-87.1,70.1-158,157.3-158.3c87.1-0.3,158,70.1,158.3,157.3c0,0.2,0,0.3,0,0.5
			C337.423,266.586,267.223,336.986,180.423,337.586z M420.223,420.086c-7.3,7.4-19.2,7.4-26.6,0l-65.3-65.3l26.6-26.6l65.3,65.3
			C427.623,400.786,427.623,412.686,420.223,420.086z"/>
	</g>
</g>
<g>
	<g>
		<path d="M185.823,205.486h-8.9c-27.7,0-50.7,24.6-50.7,53.3v52.2c0,5.7,4.6,10.4,10.4,10.4c5.7,0,10.4-4.6,10.4-10.4v-52.2
			c0-17.2,13.6-32.4,29.8-32.4h8.9c15.7,0,29.8,15.2,29.8,32.4v52.2c0,5.7,4.6,10.4,10.4,10.4c5.7,0,10.4-4.7,10.6-10.4v-52.2
			C236.523,230.086,213.523,205.486,185.823,205.486z"/>
	</g>
</g>
<g>
	<g>
		<path d="M254.123,189.586h-8.9c-19.7,0-37.7,11.4-46,29.3c-0.1,0.1-0.1,0.2-0.2,0.3c-2.3,5.3,0.1,11.5,5.4,13.8
			c5.2,2.2,11.2-0.1,13.6-5.2c4.9-10.5,15.6-17.3,27.2-17.2h8.9c0.4,0,0.7,0,1.1,0c16.1,0.3,29,13.6,28.7,29.8v18.3
			c0,5.7,4.6,10.4,10.4,10.4s10.5-4.6,10.5-10.5v-18.3c0-0.4,0-0.7,0-1.1C304.523,211.486,281.823,189.286,254.123,189.586z"/>
	</g>
</g>
<g>
	<g>
		<path d="M162.823,218.286c-8.3-17.5-26.1-28.7-45.5-28.7h-9.4c-28,0-50.7,22.7-50.7,50.7v20.9c0,0.4,0,0.7,0,1.1
			c0.2,5.5,4.9,9.7,10.4,9.4c0.3,0.1,0.7,0.1,1.2-0.1c5.5-0.2,9.7-4.9,9.4-10.4v-20.9c0-16.5,13.4-29.8,29.8-29.8h9.4
			c11.4-0.2,21.8,6.3,26.6,16.7c2.6,5.2,8.8,7.5,14.1,5.2c0-0.1,0.1-0.1,0.1-0.1C163.423,229.686,165.423,223.386,162.823,218.286z"
			/>
	</g>
</g>
<g>
	<g>
		<path d="M112.523,118.686c-20.8,0-37.6,16.8-37.6,37.6c0,20.8,16.8,37.6,37.6,37.6s37.6-16.8,37.6-37.6
			C150.123,135.486,133.323,118.686,112.523,118.686z M112.523,176.786c-11.3,0-20.5-9.2-20.5-20.5c0-11.3,9.2-20.5,20.5-20.5
			s20.5,9.2,20.5,20.5S123.823,176.786,112.523,176.786z"/>
	</g>
</g>
<g>
	<g>
		<path d="M180.923,134.886c-20.8,0-37.6,16.8-37.6,37.6s16.8,37.6,37.6,37.6c20.8,0,37.6-16.8,37.6-37.6
			C218.623,151.686,201.723,134.886,180.923,134.886z M180.923,192.986c-11.3,0-20.5-9.2-20.5-20.5s9.2-20.5,20.5-20.5
			c11.3,0,20.5,9.2,20.5,20.5C201.523,183.786,192.323,192.986,180.923,192.986z"/>
	</g>
</g>
<g>
	<g>
		<path d="M249.923,118.686c-20.8,0-37.6,16.8-37.6,37.6c0,20.8,16.8,37.6,37.6,37.6c20.8,0,37.6-16.8,37.6-37.6
			C287.523,135.486,270.723,118.686,249.923,118.686z M249.923,176.786c-11.3,0-20.5-9.2-20.5-20.5c0-11.3,9.2-20.5,20.5-20.5
			c11.3,0,20.5,9.2,20.5,20.5S261.223,176.786,249.923,176.786z"/>
	</g>
</g>
<g>
</g>
<g>
</g>
<g>
</g>
<g>
</g>
<g>
</g>
<g>
</g>
<g>
</g>
<g>
</g>
<g>
</g>
<g>
</g>
<g>
</g>
<g>
</g>
<g>
</g>
<g>
</g>
<g>
</g>
</svg>
