<?xml version="1.0" encoding="iso-8859-1"?>
<!-- Generator: Adobe Illustrator 19.0.0, SVG Export Plug-In . SVG Version: 6.00 Build 0)  -->
<svg version="1.1" id="Capa_1" xmlns="http://www.w3.org/2000/svg" xmlns:xlink="http://www.w3.org/1999/xlink" x="0px" y="0px"
	 viewBox="0 0 449.306 449.306" style="enable-background:new 0 0 449.306 449.306;" xml:space="preserve">
<g>
	<g>
		<path d="M398.653,282.579c-0.531,0-1.061,0.008-1.592,0.024h-97.175l-23.51-150.988c12.721-13.607,19.815-31.528,19.853-50.155
			c-0.012-39.53-32.068-71.565-71.598-71.553c-39.513,0.012-71.541,32.041-71.553,71.553c0.111,18.769,7.186,36.828,19.853,50.678
			l-23.51,150.465H52.245C24.27,281.738,0.89,303.714,0.024,331.689C0.008,332.22,0,332.75,0,333.281v50.155
			c0.256,5.187,4.668,9.185,9.856,8.93c0.198-0.01,0.396-0.026,0.593-0.048h26.122v38.139c0.256,5.187,4.668,9.185,9.856,8.93
			c0.198-0.01,0.396-0.026,0.593-0.048h355.265c5.161,0.583,9.818-3.127,10.401-8.288c0.022-0.197,0.038-0.395,0.048-0.593v-38.139
			h26.122c5.161,0.583,9.817-3.127,10.401-8.288c0.022-0.197,0.038-0.395,0.048-0.593v-50.155
			C449.32,305.293,426.641,282.593,398.653,282.579z M224.128,30.263c0.175-0.002,0.35-0.003,0.525-0.003
			c28.276-0.289,51.431,22.399,51.72,50.675c0.289,28.276-22.399,51.431-50.675,51.72c-28.275,0.289-51.431-22.399-51.72-50.675
			c-0.002-0.173-0.003-0.346-0.003-0.52C173.687,53.474,196.141,30.552,224.128,30.263z M192.261,145.722
			c9.971,5.283,21.109,7.977,32.392,7.837c11.213,0.059,22.292-2.443,32.392-7.314l21.943,136.359H170.318L192.261,145.722z
			 M391.837,418.44H57.469v-26.122h334.367V418.44z M428.408,371.42H20.898v-38.139c-0.023-16.447,13.292-29.798,29.738-29.821
			c0.536-0.001,1.073,0.013,1.609,0.041h344.816c16.424-0.866,30.44,11.747,31.306,28.171c0.028,0.536,0.042,1.072,0.041,1.609
			V371.42z"/>
	</g>
</g>
<g>
</g>
<g>
</g>
<g>
</g>
<g>
</g>
<g>
</g>
<g>
</g>
<g>
</g>
<g>
</g>
<g>
</g>
<g>
</g>
<g>
</g>
<g>
</g>
<g>
</g>
<g>
</g>
<g>
</g>
</svg>
