<?xml version="1.0" encoding="iso-8859-1"?>
<!-- Generator: Adobe Illustrator 19.0.0, SVG Export Plug-In . SVG Version: 6.00 Build 0)  -->
<svg version="1.1" id="Capa_1" xmlns="http://www.w3.org/2000/svg" xmlns:xlink="http://www.w3.org/1999/xlink" x="0px" y="0px"
	 viewBox="0 0 407.51 407.51" style="enable-background:new 0 0 407.51 407.51;" xml:space="preserve">
<g>
	<g>
		<g>
			<path d="M323.918,0H83.591C60.508,0,41.795,18.713,41.795,41.796v323.918c0,23.083,18.713,41.796,41.796,41.796h172.408
				c4.092-0.068,7.768-2.518,9.404-6.269l95.086-94.563c3.262-1.754,5.276-5.178,5.224-8.882v-256
				C365.714,18.713,347.001,0,323.918,0z M266.448,370.939v-57.469c-0.307-2.579,1.535-4.918,4.114-5.224
				c0.369-0.044,0.742-0.044,1.111,0h57.992L266.448,370.939z M344.816,287.347h-73.143c-14.427,0-26.122,11.695-26.122,26.122
				v73.143H83.591c-11.542,0-20.898-9.356-20.898-20.898V41.796c0-11.542,9.356-20.898,20.898-20.898h240.327
				c11.542,0,20.898,9.356,20.898,20.898V287.347z"/>
			<path d="M203.755,92.996c-5.771,0-10.449,4.678-10.449,10.449v111.804c0,5.771,4.678,10.449,10.449,10.449
				s10.449-4.678,10.449-10.449V103.445C214.204,97.674,209.525,92.996,203.755,92.996z"/>
			<path d="M141.061,160.914c-5.771,0-10.449,4.678-10.449,10.449v43.886c0,5.771,4.678,10.449,10.449,10.449h0
				c5.771,0,10.449-4.678,10.449-10.449v-43.886C151.51,165.592,146.832,160.914,141.061,160.914z"/>
			<path d="M266.448,134.792c-5.771,0-10.449,4.678-10.449,10.449v70.008c0,5.771,4.678,10.449,10.449,10.449
				s10.449-4.678,10.449-10.449v-70.008C276.897,139.47,272.219,134.792,266.448,134.792z"/>
		</g>
	</g>
</g>
<g>
</g>
<g>
</g>
<g>
</g>
<g>
</g>
<g>
</g>
<g>
</g>
<g>
</g>
<g>
</g>
<g>
</g>
<g>
</g>
<g>
</g>
<g>
</g>
<g>
</g>
<g>
</g>
<g>
</g>
</svg>
