<?xml version="1.0" encoding="iso-8859-1"?>
<!-- Generator: Adobe Illustrator 19.0.0, SVG Export Plug-In . SVG Version: 6.00 Build 0)  -->
<svg version="1.1" id="Capa_1" xmlns="http://www.w3.org/2000/svg" xmlns:xlink="http://www.w3.org/1999/xlink" x="0px" y="0px"
	 viewBox="0 0 492.152 492.152" style="enable-background:new 0 0 492.152 492.152;" xml:space="preserve">
<g>
	<g>
		<path d="M400.198,444.082l-79.412-125.91c-14.642-23.327-22.427-50.303-22.465-77.845v-13.584
			c0.271-2.583,2.584-4.457,5.167-4.186c0.019,0.002,0.039,0.004,0.058,0.006c14.225,0.003,25.838-11.377,26.122-25.6v-16.718
			c0-13.584-13.061-22.465-27.167-22.465h-14.629v-40.229c0.281-7.009,6.047-12.544,13.061-12.539
			c6.925,0,12.539,5.614,12.539,12.539c0.289,6.63-4.852,12.239-11.483,12.527c-0.178,0.008-0.356,0.012-0.534,0.011
			c-5.771,0-10.449,4.678-10.449,10.449s4.678,10.449,10.449,10.449c18.467,0,33.437-14.97,33.437-33.437
			c0-18.467-14.97-33.437-33.437-33.437c-16.781,0.315-30.897,12.667-33.437,29.257l-1.045,44.408h-10.449V10.449
			C256.525,4.678,251.847,0,246.076,0s-10.449,4.678-10.449,10.449V157.78h-10.449l-1.045-85.159
			c-2.309-18.322-19.033-31.303-37.355-28.994c-18.322,2.309-31.303,19.033-28.994,37.355c2.094,16.619,16.162,29.124,32.912,29.255
			c5.771,0,10.449-4.678,10.449-10.449s-4.678-10.449-10.449-10.449c-6.925,0-12.539-5.614-12.539-12.539
			c0-7.214,5.848-13.061,13.061-13.061c7.214,0,13.061,5.848,13.061,13.061v80.98h-14.629c-14.106,0-27.167,8.882-27.167,22.465
			v16.718c0.285,14.223,11.897,25.603,26.122,25.6c2.579-0.303,4.915,1.543,5.218,4.122c0.002,0.019,0.004,0.038,0.006,0.058v13.584
			c-0.038,27.542-7.823,54.518-22.465,77.845l-79.412,125.91c-6.198,9.666-6.401,22.005-0.522,31.869
			c5.472,10.154,16.156,16.404,27.69,16.196h253.91c11.533,0.208,22.217-6.042,27.69-16.196
			C406.599,466.087,406.397,453.748,400.198,444.082z M189.129,329.143c16.711-26.611,25.583-57.393,25.6-88.816v-13.584
			c-0.286-14.136-11.976-25.363-26.112-25.078c-0.004,0-0.007,0-0.011,0c-2.693,0.013-4.955-2.022-5.224-4.702v-16.718
			c0-2.09,3.657-1.567,6.269-1.567h112.849c2.612,0,6.269-0.522,6.269,1.567v16.718c-0.269,2.68-2.531,4.716-5.224,4.702
			c-14.135-0.291-25.831,10.931-26.122,25.067c0,0.004,0,0.007,0,0.011v13.584c0.017,31.423,8.89,62.205,25.6,88.816l35.527,56.424
			c-5.76-3.161-12.238-4.781-18.808-4.702c-11.374,0.23-22.149,5.145-29.78,13.584c-5.224,5.224-8.359,8.359-15.673,8.359
			c-7.314,0-10.449-3.135-15.673-8.359c-14.777-16.591-40.206-18.062-56.797-3.285c-1.157,1.031-2.254,2.128-3.285,3.285
			c-5.224,5.224-8.359,8.359-15.673,8.359s-10.449-3.135-15.673-8.359c-3.847-3.927-8.247-7.272-13.061-9.927L189.129,329.143z
			 M382.435,466.025c-1.838,3.436-5.516,5.48-9.404,5.224h-253.91c-6.058-0.134-10.86-5.153-10.727-11.211
			c0.039-1.743,0.492-3.452,1.323-4.985l33.437-52.767c3.665,1.914,7.013,4.381,9.927,7.314
			c14.777,16.591,40.206,18.062,56.797,3.285c1.157-1.031,2.254-2.128,3.285-3.285c5.224-4.702,8.359-7.837,15.673-7.837
			c7.314,0,10.449,3.135,15.674,7.837c13.617,16.447,37.988,18.741,54.435,5.125c1.865-1.544,3.581-3.26,5.125-5.125
			c5.224-4.702,8.359-7.837,15.673-7.837c7.314,0,10.449,3.135,15.673,7.837c6.839,7.741,16.363,12.596,26.645,13.584l20.376,31.869
			C384.64,458.378,384.64,462.7,382.435,466.025z"/>
	</g>
</g>
<g>
</g>
<g>
</g>
<g>
</g>
<g>
</g>
<g>
</g>
<g>
</g>
<g>
</g>
<g>
</g>
<g>
</g>
<g>
</g>
<g>
</g>
<g>
</g>
<g>
</g>
<g>
</g>
<g>
</g>
</svg>
