<?xml version="1.0" encoding="iso-8859-1"?>
<!-- Generator: Adobe Illustrator 19.0.0, SVG Export Plug-In . SVG Version: 6.00 Build 0)  -->
<svg version="1.1" id="Capa_1" xmlns="http://www.w3.org/2000/svg" xmlns:xlink="http://www.w3.org/1999/xlink" x="0px" y="0px"
	 viewBox="0 0 386.612 386.612" style="enable-background:new 0 0 386.612 386.612;" xml:space="preserve">
<g>
	<g>
		<g>
			<path d="M109.651,73.143h62.694c5.771,0,10.449-4.678,10.449-10.449s-4.678-10.449-10.449-10.449h-62.694
				c-5.771,0-10.449,4.678-10.449,10.449S103.88,73.143,109.651,73.143z"/>
			<path d="M109.651,125.388h62.694c5.771,0,10.449-4.678,10.449-10.449s-4.678-10.449-10.449-10.449h-62.694
				c-5.771,0-10.449,4.678-10.449,10.449S103.88,125.388,109.651,125.388z"/>
			<path d="M340.051,108.147L228.247,2.612c-1.661-1.667-3.916-2.606-6.269-2.612H88.753C65.765,0,44.345,18.808,44.345,41.796
				v303.02c0,22.988,21.42,41.796,44.408,41.796h214.204c22.988,0,39.184-18.808,39.184-41.796V115.984
				C342.591,113.193,341.831,110.342,340.051,108.147z M227.202,32.392l85.159,77.322h-72.098c-5.747,0-13.061-4.702-13.061-10.449
				V32.392z M321.242,344.816c0,11.494-6.792,20.898-18.286,20.898H88.753c-11.494,0-23.51-9.404-23.51-20.898V41.796
				c0-11.494,12.016-20.898,23.51-20.898h117.551v78.367c0,17.241,16.718,31.347,33.959,31.347h80.98V344.816z"/>
			<path d="M210.483,261.224h-29.257c-5.771,0-10.449,4.678-10.449,10.449v56.425c0,5.771,4.678,10.449,10.449,10.449h29.257
				c5.771,0,10.449-4.678,10.449-10.449v-56.425C220.932,265.903,216.254,261.224,210.483,261.224z M200.034,317.649h-8.359v-35.527
				h8.359V317.649z"/>
			<path d="M273.177,236.147H243.92c-5.771,0-10.449,4.678-10.449,10.449v81.502c0,5.771,4.678,10.449,10.449,10.449h29.257
				c5.771,0,10.449-4.678,10.449-10.449v-81.502C283.626,240.825,278.948,236.147,273.177,236.147z M262.728,317.649h-8.359v-60.604
				h8.359V317.649z"/>
			<path d="M147.789,286.302h-29.257c-5.771,0-10.449,4.678-10.449,10.449v31.347c0,5.771,4.678,10.449,10.449,10.449h29.257
				c5.771,0,10.449-4.678,10.449-10.449v-31.347C158.238,290.98,153.56,286.302,147.789,286.302z M137.34,317.649h-8.359V307.2
				h8.359V317.649z"/>
			<path d="M233.89,152.545c-5.745-0.546-10.844,3.669-11.39,9.414c-0.054,5.783,4.197,10.706,9.927,11.494l19.358,1.383
				l-47.048,36.756l-38.139-33.959c-4.127-3.508-10.25-3.281-14.106,0.522l-48.065,45.975c-4.131,3.919-4.363,10.425-0.522,14.629
				c1.864,2.419,4.786,3.783,7.837,3.657c2.756-0.039,5.385-1.166,7.314-3.135l40.751-39.706l37.616,33.437
				c3.984,3.14,9.6,3.14,13.584,0l56.967-44.039l-1.588,20.006c-0.004,0.035-0.007,0.069-0.01,0.104
				c-0.545,5.745,3.669,10.844,9.414,11.39h1.045c5.473-0.236,9.932-4.473,10.449-9.927l3.135-43.363
				c0.471-2.883-0.506-5.813-2.612-7.837c-1.747-2.001-4.16-3.3-6.792-3.657l-47.02-3.135
				C233.959,152.551,233.924,152.548,233.89,152.545z"/>
		</g>
	</g>
</g>
<g>
</g>
<g>
</g>
<g>
</g>
<g>
</g>
<g>
</g>
<g>
</g>
<g>
</g>
<g>
</g>
<g>
</g>
<g>
</g>
<g>
</g>
<g>
</g>
<g>
</g>
<g>
</g>
<g>
</g>
</svg>
