<?xml version="1.0" encoding="iso-8859-1"?>
<!-- Generator: Adobe Illustrator 19.0.0, SVG Export Plug-In . SVG Version: 6.00 Build 0)  -->
<svg version="1.1" id="Capa_1" xmlns="http://www.w3.org/2000/svg" xmlns:xlink="http://www.w3.org/1999/xlink" x="0px" y="0px"
	 viewBox="0 0 433.633 433.633" style="enable-background:new 0 0 433.633 433.633;" xml:space="preserve">
<g>
	<g>
		<g>
			<path d="M399.753,102.4C378.855,42.841,314.594,0,247.198,0C160.994,0,87.851,68.441,86.284,150.988L26.725,266.971
				c-1.708,3.326-1.508,7.31,0.522,10.449c1.963,2.982,5.312,4.755,8.882,4.702h50.678l1.045,80.98
				c0.231,2.818,1.541,5.439,3.657,7.314c1.861,2.019,4.595,2.996,7.314,2.612l66.873-3.657l4.18,54.857
				c0.539,5.359,5.063,9.431,10.449,9.404l198.531-2.612c0.179,0.009,0.357,0.014,0.536,0.014c5.482-0.008,9.92-4.458,9.913-9.94
				l6.792-135.837c1.045-12.539,2.612-27.69,4.702-43.886C407.068,190.694,413.859,133.747,399.753,102.4z M379.9,238.759
				c-1.567,16.196-3.657,31.869-4.702,45.453l-6.269,126.433l-179.2,2.09l-4.18-55.38c-0.517-5.453-4.976-9.69-10.449-9.927
				l-0.522,0.522l-65.829,3.657l-1.045-79.935c0-5.771-4.678-10.449-10.449-10.449H53.37l52.767-102.922
				c0.597-1.502,0.95-3.089,1.045-4.702c0-71.053,65.306-132.702,140.539-132.702c59.037,0,114.939,37.094,132.702,88.816v1.045
				C392.439,136.359,385.647,193.306,379.9,238.759z"/>
			<path d="M249.81,169.796h-34.482c-5.771,0-10.449,4.678-10.449,10.449v56.424c0,5.771,4.678,10.449,10.449,10.449h34.482
				c5.771,0,10.449-4.678,10.449-10.449v-56.424C260.259,174.474,255.581,169.796,249.81,169.796z M239.361,226.22h-13.584v-35.526
				h13.584V226.22z"/>
			<path d="M312.504,144.718h-34.482c-5.771,0-10.449,4.678-10.449,10.449v81.502c0,5.771,4.678,10.449,10.449,10.449h34.482
				c5.771,0,10.449-4.678,10.449-10.449v-81.502C322.953,149.397,318.275,144.718,312.504,144.718z M302.055,226.22h-13.584v-60.604
				h13.584V226.22z"/>
			<path d="M187.117,194.873h-34.482c-5.771,0-10.449,4.678-10.449,10.449v31.347c0,5.771,4.678,10.449,10.449,10.449h34.482
				c5.771,0,10.449-4.678,10.449-10.449v-31.347C197.566,199.552,192.887,194.873,187.117,194.873z M176.668,226.22h-13.584v-10.449
				h13.584V226.22z"/>
			<path d="M320.341,64.261l-47.02-3.135c-0.035-0.004-0.069-0.007-0.104-0.01c-5.745-0.545-10.844,3.669-11.39,9.414
				c-0.054,5.783,4.197,10.706,9.927,11.494l19.358,1.383l-47.048,36.756l-38.139-33.959c-4.127-3.508-10.25-3.281-14.106,0.522
				l-48.065,45.976c-4.131,3.919-4.363,10.425-0.522,14.629c1.864,2.419,4.786,3.783,7.837,3.657
				c2.756-0.039,5.385-1.166,7.314-3.135l40.751-39.706l37.616,33.437c3.984,3.14,9.6,3.14,13.584,0L307.3,97.545l-1.588,20.006
				c-0.004,0.035-0.007,0.069-0.01,0.104c-0.545,5.745,3.67,10.844,9.414,11.39h1.045c5.473-0.236,9.932-4.473,10.449-9.927
				l3.135-43.363c0.471-2.883-0.506-5.813-2.612-7.837C325.386,65.917,322.973,64.618,320.341,64.261z"/>
		</g>
	</g>
</g>
<g>
</g>
<g>
</g>
<g>
</g>
<g>
</g>
<g>
</g>
<g>
</g>
<g>
</g>
<g>
</g>
<g>
</g>
<g>
</g>
<g>
</g>
<g>
</g>
<g>
</g>
<g>
</g>
<g>
</g>
</svg>
