<?xml version="1.0" encoding="iso-8859-1"?>
<!-- Generator: Adobe Illustrator 19.0.0, SVG Export Plug-In . SVG Version: 6.00 Build 0)  -->
<svg version="1.1" id="Capa_1" xmlns="http://www.w3.org/2000/svg" xmlns:xlink="http://www.w3.org/1999/xlink" x="0px" y="0px"
	 viewBox="0 0 378.474 378.474" style="enable-background:new 0 0 378.474 378.474;" xml:space="preserve">
<g>
	<g>
		<path d="M376.796,8.436c-3.026-4.818-8.425-7.617-14.106-7.314H15.784C10.103,0.819,4.704,3.619,1.678,8.436
			C-1.037,13.493-0.417,19.69,3.245,24.11l95.608,131.135c24.619,33.47,39.614,73.036,43.363,114.416l-1.045,99.265
			c-0.198,2.509,1.009,4.922,3.135,6.269c2.035,1.696,4.691,2.454,7.314,2.09h75.233c2.624,0.365,5.279-0.394,7.314-2.09
			c1.939-1.733,3.074-4.192,3.135-6.792l-1.045-99.265c3.749-41.38,18.744-80.946,43.363-114.416L375.229,24.11
			C378.891,19.69,379.511,13.493,376.796,8.436z M262.902,142.705c-27.078,36.628-43.528,80.015-47.543,125.388l1.045,88.816H162.07
			l1.045-89.339c-4.12-45.349-20.56-88.708-47.543-125.388l-29.257-40.229l7.837,4.18c14.271,7.667,30.305,11.45,46.498,10.971
			c15.846,0.344,31.509-3.436,45.453-10.971c11.23-6.571,24.09-9.831,37.094-9.404c12.841-0.444,25.537,2.821,36.571,9.404
			c7.389,3.625,15.081,6.597,22.988,8.882L262.902,142.705z M296.862,97.252c-9.834-0.946-19.313-4.166-27.69-9.404
			c-14.011-7.9-29.895-11.871-45.976-11.494c-16.185-0.406-32.201,3.373-46.498,10.971c-10.872,6.513-23.381,9.776-36.049,9.404
			c-12.986,0.264-25.802-2.985-37.094-9.404c-11.226-5.702-23.487-9.078-36.049-9.927L26.233,22.02h326.008L296.862,97.252z"/>
	</g>
</g>
<g>
</g>
<g>
</g>
<g>
</g>
<g>
</g>
<g>
</g>
<g>
</g>
<g>
</g>
<g>
</g>
<g>
</g>
<g>
</g>
<g>
</g>
<g>
</g>
<g>
</g>
<g>
</g>
<g>
</g>
</svg>
