<?xml version="1.0" encoding="iso-8859-1"?>
<!-- Generator: Adobe Illustrator 19.0.0, SVG Export Plug-In . SVG Version: 6.00 Build 0)  -->
<svg version="1.1" id="Capa_1" xmlns="http://www.w3.org/2000/svg" xmlns:xlink="http://www.w3.org/1999/xlink" x="0px" y="0px"
	 viewBox="0 0 490.057 490.057" style="enable-background:new 0 0 490.057 490.057;" xml:space="preserve">
<g>
	<g>
		<g>
			<path d="M245.029,222.508c0.175,0,0.35-0.001,0.524-0.002c38.663-0.289,69.772-31.865,69.484-70.529
				c0-0.174-0.001-0.347-0.002-0.521c-0.289-38.952-32.099-70.295-71.051-70.006c-38.952,0.289-70.295,32.099-70.006,71.051
				C174.266,191.454,206.077,222.797,245.029,222.508z M245.029,102.867c27.123,0,49.11,21.987,49.11,49.11
				c0.004,0.346,0.004,0.693,0,1.039c-0.287,27.41-22.74,49.397-50.15,49.11s-49.397-22.74-49.11-50.15
				S217.619,102.58,245.029,102.867z"/>
			<path d="M374.596,331.177v-9.927c-0.261-47.259-32.517-88.332-78.367-99.788c-1.966-0.358-3.967-0.129-5.783,0.605
				c-1.08,0.315-2.128,0.801-3.099,1.485c-9.443,6.771-20.105,11.012-31.075,12.728c-18.421,2.772-37.666-1.468-53.562-12.728
				c-2.285-2.007-5.399-2.786-8.359-2.09c-46.057,11.253-78.568,52.377-78.89,99.788v9.927c0,5.771,4.678,10.449,10.449,10.449
				h238.237C369.918,341.626,374.596,336.948,374.596,331.177z M136.359,320.728c0.381-35.652,23.892-66.885,57.99-77.156
				c14.24,8.994,30.651,13.989,47.511,14.426c3.352,0.122,6.71,0.067,10.058-0.17c15.617-1.028,30.734-5.967,43.966-14.366
				c34.182,10.204,57.671,41.579,57.814,77.266H136.359z"/>
			<path d="M479.608,326.998c-5.771,0-10.449,4.678-10.449,10.449c0,0,0,0,0,0c0,36.933-29.94,66.873-66.873,66.873h-58.828
				l34.273-39.706c3.513-4.594,3.065-11.083-1.045-15.151c-4.48-3.581-11.009-2.881-14.629,1.567l-49.11,56.947
				c-3.197,4.038-2.976,9.803,0.522,13.584l48.588,56.424c2.001,2.241,4.834,3.562,7.837,3.657c2.495-0.073,4.891-0.994,6.792-2.612
				c0.238-0.188,0.467-0.386,0.686-0.595c3.974-3.776,4.135-10.059,0.358-14.034l-33.469-39.184h58.024
				c48.475,0,87.771-39.297,87.771-87.771C490.057,331.676,485.379,326.998,479.608,326.998z"/>
			<path d="M116.642,125.776c-3.666,4.457-3.026,11.041,1.431,14.708c1.95,1.469,4.353,2.208,6.792,2.09
				c3.034,0.043,5.921-1.304,7.837-3.657l48.588-56.947c3.583-3.819,3.583-9.765,0-13.584l-48.588-56.424
				c-3.772-4.287-10.286-4.752-14.629-1.045c-0.238,0.188-0.467,0.386-0.686,0.595c-3.974,3.776-4.135,10.059-0.358,14.034
				l33.469,39.184H87.771C39.297,64.729,0,104.025,0,152.5c0,5.771,4.678,10.449,10.449,10.449s10.449-4.678,10.449-10.449
				c0-36.933,29.94-66.873,66.873-66.873h63.53l-34.273,39.706C116.896,125.477,116.767,125.625,116.642,125.776z"/>
		</g>
	</g>
</g>
<g>
</g>
<g>
</g>
<g>
</g>
<g>
</g>
<g>
</g>
<g>
</g>
<g>
</g>
<g>
</g>
<g>
</g>
<g>
</g>
<g>
</g>
<g>
</g>
<g>
</g>
<g>
</g>
<g>
</g>
</svg>
