<?xml version="1.0" encoding="iso-8859-1"?>
<!-- Generator: Adobe Illustrator 19.0.0, SVG Export Plug-In . SVG Version: 6.00 Build 0)  -->
<svg version="1.1" id="Capa_1" xmlns="http://www.w3.org/2000/svg" xmlns:xlink="http://www.w3.org/1999/xlink" x="0px" y="0px"
	 viewBox="0 0 376.163 376.163" style="enable-background:new 0 0 376.163 376.163;" xml:space="preserve">
<g>
	<g>
		<g>
			<path d="M349.518,346.906H41.796c-11.542,0-20.898-9.356-20.898-20.898v-307.2c0-5.771-4.678-10.449-10.449-10.449
				S0,13.037,0,18.808v307.2c0,23.083,18.713,41.796,41.796,41.796h307.722c5.771,0,10.449-4.678,10.449-10.449
				C359.967,351.584,355.289,346.906,349.518,346.906z"/>
			<polygon points="336.98,44.408 336.98,44.408 336.98,44.408 			"/>
			<path d="M336.98,44.408c-21.641,0-39.184,17.543-39.184,39.184c0.002,9.785,3.526,19.243,9.927,26.645l-22.465,26.645
				c-5.09-2.318-10.604-3.563-16.196-3.657c-21.641,0-39.184,17.543-39.184,39.184v0c-0.114,1.931,0.062,3.868,0.522,5.747
				l-26.122,7.314c-10.277-19.044-34.047-26.152-53.092-15.874c-12.572,6.785-20.456,19.874-20.574,34.16
				c0.062,4.986,0.945,9.929,2.612,14.629l-19.853,20.898c-6.499-4.348-14.124-6.709-21.943-6.792
				c-21.641,0-39.184,17.543-39.184,39.184c0,21.641,17.543,39.184,39.184,39.184c21.641,0,39.184-17.543,39.184-39.184
				c-0.151-5.586-1.394-11.087-3.657-16.196l19.331-20.376c6.8,5.054,15.038,7.8,23.51,7.837
				c20.755,0.017,37.82-16.356,38.661-37.094l30.302-8.359c7.488,8.99,18.602,14.164,30.302,14.106
				c21.523-0.281,38.902-17.661,39.184-39.184c-0.021-7.829-2.387-15.471-6.792-21.943l24.555-29.257
				c3.549,1.111,7.254,1.64,10.971,1.567c21.641,0,39.184-17.543,39.184-39.184S358.62,44.408,336.98,44.408z M91.429,289.959
				c-10.099,0-18.286-8.187-18.286-18.286c0-10.099,8.187-18.286,18.286-18.286s18.286,8.187,18.286,18.286
				C109.714,281.772,101.527,289.959,91.429,289.959z M169.796,222.041c-10.099,0-18.286-8.187-18.286-18.286
				s8.187-18.286,18.286-18.286c10.099,0,18.286,8.187,18.286,18.286S179.895,222.041,169.796,222.041z M269.061,190.694
				c-10.099,0-18.286-8.187-18.286-18.286c0-10.099,8.187-18.286,18.286-18.286c10.099,0,18.286,8.187,18.286,18.286
				C287.347,182.507,279.16,190.694,269.061,190.694z M336.98,101.878c-10.099,0-18.286-8.187-18.286-18.286
				s8.187-18.286,18.286-18.286s18.286,8.187,18.286,18.286S347.079,101.878,336.98,101.878z"/>
		</g>
	</g>
</g>
<g>
</g>
<g>
</g>
<g>
</g>
<g>
</g>
<g>
</g>
<g>
</g>
<g>
</g>
<g>
</g>
<g>
</g>
<g>
</g>
<g>
</g>
<g>
</g>
<g>
</g>
<g>
</g>
<g>
</g>
</svg>
