<?xml version="1.0" encoding="iso-8859-1"?>
<!-- Generator: Adobe Illustrator 19.0.0, SVG Export Plug-In . SVG Version: 6.00 Build 0)  -->
<svg version="1.1" id="Capa_1" xmlns="http://www.w3.org/2000/svg" xmlns:xlink="http://www.w3.org/1999/xlink" x="0px" y="0px"
	 viewBox="0 0 428.419 428.419" style="enable-background:new 0 0 428.419 428.419;" xml:space="preserve">
<g>
	<g>
		<g>
			<path d="M385.573,152.558h-22.988c-2.612-47.02-44.931-91.429-96.131-91.429s-93.518,44.408-96.131,91.429H42.846
				c-24.555,0-42.841,21.42-42.841,45.976v87.771c-0.355,23.078,17.228,42.487,40.229,44.408
				c0.286,20.484,17.125,36.858,37.609,36.572c0.002,0,0.005,0,0.007,0c20.662,0.008,37.573-16.44,38.139-37.094H312.43
				c0.841,20.737,17.907,37.111,38.661,37.094c20.284,0.002,36.808-16.289,37.094-36.571c23.001-1.921,40.583-21.33,40.229-44.408
				v-87.771C428.413,173.979,410.128,152.558,385.573,152.558z M266.454,83.595c41.55,0,75.233,33.683,75.233,75.233
				s-33.683,75.233-75.233,75.233c-41.55,0-75.233-33.683-75.233-75.233C191.222,117.278,224.904,83.595,266.454,83.595z
				 M77.393,345.869c-0.022-0.001-0.043-0.003-0.065-0.004c-8.926,0.581-16.633-6.184-17.214-15.109
				c-0.012-0.188-0.021-0.376-0.027-0.564h35.004C94.533,339.408,86.609,346.427,77.393,345.869z M351.655,345.891
				c-0.188-0.006-0.376-0.015-0.564-0.027c-9.214,0.594-17.165-6.394-17.759-15.608c-0.001-0.022-0.003-0.043-0.004-0.065h35.004
				C368.062,339.132,360.596,346.161,351.655,345.891z M386.642,309.268c-0.356,0.017-0.713,0.025-1.07,0.025H167.189v-65.306
				c0-5.771-4.678-10.449-10.449-10.449c-5.771,0-10.449,4.678-10.449,10.449v65.306h-20.898v-65.306
				c0-5.771-4.678-10.449-10.449-10.449s-10.449,4.678-10.449,10.449v65.306H88.822v-65.306c0-5.771-4.678-10.449-10.449-10.449
				s-10.449,4.678-10.449,10.449v65.306H42.846c-12.119,0.014-21.954-9.799-21.968-21.918c0-0.357,0.008-0.714,0.025-1.07v-87.771
				c0-13.061,8.882-25.078,21.943-25.078h129.045c9.548,52.226,59.626,86.823,111.851,77.275
				c39.319-7.188,70.087-37.956,77.275-77.275h24.555c13.061,0,21.943,12.016,21.943,25.078v87.771
				C408.093,298.41,398.747,308.691,386.642,309.268z"/>
			<path d="M266.454,206.893c26.833,0.287,48.818-21.233,49.105-48.065s-21.233-48.818-48.065-49.105
				c-26.833-0.287-48.818,21.233-49.105,48.065c-0.004,0.346-0.004,0.693,0,1.039C218.389,185.374,239.909,206.893,266.454,206.893z
				 M265.927,131.143c0.176-0.003,0.352-0.005,0.527-0.005c15.004-0.003,27.17,12.158,27.172,27.162
				c0,0.176-0.002,0.352-0.005,0.527c0,15.004-12.163,27.167-27.167,27.167c-15.004,0-27.167-12.163-27.167-27.167
				C238.998,143.827,250.925,131.432,265.927,131.143z"/>
		</g>
	</g>
</g>
<g>
</g>
<g>
</g>
<g>
</g>
<g>
</g>
<g>
</g>
<g>
</g>
<g>
</g>
<g>
</g>
<g>
</g>
<g>
</g>
<g>
</g>
<g>
</g>
<g>
</g>
<g>
</g>
<g>
</g>
</svg>
