<?xml version="1.0" encoding="iso-8859-1"?>
<!-- Generator: Adobe Illustrator 19.0.0, SVG Export Plug-In . SVG Version: 6.00 Build 0)  -->
<svg version="1.1" id="Capa_1" xmlns="http://www.w3.org/2000/svg" xmlns:xlink="http://www.w3.org/1999/xlink" x="0px" y="0px"
	 viewBox="0 0 482.723 482.723" style="enable-background:new 0 0 482.723 482.723;" xml:space="preserve">
<g>
	<g>
		<g>
			<path d="M445.639,399.1h-5.747V182.806c0.017-21.929-17.746-39.72-39.675-39.737c-0.533,0-1.066,0.01-1.598,0.031h-99.788V95.557
				c0-23.51-10.971-70.531-52.767-94.041c-3-2.022-6.926-2.022-9.927,0c-41.796,23.51-52.767,70.531-52.767,94.041V143.1H84.104
				c-21.912-0.866-40.377,16.196-41.243,38.108c-0.021,0.533-0.031,1.065-0.031,1.598V399.1h-5.747
				c-5.747,0-9.927,2.612-9.927,8.359v35.527c-0.017,21.929,17.746,39.72,39.675,39.737c0.533,0,1.066-0.01,1.598-0.031h345.861
				c21.912,0.866,40.377-16.196,41.243-38.108c0.021-0.532,0.031-1.065,0.031-1.598v-35.527
				C455.566,401.712,451.386,399.1,445.639,399.1z M204.268,176.014V95.557c0-18.286,7.837-53.29,36.571-72.62
				c29.257,19.331,37.094,54.335,37.094,72.62v80.457c-0.27,3.49,1.318,6.865,4.18,8.882l37.616,23.51v13.061H162.994v-13.061
				l37.616-23.51C203.364,182.828,204.767,179.421,204.268,176.014z M336.447,192.733l-1.045-2.612h52.245v172.408H95.076V190.12
				h52.245l-1.045,2.612c-3.033,2.35-4.618,6.114-4.18,9.927v27.167c0,5.747,2.612,12.539,8.359,12.539h39.706l7.314,24.033
				c1.21,4.447,5.321,7.476,9.927,7.314h67.918c4.606,0.162,8.717-2.868,9.927-7.314l7.314-24.033h39.706
				c5.747,0,8.359-6.792,8.359-12.539v-27.167C341.065,198.847,339.481,195.083,336.447,192.733z M212.104,242.365h58.514
				l-3.135,10.449h-52.245L212.104,242.365z M63.729,182.806c-0.036-10.387,8.355-18.837,18.743-18.873
				c0.545-0.002,1.09,0.02,1.633,0.065h99.788v6.269l-3.135-1.045H86.717c-6.607,1.103-11.706,6.414-12.539,13.061V375.59
				c0,5.747,6.792,7.837,12.539,7.837h309.29c5.747,0,12.539-2.09,12.539-7.837V182.284c-0.833-6.647-5.931-11.958-12.539-13.061
				h-94.041l-3.135,1.045v-6.269h99.788c10.351-0.866,19.445,6.824,20.31,17.175c0.045,0.543,0.067,1.088,0.065,1.633V399.1H309.28
				c-4.008-0.16-7.718,2.107-9.404,5.747l-7.314,15.151h-102.4l-7.314-15.151c-1.686-3.64-5.396-5.907-9.404-5.747H63.729V182.806z
				 M434.668,442.986c0.036,10.387-8.355,18.837-18.743,18.873c-0.545,0.002-1.09-0.02-1.633-0.065H68.431
				c-10.351,0.866-19.445-6.824-20.31-17.175c-0.045-0.543-0.067-1.088-0.065-1.633v-22.988h119.118l4.702,9.404
				c3.187,7.197,10.419,11.742,18.286,11.494h102.4c7.867,0.249,15.099-4.297,18.286-11.494l4.702-9.404h119.118V442.986z"/>
			<path d="M241.362,286.251c-5.771,0-10.449,4.678-10.449,10.449v52.245c0,5.771,4.678,10.449,10.449,10.449
				s10.449-4.678,10.449-10.449V296.7C251.811,290.929,247.132,286.251,241.362,286.251z"/>
			<path d="M272.709,286.251c-5.771,0-10.449,4.678-10.449,10.449v26.645c0,5.771,4.678,10.449,10.449,10.449
				s10.449-4.678,10.449-10.449V296.7C283.158,290.929,278.479,286.251,272.709,286.251z"/>
			<path d="M210.015,286.251c-5.771,0-10.449,4.678-10.449,10.449v26.645c0,5.771,4.678,10.449,10.449,10.449
				s10.449-4.678,10.449-10.449V296.7C220.464,290.929,215.786,286.251,210.015,286.251z"/>
			<path d="M241.362,119.067c13.85-0.034,25.05-11.289,25.016-25.139c-0.034-13.85-11.289-25.05-25.139-25.016
				c-13.85,0.034-25.05,11.289-25.016,25.139c0.016,6.645,2.669,13.011,7.376,17.702
				C228.314,116.452,234.704,119.084,241.362,119.067z M238.227,90.855c1.858-1.393,4.412-1.393,6.269,0
				c1.596,1.785,1.596,4.484,0,6.269c-1.858,1.393-4.412,1.393-6.269,0C236.63,95.34,236.63,92.64,238.227,90.855z"/>
		</g>
	</g>
</g>
<g>
</g>
<g>
</g>
<g>
</g>
<g>
</g>
<g>
</g>
<g>
</g>
<g>
</g>
<g>
</g>
<g>
</g>
<g>
</g>
<g>
</g>
<g>
</g>
<g>
</g>
<g>
</g>
<g>
</g>
</svg>
