<?xml version="1.0" encoding="iso-8859-1"?>
<!-- Generator: Adobe Illustrator 19.0.0, SVG Export Plug-In . SVG Version: 6.00 Build 0)  -->
<svg version="1.1" id="Capa_1" xmlns="http://www.w3.org/2000/svg" xmlns:xlink="http://www.w3.org/1999/xlink" x="0px" y="0px"
	 viewBox="0 0 459.784 459.784" style="enable-background:new 0 0 459.784 459.784;" xml:space="preserve">
<g>
	<g>
		<g>
			<path d="M421.659,36.586c-0.706-0.019-1.412-0.019-2.118,0H271.688V11.508c0-5.771-4.678-10.449-10.449-10.449h-62.694
				c-5.771,0-10.449,4.678-10.449,10.449v25.078H40.243C18.61,36.001,0.599,53.063,0.014,74.696c-0.019,0.706-0.019,1.412,0,2.118
				v250.253c0,22.988,17.241,43.886,40.229,43.886h96.131l-51.2,61.649c-3.611,4.125-3.195,10.396,0.93,14.007
				c0.038,0.033,0.076,0.066,0.115,0.099c1.875,1.611,4.336,2.369,6.792,2.09c3.135,0,6.269,0,7.837-2.612l62.694-75.233h55.902
				v77.322c0,5.771,4.678,10.449,10.449,10.449s10.449-4.678,10.449-10.449v-77.322h55.902l62.694,75.233
				c2.016,2.159,4.888,3.308,7.837,3.135c2.472-0.18,4.836-1.089,6.792-2.612c4.026-3.282,4.629-9.205,1.347-13.231
				c-0.098-0.12-0.199-0.238-0.302-0.353l-51.2-62.171h96.131c22.988,0,40.229-20.898,40.229-43.886V76.814
				C460.354,55.182,443.292,37.171,421.659,36.586z M208.994,21.957h41.796v14.629h-41.796V21.957z M444.096,329.157
				c0,11.542-9.356,20.898-20.898,20.898H41.81c-11.542,0-20.898-9.356-20.898-20.898V78.382c0-11.542,9.356-20.898,20.898-20.898
				h381.388c11.542,0,20.898,9.356,20.898,20.898V329.157z"/>
			<path d="M412.749,67.933H47.035c-5.771,0-10.449,4.678-10.449,10.449v245.551c0,5.771,4.678,10.449,10.449,10.449h365.714
				c5.771,0,10.449-4.678,10.449-10.449V78.382C423.198,72.611,418.52,67.933,412.749,67.933z M402.3,313.484H57.484V88.831H402.3
				V313.484z"/>
			<path d="M229.892,242.431c24.526,0,44.408-19.882,44.408-44.408s-19.882-44.408-44.408-44.408s-44.408,19.882-44.408,44.408
				S205.366,242.431,229.892,242.431z M229.892,174.512c12.984,0,23.51,10.526,23.51,23.51s-10.526,23.51-23.51,23.51
				s-23.51-10.526-23.51-23.51S216.908,174.512,229.892,174.512z"/>
			<path d="M88.831,242.431h67.918c3.619-0.243,6.911-2.179,8.882-5.224c1.773-3.071,1.773-6.855,0-9.927l-33.959-67.918
				c-1.5-3.557-5.022-5.836-8.882-5.747c-4.008-0.16-7.718,2.107-9.404,5.747L79.427,227.28c-1.614,3.164-1.415,6.949,0.522,9.927
				C81.703,240.468,85.127,242.483,88.831,242.431z M122.79,187.051l16.718,34.482h-33.959L122.79,187.051z"/>
			<path d="M303.035,242.431h67.918c0.358,0.019,0.716,0.019,1.074,0c5.474-0.297,9.672-4.975,9.375-10.449v-67.918
				c0.019-0.358,0.019-0.716,0-1.074c-0.297-5.474-4.975-9.672-10.449-9.375h-67.918c-5.771,0-10.449,4.678-10.449,10.449v67.918
				C292.586,237.753,297.264,242.431,303.035,242.431z M313.484,174.512h47.02v47.02h-47.02V174.512z"/>
		</g>
	</g>
</g>
<g>
</g>
<g>
</g>
<g>
</g>
<g>
</g>
<g>
</g>
<g>
</g>
<g>
</g>
<g>
</g>
<g>
</g>
<g>
</g>
<g>
</g>
<g>
</g>
<g>
</g>
<g>
</g>
<g>
</g>
</svg>
