<?xml version="1.0" encoding="iso-8859-1"?>
<!-- Generator: Adobe Illustrator 19.0.0, SVG Export Plug-In . SVG Version: 6.00 Build 0)  -->
<svg version="1.1" id="Capa_1" xmlns="http://www.w3.org/2000/svg" xmlns:xlink="http://www.w3.org/1999/xlink" x="0px" y="0px"
	 viewBox="0 0 448.784 448.784" style="enable-background:new 0 0 448.784 448.784;" xml:space="preserve">
<g>
	<g>
		<g>
			<path d="M423.471,0.001c-0.009,0-0.017-0.001-0.026-0.001H25.339c-5.764,0.281-10.209,5.181-9.928,10.945
				c0,0.009,0.001,0.017,0.001,0.026v64.261c0,5.747,4.18,8.359,9.927,8.359h16.196v222.563c0,5.747,3.657,12.539,9.404,12.539
				h163.004v43.886c-19.521,4.785-33.297,22.22-33.437,42.318c0,24.237,19.648,43.886,43.886,43.886s43.886-19.648,43.886-43.886
				c-0.14-20.099-13.916-37.533-33.437-42.318v-43.886h163.004c5.747,0,9.404-6.792,9.404-12.539V83.592h16.196
				c5.747,0,9.927-2.612,9.927-8.359V10.971C433.667,5.208,429.234,0.297,423.471,0.001z M247.38,404.898
				c0,12.696-10.292,22.988-22.988,22.988s-22.988-10.292-22.988-22.988s10.292-22.988,22.988-22.988S247.38,392.202,247.38,404.898
				z M386.351,297.796H62.433V83.592h323.918V297.796z M412.473,62.694H36.31V20.898h376.163V62.694z"/>
			<path d="M202.449,273.763h43.886c5.771,0,10.449-4.678,10.449-10.449v-99.265c0-5.771-4.678-10.449-10.449-10.449h-43.886
				c-5.771,0-10.449,4.678-10.449,10.449v99.265C192,269.085,196.678,273.763,202.449,273.763z M212.898,174.498h22.988v78.367
				h-22.988V174.498z"/>
			<path d="M287.086,273.763h43.363c0.358,0.019,0.716,0.019,1.074,0c5.474-0.297,9.672-4.975,9.375-10.449V119.641
				c0.019-0.358,0.019-0.716,0-1.074c-0.297-5.474-4.975-9.672-10.449-9.375h-43.363c-5.771,0-10.449,4.678-10.449,10.449v143.674
				C276.637,269.085,281.315,273.763,287.086,273.763z M320,130.09v122.776h-22.465l0-122.776H320z"/>
			<path d="M107.886,263.314c-0.019,0.358-0.019,0.716,0,1.074c0.297,5.474,4.975,9.672,10.449,9.375h43.363
				c5.771,0,10.449-4.678,10.449-10.449v-52.245c0-5.771-4.678-10.449-10.449-10.449h-43.363c-0.358-0.019-0.716-0.019-1.074,0
				c-5.474,0.297-9.672,4.975-9.375,10.449V263.314z M128.784,221.518h22.465v31.347h-22.465V221.518z"/>
		</g>
	</g>
</g>
<g>
</g>
<g>
</g>
<g>
</g>
<g>
</g>
<g>
</g>
<g>
</g>
<g>
</g>
<g>
</g>
<g>
</g>
<g>
</g>
<g>
</g>
<g>
</g>
<g>
</g>
<g>
</g>
<g>
</g>
</svg>
