<?xml version="1.0" encoding="iso-8859-1"?>
<!-- Generator: Adobe Illustrator 19.0.0, SVG Export Plug-In . SVG Version: 6.00 Build 0)  -->
<svg version="1.1" id="Capa_1" xmlns="http://www.w3.org/2000/svg" xmlns:xlink="http://www.w3.org/1999/xlink" x="0px" y="0px"
	 viewBox="0 0 501.551 501.551" style="enable-background:new 0 0 501.551 501.551;" xml:space="preserve">
<g>
	<g>
		<g>
			<path d="M134.269,239.804h233.012c5.771,0,10.449-4.678,10.449-10.449V43.886c0-5.771-4.678-10.449-10.449-10.449H134.269
				c-5.771,0-10.449,4.678-10.449,10.449v185.469C123.82,235.126,128.499,239.804,134.269,239.804z M144.718,54.335h212.114v164.571
				H144.718V54.335z"/>
			<path d="M134.269,276.375h76.278c5.771,0,10.449-4.678,10.449-10.449c0.019-0.358,0.019-0.716,0-1.074
				c-0.297-5.474-4.975-9.672-10.449-9.375h-76.278c-0.358-0.019-0.716-0.019-1.074,0c-5.474,0.297-9.672,4.975-9.375,10.449
				C123.82,271.697,128.499,276.375,134.269,276.375z"/>
			<path d="M134.269,318.171h233.012c5.771,0,10.449-4.678,10.449-10.449c0.019-0.358,0.019-0.716,0-1.074
				c-0.297-5.474-4.975-9.672-10.449-9.375H134.269c-0.358-0.019-0.716-0.019-1.074,0c-5.474,0.297-9.672,4.975-9.375,10.449
				C123.82,313.493,128.499,318.171,134.269,318.171z"/>
			<path d="M134.269,359.967h233.012c5.771,0,10.449-4.678,10.449-10.449c0.019-0.358,0.019-0.716,0-1.074
				c-0.297-5.474-4.975-9.672-10.449-9.375H134.269c-0.358-0.019-0.716-0.019-1.074,0c-5.474,0.297-9.672,4.975-9.375,10.449
				C123.82,355.289,128.499,359.967,134.269,359.967z"/>
			<path d="M398.629,0H102.922c-5.747,0-8.882,6.792-8.882,12.539v378.776c0,5.747,3.135,10.971,8.882,10.971h95.608v41.796h-41.796
				c-6.018,0.792-10.501,5.947-10.449,12.016v32.914c-0.086,6.185,4.35,11.508,10.449,12.539h188.082
				c6.099-1.03,10.535-6.354,10.449-12.539v-32.914c0.052-6.07-4.431-11.225-10.449-12.016H303.02v-41.796h95.608
				c5.747,0,8.882-5.224,8.882-10.971V12.539C407.51,6.792,404.375,0,398.629,0z M334.367,464.98v15.673H167.184V464.98H334.367z
				 M219.429,444.082v-41.796h62.694v41.796H219.429z M386.612,381.388H114.939V20.898h271.673V381.388z"/>
		</g>
	</g>
</g>
<g>
</g>
<g>
</g>
<g>
</g>
<g>
</g>
<g>
</g>
<g>
</g>
<g>
</g>
<g>
</g>
<g>
</g>
<g>
</g>
<g>
</g>
<g>
</g>
<g>
</g>
<g>
</g>
<g>
</g>
</svg>
