<?xml version="1.0" encoding="iso-8859-1"?>
<!-- Generator: Adobe Illustrator 19.0.0, SVG Export Plug-In . SVG Version: 6.00 Build 0)  -->
<svg version="1.1" id="Capa_1" xmlns="http://www.w3.org/2000/svg" xmlns:xlink="http://www.w3.org/1999/xlink" x="0px" y="0px"
	 viewBox="0 0 438.891 438.891" style="enable-background:new 0 0 438.891 438.891;" xml:space="preserve">
<g>
	<g>
		<g>
			<path d="M347.968,57.503h-44.931V42.352c-0.767-6.112-5.86-10.763-12.016-10.971h-25.6c-7.314-15.674-25.6-31.347-46.498-31.347
				c-20.668-0.777-39.467,11.896-46.498,31.347h-25.078c-6.048,0.241-10.972,4.942-11.494,10.971v15.151H90.923
				c-22.988,0-43.886,16.718-43.886,39.706v299.363c1.106,23.505,20.356,42.068,43.886,42.318h257.045
				c23.53-0.251,42.78-18.813,43.886-42.318V97.209C391.854,74.222,370.956,57.503,347.968,57.503z M156.752,52.279h23.51
				c4.76,0.106,8.925-3.182,9.927-7.837c2.957-13.481,14.933-23.062,28.735-22.988c13.518-0.08,25.263,9.273,28.212,22.465
				c1.008,4.944,5.405,8.461,10.449,8.359h24.555v41.796H156.752V52.279z M136.899,104.524c0.264,5.658,4.791,10.185,10.449,10.449
				h143.673c5.658-0.264,10.185-4.791,10.449-10.449h27.69v271.673H109.731V104.524H136.899z M370.956,396.573
				c-1.066,11.964-10.978,21.201-22.988,21.42H90.923c-12.009-0.22-21.922-9.456-22.988-21.42V97.209
				c0-11.494,11.494-18.808,22.988-18.808h44.931v5.224h-34.482c-5.747,0-12.539,2.612-12.539,8.359v294.139
				c1.002,6.194,6.266,10.801,12.539,10.971h236.147c6.272-0.171,11.537-4.777,12.539-10.971V91.985
				c0-5.747-6.792-8.359-12.539-8.359h-34.482v-5.224h44.931c11.494,0,22.988,7.314,22.988,18.808V396.573z"/>
			<path d="M146.303,229.911h146.286c5.771,0,10.449-4.678,10.449-10.449s-4.678-10.449-10.449-10.449H146.303
				c-5.771,0-10.449,4.678-10.449,10.449S140.532,229.911,146.303,229.911z"/>
			<path d="M146.303,177.667h67.918c5.771,0,10.449-4.678,10.449-10.449c0-5.771-4.678-10.449-10.449-10.449h-67.918
				c-5.771,0-10.449,4.678-10.449,10.449C135.854,172.988,140.532,177.667,146.303,177.667z"/>
			<path d="M146.303,282.156h146.286c5.771,0,10.449-4.678,10.449-10.449s-4.678-10.449-10.449-10.449H146.303
				c-5.771,0-10.449,4.678-10.449,10.449S140.532,282.156,146.303,282.156z"/>
			<path d="M146.303,334.401h146.286c5.771,0,10.449-4.678,10.449-10.449s-4.678-10.449-10.449-10.449H146.303
				c-5.771,0-10.449,4.678-10.449,10.449S140.532,334.401,146.303,334.401z"/>
		</g>
	</g>
</g>
<g>
</g>
<g>
</g>
<g>
</g>
<g>
</g>
<g>
</g>
<g>
</g>
<g>
</g>
<g>
</g>
<g>
</g>
<g>
</g>
<g>
</g>
<g>
</g>
<g>
</g>
<g>
</g>
<g>
</g>
</svg>
