<?xml version="1.0" encoding="iso-8859-1"?>
<!-- Generator: Adobe Illustrator 19.0.0, SVG Export Plug-In . SVG Version: 6.00 Build 0)  -->
<svg version="1.1" id="Capa_1" xmlns="http://www.w3.org/2000/svg" xmlns:xlink="http://www.w3.org/1999/xlink" x="0px" y="0px"
	 viewBox="0 0 407.514 407.514" style="enable-background:new 0 0 407.514 407.514;" xml:space="preserve">
<g>
	<g>
		<g>
			<path d="M353.7,0.003H112.851C90.058-0.285,71.347,17.958,71.058,40.751c-0.002,0.175-0.003,0.351-0.003,0.526v251.298H53.814
				c-23.801,0.825-42.824,20.077-43.363,43.886v23.51c0.838,25.442,21.566,45.71,47.02,45.976v1.567h291.527
				c26.116-0.543,47.237-21.434,48.065-47.543V42.844C396.239,19.332,377.22,0.542,353.7,0.003z M58.516,386.616
				c-14.691-0.267-26.615-11.962-27.167-26.645v-23.51c0.509-12.28,10.2-22.197,22.465-22.988h224.653
				c11.494,0,19.331,10.971,19.331,22.988v23.51c0,9.404,4.18,16.196,9.404,26.645H58.516z M376.165,359.971
				c-0.552,14.683-12.476,26.378-27.167,26.645h-3.135c-14.691-0.267-26.615-11.962-27.167-26.645v-23.51
				c0-23.51-17.241-43.886-40.229-43.886H91.43V41.277c-0.004-11.253,9.116-20.379,20.369-20.382c0.176,0,0.353,0.002,0.529,0.007
				H353.7c11.992,0.507,21.676,9.966,22.465,21.943V359.971z"/>
			<path d="M335.414,222.044v-0.522c-14.214,0.202-26.575,9.793-30.302,23.51H203.757V87.775l20.375,19.853
				c1.854,2.076,4.532,3.224,7.314,3.135c2.814-0.069,5.544-0.979,7.837-2.612c3.8-4.336,3.8-10.815,0-15.151l-37.616-38.139
				c-3.706-4.04-9.986-4.31-14.025-0.603c-0.21,0.192-0.411,0.394-0.603,0.603l-37.616,38.139c-4.047,4.24-4.047,10.911,0,15.151
				c3.997,3.753,10.279,3.555,14.031-0.442c0.025-0.027,0.05-0.054,0.075-0.081l19.331-19.853v167.184
				c0.493,6.132,5.362,11.001,11.494,11.494h111.804c4.899,11.806,16.476,19.455,29.257,19.331
				c17.601,0,31.869-14.268,31.869-31.869C367.283,236.313,353.015,222.044,335.414,222.044z M345.863,253.391
				c0,5.771-4.678,10.449-10.449,10.449c-5.915,1.314-11.776-2.415-13.09-8.33c-1.314-5.915,2.415-11.776,8.33-13.09
				c1.568-0.348,3.192-0.348,4.76,0c5.771-0.007,10.455,4.665,10.462,10.436C345.876,253.034,345.872,253.213,345.863,253.391z"/>
			<path d="M133.749,132.183c-16.82,0.285-30.304,14.003-30.302,30.824c0,16.735,13.567,30.302,30.302,30.302
				c16.822,0.002,30.539-13.483,30.825-30.302C164.294,146.101,150.655,132.462,133.749,132.183z M133.749,172.412
				c-5.194,0-9.404-4.21-9.404-9.404c-0.007-5.285,4.127-9.648,9.404-9.927c5.37,0.262,9.664,4.557,9.927,9.927
				C143.397,168.285,139.033,172.419,133.749,172.412z"/>
			<path d="M241.896,157.261l10.971,10.971l-10.971,11.494c-4.04,3.706-4.31,9.986-0.603,14.025c0.192,0.21,0.394,0.411,0.603,0.603
				c1.929,1.969,4.558,3.095,7.314,3.135c2.782,0.089,5.46-1.059,7.314-3.135l11.494-10.971l10.971,10.971
				c3.706,4.04,9.986,4.31,14.025,0.603c0.21-0.192,0.411-0.394,0.603-0.603c4.04-3.706,4.31-9.986,0.603-14.025
				c-0.192-0.21-0.394-0.411-0.603-0.603l-10.971-11.494l10.971-10.971c3.462-4.617,2.527-11.166-2.09-14.629
				c-3.715-2.786-8.824-2.786-12.539,0l-10.971,10.971l-11.494-10.971c-4.617-3.462-11.166-2.527-14.629,2.09
				C239.109,148.437,239.109,153.545,241.896,157.261z"/>
		</g>
	</g>
</g>
<g>
</g>
<g>
</g>
<g>
</g>
<g>
</g>
<g>
</g>
<g>
</g>
<g>
</g>
<g>
</g>
<g>
</g>
<g>
</g>
<g>
</g>
<g>
</g>
<g>
</g>
<g>
</g>
<g>
</g>
</svg>
