<?xml version="1.0" encoding="iso-8859-1"?>
<!-- Generator: Adobe Illustrator 19.0.0, SVG Export Plug-In . SVG Version: 6.00 Build 0)  -->
<svg version="1.1" id="Capa_1" xmlns="http://www.w3.org/2000/svg" xmlns:xlink="http://www.w3.org/1999/xlink" x="0px" y="0px"
	 viewBox="0 0 482.639 482.639" style="enable-background:new 0 0 482.639 482.639;" xml:space="preserve">
<g>
	<g>
		<path d="M420.523,352.027c-0.57-4.608-3.03-8.772-6.792-11.494l-31.347-43.886c-26.743-37.757-41.325-82.778-41.796-129.045
			v-1.567c0.493-43.308-26.587-82.144-67.396-96.653c7.624-8.052,11.917-18.691,12.016-29.78
			c-2.656-24.382-24.575-41.994-48.957-39.337c-20.719,2.257-37.08,18.619-39.337,39.337c-0.095,11.027,4.015,21.676,11.494,29.78
			c-13.119,4.769-25.185,12.044-35.526,21.42c-19.912,19.353-31.208,45.898-31.347,73.665
			c0.418,48.747-14.778,96.349-43.363,135.837L69.438,340.01c-3.988,2.828-6.634,7.175-7.314,12.016
			c-0.382,0.429-0.571,0.995-0.522,1.567c0,14.629,18.286,24.555,58.514,31.869c36.625,5.964,73.653,9.108,110.759,9.404
			c-19.891,5.008-33.865,22.852-33.959,43.363c0,24.526,19.882,44.408,44.408,44.408s44.408-19.882,44.408-44.408
			c-0.331-20.316-14.255-37.882-33.959-42.841c37.093-0.123,74.121-3.093,110.759-8.882c40.229-7.314,58.514-17.241,58.514-31.869
			C421.046,353.072,421.046,352.549,420.523,352.027z M217.813,39.602c0.284-12.78,10.727-22.991,23.51-22.988
			c12.984,0.003,23.508,10.532,23.504,23.516s-10.532,23.508-23.516,23.504c-12.984-0.003-23.508-10.532-23.504-23.516
			C217.807,39.947,217.809,39.774,217.813,39.602z M162.433,164.468c-0.041-22.123,9.029-43.287,25.078-58.514
			c15.19-14.729,35.815-22.488,56.947-21.42c41.796,1.567,75.233,38.139,75.233,81.502v1.567c0.443,11.39,1.664,22.736,3.657,33.959
			c-27.427-2.789-54.978-4.184-82.547-4.18c-28.735,0-55.902,1.567-80.98,3.657C161.49,188.919,162.363,176.702,162.433,164.468z
			 M85.111,354.117c12.539-7.314,61.649-18.808,145.763-19.853v39.706C146.76,372.925,97.65,361.953,85.111,354.117z
			 M264.833,438.753c0,12.984-10.526,23.51-23.51,23.51s-23.51-10.526-23.51-23.51c0-12.984,10.526-23.51,23.51-23.51
			S264.833,425.769,264.833,438.753z M241.323,313.366c-40.604-0.535-81.173,2.613-121.208,9.404l-14.629,2.612l9.404-13.061
			c19.684-26.86,33.724-57.428,41.273-89.861c28.299-2.813,56.721-4.207,85.159-4.18c30.824,0,60.604,1.567,86.727,4.18
			c7.321,30.921,20.44,60.172,38.661,86.204l11.494,17.241l-15.673-3.135C322.496,315.978,281.927,312.831,241.323,313.366z
			 M251.772,373.97v-39.706c84.114,1.045,133.225,12.539,145.763,19.853C384.997,361.953,335.887,372.925,251.772,373.97z"/>
	</g>
</g>
<g>
</g>
<g>
</g>
<g>
</g>
<g>
</g>
<g>
</g>
<g>
</g>
<g>
</g>
<g>
</g>
<g>
</g>
<g>
</g>
<g>
</g>
<g>
</g>
<g>
</g>
<g>
</g>
<g>
</g>
</svg>
