<?xml version="1.0" encoding="iso-8859-1"?>
<!-- Generator: Adobe Illustrator 19.0.0, SVG Export Plug-In . SVG Version: 6.00 Build 0)  -->
<svg version="1.1" id="Capa_1" xmlns="http://www.w3.org/2000/svg" xmlns:xlink="http://www.w3.org/1999/xlink" x="0px" y="0px"
	 viewBox="0 0 501.595 501.595" style="enable-background:new 0 0 501.595 501.595;" xml:space="preserve">
<g>
	<g>
		<g>
			<path d="M219.429,275.592h-88.816c-5.771,0-10.449,4.678-10.449,10.449v83.592c0,5.771,4.678,10.449,10.449,10.449h88.816
				c5.771,0,10.449-4.678,10.449-10.449v-83.592C229.878,280.27,225.199,275.592,219.429,275.592z M214.204,359.184h-73.143V296.49
				h73.143V359.184z"/>
			<path d="M494.237,386.873L494.237,386.873l-37.094-37.094c-3.706-4.04-9.986-4.31-14.025-0.603
				c-0.21,0.192-0.411,0.394-0.603,0.603l-3.135,3.135l-3.135-3.657c13.394-16.742,20.592-37.597,20.376-59.037
				c-0.58-44.657-31.681-83.102-75.233-92.996V79.674c0-5.747-3.135-7.837-9.404-7.837H92.473c-5.747,0-8.882,2.09-8.882,7.837
				v164.571H10.449C4.702,244.245,0,246.857,0,252.604v119.118c0.283,27.987,23.2,50.446,51.187,50.163
				c0.179-0.002,0.357-0.005,0.536-0.008h284.212c23.132,0.216,42.822-16.789,45.976-39.706c14.31-2.951,27.73-9.213,39.184-18.286
				l3.657,3.657l-3.135,3.135c-4.04,3.706-4.31,9.986-0.603,14.025c0.192,0.21,0.394,0.411,0.603,0.603L458.71,422.4
				c9.81,9.81,25.716,9.81,35.527,0C504.047,412.59,504.047,396.684,494.237,386.873z M83.592,371.722
				c0.01,16.735-13.549,30.31-30.284,30.32c-0.354,0-0.709-0.006-1.063-0.018c-16.725,0.577-30.752-12.514-31.329-29.239
				c-0.012-0.354-0.018-0.708-0.018-1.063v-106.58h62.694V371.722z M335.935,400.98H92.996c7.492-7.885,11.616-18.381,11.494-29.257
				V92.735h256v101.878l-15.673,2.09v-82.547c-0.767-6.112-5.86-10.763-12.016-10.971H132.702
				c-6.272,0.171-11.537,4.777-12.539,10.971v83.069c1.03,6.099,6.354,10.535,12.539,10.449h181.812
				c-6.269,5.224-12.539,10.449-17.763,10.449H132.702c-5.771,0-10.449,4.678-10.449,10.449s4.678,10.449,10.449,10.449h147.331
				c-1.045,5.224-2.09,5.224-3.135,10.449H132.702c-5.771,0-10.449,4.678-10.449,10.449c0,5.771,4.678,10.449,10.449,10.449h136.359
				c-0.522,0-0.522,4.18-1.045,6.269l-2.612-1.045h-6.269c-5.771,0-10.449,4.678-10.449,10.449s4.678,10.449,10.449,10.449h6.269
				l1.567-1.045c0.522,2.612,0.522,6.269,1.045,6.269h-8.882c-5.771,0-10.449,4.678-10.449,10.449s4.678,10.449,10.449,10.449
				h11.494l2.612-1.045c0.522,2.612,1.567,6.269,2.612,6.269h-16.718c-5.771,0-10.449,4.678-10.449,10.449
				c0,5.771,4.678,10.449,10.449,10.449h28.212l1.567,1.045c17.706,21.001,43.59,33.372,71.053,33.959
				C356.295,393.904,346.741,400.758,335.935,400.98z M323.918,124.082v62.694H141.061v-62.694H323.918z M362.057,364.408
				c-41.26,0.288-74.941-32.927-75.229-74.188s32.927-74.941,74.188-75.229c41.26-0.288,74.941,32.927,75.229,74.188
				c0.002,0.347,0.002,0.694,0,1.041C436.245,331.193,403.03,364.408,362.057,364.408z M479.608,407.771l-3.135,1.045
				c-1.152,0.171-2.316-0.218-3.135-1.045l-29.257-29.78l5.747-5.747l29.78,29.257C481.256,403.3,481.302,406.016,479.608,407.771z"
				/>
		</g>
	</g>
</g>
<g>
</g>
<g>
</g>
<g>
</g>
<g>
</g>
<g>
</g>
<g>
</g>
<g>
</g>
<g>
</g>
<g>
</g>
<g>
</g>
<g>
</g>
<g>
</g>
<g>
</g>
<g>
</g>
<g>
</g>
</svg>
