<?xml version="1.0" encoding="iso-8859-1"?>
<!-- Generator: Adobe Illustrator 19.0.0, SVG Export Plug-In . SVG Version: 6.00 Build 0)  -->
<svg version="1.1" id="Capa_1" xmlns="http://www.w3.org/2000/svg" xmlns:xlink="http://www.w3.org/1999/xlink" x="0px" y="0px"
	 viewBox="0 0 438.903 438.903" style="enable-background:new 0 0 438.903 438.903;" xml:space="preserve">
<g>
	<g>
		<g>
			<path d="M379.338,135.852h-81.502V40.244c0-22.988-20.376-40.229-43.363-40.229H76.317C54.973-0.58,37.189,16.241,36.594,37.584
				c-0.025,0.887-0.019,1.774,0.017,2.66v358.4c-0.874,21.334,15.712,39.337,37.046,40.211c0.886,0.036,1.773,0.042,2.66,0.017
				h178.678c22.778,0.872,41.951-16.885,42.823-39.663c0.007-0.188,0.013-0.377,0.018-0.565v-85.159h81.502
				c13.584,0,22.988-13.584,22.988-27.167v-123.82C402.325,148.913,392.921,135.852,379.338,135.852z M73.597,20.951
				c0.904-0.082,1.814-0.094,2.72-0.037h178.155c11.494,0,22.465,7.837,22.465,19.331v17.241H57.509V40.244
				C56.624,30.473,63.827,21.836,73.597,20.951z M276.938,398.644c-0.543,11.24-10.094,19.912-21.334,19.369
				c-0.203-0.01-0.406-0.023-0.608-0.039H76.317c-9.791,0.617-18.228-6.82-18.845-16.611c-0.057-0.906-0.045-1.815,0.037-2.72
				v-38.139h219.429V398.644z M276.938,339.607H57.509V78.383h219.429v57.469H168.791c-14.587,0.726-26.404,12.097-27.69,26.645
				v123.82c1.257,14.65,13.019,26.189,27.69,27.167h108.147V339.607z M381.427,286.317c0,2.09,0,6.269-2.09,6.269H168.791
				c-3.206-0.756-5.782-3.134-6.792-6.269v-51.2h219.429V286.317z M381.427,214.219H161.999v-15.673h219.429V214.219z
				 M381.427,162.497v15.151H161.999v-15.151c0-2.612,4.702-5.747,6.792-5.747h210.547
				C381.95,156.75,381.427,160.407,381.427,162.497z"/>
			<path d="M185.509,271.689h51.722c5.771,0,10.449-4.678,10.449-10.449s-4.678-10.449-10.449-10.449h-51.722
				c-5.771,0-10.449,4.678-10.449,10.449S179.738,271.689,185.509,271.689z"/>
		</g>
	</g>
</g>
<g>
</g>
<g>
</g>
<g>
</g>
<g>
</g>
<g>
</g>
<g>
</g>
<g>
</g>
<g>
</g>
<g>
</g>
<g>
</g>
<g>
</g>
<g>
</g>
<g>
</g>
<g>
</g>
<g>
</g>
</svg>
