<?xml version="1.0" encoding="iso-8859-1"?>
<!-- Generator: Adobe Illustrator 19.0.0, SVG Export Plug-In . SVG Version: 6.00 Build 0)  -->
<svg version="1.1" id="Capa_1" xmlns="http://www.w3.org/2000/svg" xmlns:xlink="http://www.w3.org/1999/xlink" x="0px" y="0px"
	 viewBox="0 0 470.206 470.206" style="enable-background:new 0 0 470.206 470.206;" xml:space="preserve">
<g>
	<g>
		<g>
			<path d="M416.377,110.759c-1.716-3.014-4.52-5.257-7.837-6.269l-32.914-28.212V41.796C375.626,18.808,359.43,0,335.92,0H132.687
				c-22.988,0-39.184,18.808-39.184,41.796v36.049l-36.049,29.78c-2.647,1.278-4.703,3.522-5.747,6.269v11.494
				c0.128,21.562,17.65,38.948,39.184,38.946v264.075c0,23.083,18.713,41.796,41.796,41.796h203.755
				c11.23,0.102,22.005-4.434,29.78-12.539c7.802-7.684,11.979-18.317,11.494-29.257V164.566c0.174,0,0.348,0.007,0.522,0.005
				c21.438,0.002,38.898-17.225,39.184-38.661v-4.18c0-0.522,0.522-0.522,0.522-1.045
				C419.057,117.318,418.473,113.62,416.377,110.759z M366.222,94.041l12.016,10.449h-25.6l-9.927-10.449H366.222z M114.401,41.796
				c0-11.494,6.792-20.898,18.286-20.898H335.92c12.016,0,18.808,9.404,18.808,20.898v31.347h-34.482
				c-1.344-0.525-2.836-0.525-4.18,0h-60.082c-1.344-0.525-2.836-0.525-4.18,0h-34.482c-1.344-0.525-2.836-0.525-4.18,0h-53.29
				c-1.344-0.525-2.836-0.525-4.18,0h-41.274V41.796z M281.585,132.18v-6.792h57.469v6.792
				c-0.285,15.665-13.067,28.215-28.735,28.212c-12.849-0.259-24.239-8.335-28.735-20.375
				C281.847,137.411,281.847,134.785,281.585,132.18z M277.928,104.49l-5.747-10.449h41.796l9.927,10.449H277.928z M260.687,125.388
				v6.792c0.09,2.64,0.44,5.265,1.045,7.837c-3.08,11.929-13.802,20.293-26.122,20.375c-15.004,0.011-27.176-12.143-27.187-27.147
				c0-0.355,0.006-0.71,0.02-1.065v-6.792H260.687z M215.234,104.49l5.747-10.449h27.167l5.747,10.449H215.234z M149.405,104.49
				l12.016-10.449h35.527l-5.747,10.449H149.405z M187.544,125.388v6.792c0,15.87-12.865,28.735-28.735,28.735
				c-15.87,0-28.735-12.865-28.735-28.735v-6.792H187.544z M104.475,94.041h25.078l-12.016,10.449H89.324L104.475,94.041z
				 M89.846,142.629c-9.806,0.293-17.993-7.419-18.285-17.225c0-0.005,0-0.01,0-0.015h36.571
				c-0.284,9.806-8.464,17.525-18.27,17.241C89.857,142.629,89.851,142.629,89.846,142.629z M351.593,443.037
				c-3.985,4.067-9.458,6.331-15.151,6.269H132.687c-11.542,0-20.898-9.356-20.898-20.898v-43.886h245.029v44.408
				C357.251,434.174,355.338,439.341,351.593,443.037z M356.818,363.625H111.789V158.292c1.262-0.796,2.485-1.66,3.657-2.602
				c8.601,15.331,24.741,24.895,42.318,25.078c15.075-0.073,29.299-6.993,38.661-18.808c16.514,21.151,47.048,24.91,68.199,8.396
				c2.778-2.169,5.312-4.634,7.556-7.351c9.7,11.249,23.808,17.731,38.661,17.763c17.795,0.117,34.23-9.504,42.841-25.078
				c1.004,0.858,2.054,1.65,3.135,2.39V363.625z M379.434,140.031c-0.05-0.005-0.101-0.01-0.151-0.015
				c-9.404,0-16.718-4.18-18.286-14.629h36.049C396.226,134.295,388.341,140.851,379.434,140.031z"/>
			<path d="M258.075,405.943h-47.02c-5.771,0-10.449,4.678-10.449,10.449s4.678,10.449,10.449,10.449h47.02
				c5.771,0,10.449-4.678,10.449-10.449S263.846,405.943,258.075,405.943z"/>
		</g>
	</g>
</g>
<g>
</g>
<g>
</g>
<g>
</g>
<g>
</g>
<g>
</g>
<g>
</g>
<g>
</g>
<g>
</g>
<g>
</g>
<g>
</g>
<g>
</g>
<g>
</g>
<g>
</g>
<g>
</g>
<g>
</g>
</svg>
