<?xml version="1.0" encoding="iso-8859-1"?>
<!-- Generator: Adobe Illustrator 19.0.0, SVG Export Plug-In . SVG Version: 6.00 Build 0)  -->
<svg version="1.1" id="Capa_1" xmlns="http://www.w3.org/2000/svg" xmlns:xlink="http://www.w3.org/1999/xlink" x="0px" y="0px"
	 viewBox="0 0 472.878 472.878" style="enable-background:new 0 0 472.878 472.878;" xml:space="preserve">
<g>
	<g>
		<g>
			<path d="M416.937,127.538L379.843,74.77c-0.522-0.522,3.135-0.522-2.09-1.045V39.244c0.899-20.755-15.198-38.31-35.954-39.208
				c-1.25-0.054-2.503-0.046-3.752,0.025H134.814C114.058-0.824,96.515,15.285,95.63,36.041c-0.045,1.067-0.045,2.136,0,3.203
				v37.094l-38.139,51.2c-2.468,1.643-4.017,4.354-4.18,7.314h0.522v8.882c0.128,21.562,17.65,38.948,39.184,38.946V431.08
				c0,23.083,18.713,41.796,41.796,41.796h203.755c11.23,0.102,22.005-4.434,29.78-12.539c7.802-7.684,11.979-18.317,11.494-29.257
				V182.907c0.348,0.005,0.696,0.015,1.045,0.01c21.234-0.281,38.38-17.427,38.661-38.661v-8.882v-0.522
				C419.708,132.16,418.765,129.52,416.937,127.538z M131.516,20.958c1.097-0.109,2.201-0.109,3.298,0h203.233
				c9.155-1.203,17.551,5.244,18.753,14.399c0.169,1.289,0.188,2.594,0.055,3.887v28.735H116.528V39.244
				C115.618,30.055,122.328,21.869,131.516,20.958z M108.169,88.876h259.135l22.988,36.571H84.137L108.169,88.876z M341.181,146.346
				v4.18c0,15.87-12.865,28.735-28.735,28.735c-15.87,0-28.735-12.865-28.735-28.735v-4.18H341.181z M262.814,146.346v4.18
				c0,15.673-10.449,28.212-26.122,28.212s-26.122-12.539-26.122-28.212v-4.18H262.814z M189.671,146.346v4.18
				c-0.285,15.665-13.067,28.215-28.735,28.212c-15.668,0.003-28.45-12.547-28.735-28.212v-4.18H189.671z M91.973,163.064
				c-9.617,0.299-17.724-7.113-18.286-16.718h36.571c-0.271,9.518-8.206,17.014-17.724,16.744
				C92.348,163.084,92.16,163.076,91.973,163.064z M353.72,445.709c-3.985,4.067-9.458,6.331-15.151,6.269H134.814
				c-11.542,0-20.898-9.356-20.898-20.898v-49.11h245.029v49.633C359.378,436.847,357.465,442.013,353.72,445.709z M358.945,361.072
				H113.916V176.638c1.262-0.796,2.485-1.66,3.657-2.602c8.601,15.331,24.741,24.895,42.318,25.078
				c15.075-0.073,29.299-6.993,38.661-18.808c16.109,21.099,46.272,25.144,67.371,9.035c3.575-2.729,6.748-5.946,9.429-9.558
				c15.768,21.356,45.862,25.885,67.217,10.118c5.701-4.209,10.4-9.627,13.762-15.865c0.843,0.72,1.715,1.398,2.612,2.035V361.072z
				 M381.41,163.064c-9.504,0.581-17.68-6.653-18.261-16.157c-0.011-0.187-0.02-0.374-0.025-0.562h36.571
				C399.134,155.951,391.027,163.364,381.41,163.064z"/>
			<path d="M235.647,391.384c-15.578,0.289-27.973,13.151-27.685,28.73c0.289,15.578,13.151,27.973,28.73,27.685
				c15.377-0.285,27.692-12.833,27.69-28.212c0-0.173-0.002-0.345-0.005-0.518C264.088,403.49,251.225,391.095,235.647,391.384z
				 M243.483,419.601c-0.004,3.751-3.048,6.789-6.799,6.785c-3.751-0.004-6.789-3.048-6.785-6.799c0-3.751,3.041-6.792,6.792-6.792
				s6.792,3.041,6.792,6.792C243.483,419.591,243.483,419.596,243.483,419.601z"/>
		</g>
	</g>
</g>
<g>
</g>
<g>
</g>
<g>
</g>
<g>
</g>
<g>
</g>
<g>
</g>
<g>
</g>
<g>
</g>
<g>
</g>
<g>
</g>
<g>
</g>
<g>
</g>
<g>
</g>
<g>
</g>
<g>
</g>
</svg>
