<?xml version="1.0" encoding="iso-8859-1"?>
<!-- Generator: Adobe Illustrator 19.0.0, SVG Export Plug-In . SVG Version: 6.00 Build 0)  -->
<svg version="1.1" id="Capa_1" xmlns="http://www.w3.org/2000/svg" xmlns:xlink="http://www.w3.org/1999/xlink" x="0px" y="0px"
	 viewBox="0 0 470.206 470.206" style="enable-background:new 0 0 470.206 470.206;" xml:space="preserve">
<g>
	<g>
		<g>
			<path d="M216.014,320.261h38.661c5.771,0,10.449-4.678,10.449-10.449v-157.78c0-5.771-4.678-10.449-10.449-10.449h-38.661
				c-5.771,0-10.449,4.678-10.449,10.449v157.78C205.566,315.583,210.244,320.261,216.014,320.261z M226.463,162.482h17.763v136.882
				h-17.763V162.482z"/>
			<path d="M284.455,320.261h38.661c0,0,0,0,0,0c5.771,0,10.449-4.678,10.449-10.449V202.188c0-5.771-4.678-10.449-10.449-10.449
				h-38.661c-5.771,0-10.449,4.678-10.449,10.449v107.625C274.006,315.583,278.685,320.261,284.455,320.261z M294.904,212.637
				h17.763v86.727h-17.763V212.637z"/>
			<path d="M147.574,320.261h38.661c0,0,0,0,0,0c5.771,0,10.449-4.678,10.449-10.449v-71.576c0-5.771-4.678-10.449-10.449-10.449
				h-38.661c-5.771,0-10.449,4.678-10.449,10.449v71.576C137.125,315.583,141.803,320.261,147.574,320.261z M158.023,248.686h17.763
				v50.678h-17.763V248.686z"/>
			<path d="M378.496,428.408V41.796C378.496,18.713,359.783,0,336.7,0H133.468c-23.083,0-41.796,18.713-41.796,41.796v386.612
				c0,23.083,18.713,41.796,41.796,41.796h203.755c11.23,0.102,22.005-4.434,29.78-12.539
				C374.804,449.981,378.981,439.348,378.496,428.408z M133.468,20.898H336.7c0.353-0.009,0.706-0.009,1.059,0
				c11.249,0.292,20.132,9.649,19.839,20.898v29.78H112.57v-29.78C112.57,30.254,121.926,20.898,133.468,20.898z M357.598,92.474
				v271.151H112.57V92.474H357.598z M352.374,443.037c-3.985,4.067-9.458,6.331-15.151,6.269H133.468
				c-11.542,0-20.898-9.356-20.898-20.898v-43.886h245.029v44.408C358.032,434.174,356.118,439.341,352.374,443.037z"/>
			<path d="M258.855,405.943h-47.02c-5.771,0-10.449,4.678-10.449,10.449s4.678,10.449,10.449,10.449h47.02
				c5.771,0,10.449-4.678,10.449-10.449S264.626,405.943,258.855,405.943z"/>
		</g>
	</g>
</g>
<g>
</g>
<g>
</g>
<g>
</g>
<g>
</g>
<g>
</g>
<g>
</g>
<g>
</g>
<g>
</g>
<g>
</g>
<g>
</g>
<g>
</g>
<g>
</g>
<g>
</g>
<g>
</g>
<g>
</g>
</svg>
