<?xml version="1.0" encoding="iso-8859-1"?>
<!-- Generator: Adobe Illustrator 19.0.0, SVG Export Plug-In . SVG Version: 6.00 Build 0)  -->
<svg version="1.1" id="Capa_1" xmlns="http://www.w3.org/2000/svg" xmlns:xlink="http://www.w3.org/1999/xlink" x="0px" y="0px"
	 viewBox="0 0 470.206 470.206" style="enable-background:new 0 0 470.206 470.206;" xml:space="preserve">
<g>
	<g>
		<g>
			<path d="M378.496,428.408V41.796C378.496,18.713,359.783,0,336.7,0H133.468c-23.083,0-41.796,18.713-41.796,41.796v386.612
				c0,23.083,18.713,41.796,41.796,41.796h203.755c11.23,0.102,22.005-4.434,29.78-12.539
				C374.804,449.981,378.981,439.348,378.496,428.408z M133.468,20.898H336.7c0.353-0.009,0.706-0.009,1.059,0
				c11.249,0.292,20.132,9.649,19.839,20.898v29.78H112.57v-29.78C112.57,30.254,121.926,20.898,133.468,20.898z M357.598,92.474
				v271.151H112.57V92.474H357.598z M352.374,443.037c-3.985,4.067-9.458,6.331-15.151,6.269H133.468
				c-11.542,0-20.898-9.356-20.898-20.898v-43.886h245.029v44.408C358.032,434.174,356.118,439.341,352.374,443.037z"/>
			<path d="M258.855,405.943h-47.02c-5.771,0-10.449,4.678-10.449,10.449s4.678,10.449,10.449,10.449h47.02
				c5.771,0,10.449-4.678,10.449-10.449S264.626,405.943,258.855,405.943z"/>
			<path d="M174.219,304.588h122.253c17.312,0,31.347-14.035,31.347-31.347v-76.278c0-17.312-14.034-31.347-31.347-31.347H174.219
				c-17.312,0-31.347,14.034-31.347,31.347v76.278C142.872,290.553,156.906,304.588,174.219,304.588z M174.219,186.514h122.253
				l4.702,1.045L234.3,225.698l-64.784-38.139L174.219,186.514z M163.77,208.457l65.306,38.139c3.163,2.113,7.286,2.113,10.449,0
				l67.396-38.139v64.784c0,5.771-4.678,10.449-10.449,10.449H174.219c-5.771,0-10.449-4.678-10.449-10.449V208.457z"/>
		</g>
	</g>
</g>
<g>
</g>
<g>
</g>
<g>
</g>
<g>
</g>
<g>
</g>
<g>
</g>
<g>
</g>
<g>
</g>
<g>
</g>
<g>
</g>
<g>
</g>
<g>
</g>
<g>
</g>
<g>
</g>
<g>
</g>
</svg>
