<?xml version="1.0" encoding="iso-8859-1"?>
<!-- Generator: Adobe Illustrator 19.0.0, SVG Export Plug-In . SVG Version: 6.00 Build 0)  -->
<svg version="1.1" id="Capa_1" xmlns="http://www.w3.org/2000/svg" xmlns:xlink="http://www.w3.org/1999/xlink" x="0px" y="0px"
	 viewBox="0 0 470.206 470.206" style="enable-background:new 0 0 470.206 470.206;" xml:space="preserve">
<g>
	<g>
		<g>
			<path d="M378.496,428.408V41.796C378.496,18.713,359.783,0,336.7,0H133.468c-23.083,0-41.796,18.713-41.796,41.796v386.612
				c0,23.083,18.713,41.796,41.796,41.796h203.755c11.23,0.102,22.005-4.434,29.78-12.539
				C374.804,449.981,378.981,439.348,378.496,428.408z M133.468,20.898H336.7c0.353-0.009,0.706-0.009,1.059,0
				c11.249,0.292,20.132,9.649,19.839,20.898v29.78H112.57v-29.78C112.57,30.254,121.926,20.898,133.468,20.898z M357.598,92.474
				v271.151H112.57V92.474H357.598z M352.374,443.037c-3.985,4.067-9.458,6.331-15.151,6.269H133.468
				c-11.542,0-20.898-9.356-20.898-20.898v-43.886h245.029v44.408C358.032,434.174,356.118,439.341,352.374,443.037z"/>
			<path d="M258.855,405.943h-47.02c-5.771,0-10.449,4.678-10.449,10.449s4.678,10.449,10.449,10.449h47.02
				c5.771,0,10.449-4.678,10.449-10.449S264.626,405.943,258.855,405.943z"/>
			<path d="M148.619,264.359l10.971,40.751c3.289,12.011,14.192,20.348,26.645,20.376c8.77-0.037,17.044-4.078,22.465-10.971
				c5.144-6.878,6.874-15.724,4.702-24.033l-5.747-20.898l85.682,33.959l4.18,1.045c2.103,0.006,4.139-0.735,5.747-2.09
				c3.179-1.577,5.2-4.81,5.224-8.359v-37.094c16.287-2.797,28.196-16.911,28.212-33.437c-0.18-16.571-11.955-30.745-28.212-33.959
				v-34.482c-0.156-3.645-2.115-6.974-5.224-8.882c-3.202-1.421-6.891-1.227-9.927,0.522l-87.249,36.049h-42.841
				c-14.112-0.869-26.256,9.866-27.125,23.978c-0.044,0.714-0.058,1.429-0.042,2.145v31.347
				C135.679,249.999,140.456,259.155,148.619,264.359z M308.488,211.592c4.773,2.011,7.721,6.853,7.314,12.016
				c0.34,5.019-2.624,9.676-7.314,11.494V211.592z M219.672,198.008l67.918-27.69v108.147l-67.918-27.167V198.008z M191.982,301.976
				c-1.422,1.695-3.535,2.656-5.747,2.612c-3.135,0-5.747-3.135-6.792-6.269l-8.359-31.869h14.629l7.314,28.212
				C193.581,297.145,193.209,299.746,191.982,301.976z M156.978,208.98c0-4.18,2.09-5.224,6.269-5.224h35.527v41.796h-35.527
				c-4.18,0-6.269-1.045-6.269-5.224V208.98z"/>
		</g>
	</g>
</g>
<g>
</g>
<g>
</g>
<g>
</g>
<g>
</g>
<g>
</g>
<g>
</g>
<g>
</g>
<g>
</g>
<g>
</g>
<g>
</g>
<g>
</g>
<g>
</g>
<g>
</g>
<g>
</g>
<g>
</g>
</svg>
