<?xml version="1.0" encoding="iso-8859-1"?>
<!-- Generator: Adobe Illustrator 19.0.0, SVG Export Plug-In . SVG Version: 6.00 Build 0)  -->
<svg version="1.1" id="Capa_1" xmlns="http://www.w3.org/2000/svg" xmlns:xlink="http://www.w3.org/1999/xlink" x="0px" y="0px"
	 viewBox="0 0 428.408 428.408" style="enable-background:new 0 0 428.408 428.408;" xml:space="preserve">
<g>
	<g>
		<path d="M340.695,208.921c-0.369-0.002-0.737,0.017-1.103,0.058h-31.347v-10.449h2.612c11.494,0,18.286-10.971,18.286-22.465
			v-29.257c0-11.494-6.792-21.42-18.286-21.42h-2.612V53.29C308.25,24.262,285.022,0.569,256,0h-83.592
			c-29.022,0.569-52.25,24.262-52.245,53.29v72.098h-2.612c-11.494,0-23.51,9.927-23.51,21.42v29.257
			c1.045,12.348,11.127,21.982,23.51,22.465h2.612v10.449H88.816c-5.162-0.577-9.814,3.139-10.391,8.301
			c-0.041,0.366-0.06,0.735-0.058,1.103v99.265c-0.006,29.028,23.223,52.721,52.245,53.29h31.347v45.976
			c-0.025,5.961,4.512,10.952,10.449,11.494H256c5.937-0.542,10.474-5.533,10.449-11.494v-45.976h31.347
			c29.022-0.569,52.25-24.262,52.245-53.29v-99.265C350.073,213.19,345.889,208.954,340.695,208.921z M141.061,53.29
			c-0.009-17.489,13.867-31.828,31.347-32.392H256c17.48,0.564,31.356,14.903,31.347,32.392v72.098H141.061V53.29z M114.939,177.633
			v-31.347h195.918v31.347H114.939z M282.17,308.241c-0.016,0.002-0.031,0.003-0.047,0.004H146.286
			c-3.162-0.274-5.503-3.06-5.229-6.222c0.001-0.016,0.003-0.032,0.004-0.047v-87.771v-15.673h146.286v15.673v87.771
			C287.647,305.135,285.329,307.94,282.17,308.241z M245.551,407.51h-62.694v-36.571h62.694V407.51z M329.143,317.649
			c0.009,17.489-13.867,31.828-31.347,32.392H130.612c-17.48-0.564-31.356-14.903-31.347-32.392v-87.771h20.898v72.098
			c-0.291,14.713,11.4,26.876,26.112,27.167c0.003,0,0.007,0,0.01,0h135.837c14.713-0.286,26.408-12.444,26.123-27.157
			c0-0.003,0-0.007,0-0.01v-72.098h20.898V317.649z"/>
	</g>
</g>
<g>
</g>
<g>
</g>
<g>
</g>
<g>
</g>
<g>
</g>
<g>
</g>
<g>
</g>
<g>
</g>
<g>
</g>
<g>
</g>
<g>
</g>
<g>
</g>
<g>
</g>
<g>
</g>
<g>
</g>
</svg>
