<?xml version="1.0" encoding="iso-8859-1"?>
<!-- Generator: Adobe Illustrator 19.0.0, SVG Export Plug-In . SVG Version: 6.00 Build 0)  -->
<svg version="1.1" id="Capa_1" xmlns="http://www.w3.org/2000/svg" xmlns:xlink="http://www.w3.org/1999/xlink" x="0px" y="0px"
	 viewBox="0 0 491.137 491.137" style="enable-background:new 0 0 491.137 491.137;" xml:space="preserve">
<g>
	<g>
		<g>
			<path d="M182.875,67.933h73.143c5.771,0,10.449-4.678,10.449-10.449c0-5.771-4.678-10.449-10.449-10.449h-73.143
				c-5.771,0-10.449,4.678-10.449,10.449C172.426,63.255,177.104,67.933,182.875,67.933z"/>
			<path d="M359.462,167.199c6.298-0.967,11.078-6.181,11.494-12.539V9.942c-0.552-5.854-5.622-10.232-11.494-9.927H131.675
				c-5.872-0.306-10.942,4.072-11.494,9.927V154.66c0.416,6.358,5.196,11.572,11.494,12.539h25.078v52.245h1.045
				c-11.788,0.763-21.18,10.155-21.943,21.943v26.645c1.033,10.907,9.953,19.38,20.898,19.853v25.6h-25.078
				c-5.747,0-11.494,3.135-11.494,8.882v68.963c0.851,26.713,22.908,47.841,49.633,47.543h28.735v42.318
				c-0.588,4.87,2.883,9.294,7.753,9.882c0.548,0.066,1.1,0.081,1.651,0.045h75.233c4.894,0.324,9.125-3.381,9.449-8.276
				c0.036-0.55,0.021-1.103-0.045-1.651v-42.318h28.735c26.725,0.298,48.781-20.83,49.633-47.543v-68.963
				c0-5.747-5.747-8.882-11.494-8.882H329.16v-26.122h4.18c10.971,0,21.943-8.359,21.943-19.331v-26.645
				c-0.763-11.788-10.155-21.18-21.943-21.943h-4.18v-52.245H359.462z M271.691,470.219h-52.245v-31.347h52.245V470.219z
				 M350.058,334.382v56.947c-0.566,15.282-13.413,27.212-28.695,26.646c-0.013,0-0.026-0.001-0.039-0.001h-151.51
				c-15.281,0.588-28.146-11.324-28.733-26.605c0-0.013-0.001-0.026-0.001-0.039v-56.947h15.673v42.841
				c0,13.584,13.584,25.078,27.167,25.078h123.298c13.584,0,21.943-11.494,21.943-25.078v-42.841H350.058z M307.217,381.403H183.919
				c-2.09,0-6.269-2.09-6.269-4.18v-89.861h130.612v89.861C308.262,379.313,309.307,381.403,307.217,381.403z M334.385,240.342
				v26.122H156.752v-26.122H334.385z M177.65,219.444v-52.245h37.094l22.988,27.167c2.016,2.159,4.888,3.308,7.837,3.135
				c2.987,0.447,5.983-0.751,7.837-3.135l22.988-27.167h31.869v52.245H177.65z M271.691,146.301
				c-2.875-0.385-5.767,0.579-7.837,2.612l-18.286,21.42l-18.286-20.898c-1.854-2.384-4.85-3.582-7.837-3.135h-78.367V20.913h208.98
				v125.388H271.691z"/>
			<path d="M303.038,88.831H182.875c-5.771,0-10.449,4.678-10.449,10.449s4.678,10.449,10.449,10.449h120.163
				c5.771,0,10.449-4.678,10.449-10.449S308.809,88.831,303.038,88.831z"/>
		</g>
	</g>
</g>
<g>
</g>
<g>
</g>
<g>
</g>
<g>
</g>
<g>
</g>
<g>
</g>
<g>
</g>
<g>
</g>
<g>
</g>
<g>
</g>
<g>
</g>
<g>
</g>
<g>
</g>
<g>
</g>
<g>
</g>
</svg>
