<?xml version="1.0" encoding="iso-8859-1"?>
<!-- Generator: Adobe Illustrator 19.0.0, SVG Export Plug-In . SVG Version: 6.00 Build 0)  -->
<svg version="1.1" id="Capa_1" xmlns="http://www.w3.org/2000/svg" xmlns:xlink="http://www.w3.org/1999/xlink" x="0px" y="0px"
	 viewBox="0 0 482.246 482.246" style="enable-background:new 0 0 482.246 482.246;" xml:space="preserve">
<g>
	<g>
		<g>
			<path d="M191.07,201.665c55.688,0,100.833-45.144,100.833-100.833C291.903,45.144,246.759,0,191.07,0
				C135.382,0,90.238,45.144,90.238,100.833C90.238,156.521,135.382,201.665,191.07,201.665z M191.07,20.898
				c44.147,0,79.935,35.788,79.935,79.935c0,44.147-35.788,79.935-79.935,79.935c-44.147,0-79.935-35.788-79.935-79.935
				C111.136,56.686,146.924,20.898,191.07,20.898z"/>
			<path d="M411.977,345.979c-1.51-0.383-3.085-0.423-4.613-0.118h-41.273V285.78c0-5.771-4.678-10.449-10.449-10.449
				s-10.449,4.678-10.449,10.449v70.531c-0.297,5.185,3.666,9.63,8.851,9.927c0.358,0.021,0.717,0.021,1.076,0h51.722
				c5.594,1.418,11.278-1.967,12.696-7.561C420.956,353.082,417.571,347.397,411.977,345.979z"/>
			<path d="M479.031,328.62c-12.585-58.627-64.472-100.454-124.435-100.31c-12.58,0.082-25.079,2.019-37.094,5.747
				c-15.013-10.827-32.081-18.472-50.155-22.465c-2.864-1.04-6.067-0.439-8.359,1.567c-40.583,28.563-94.731,28.563-135.314,0
				c-2.071-2.03-5.145-2.644-7.837-1.567c-0.147,0.034-0.292,0.072-0.439,0.106c-0.654,0.094-1.3,0.25-1.927,0.466
				C47.279,228.55,0.55,287.912,0.377,356.31v15.674c-0.297,5.185,3.666,9.629,8.851,9.927c0.358,0.021,0.717,0.021,1.076,0h220.474
				c14.716,68.554,82.219,112.198,150.773,97.482C450.103,464.677,493.747,397.173,479.031,328.62z M228.164,354.743v6.269H21.275
				v-4.702c0.294-57.441,38.668-107.673,93.942-123.114c22.469,14.86,48.843,22.816,75.854,22.804
				c25.002-0.054,49.441-6.956,70.704-19.857c1.701-1.01,3.39-2.046,5.051-3.131c9.49,2.472,18.622,6.16,27.167,10.971
				C253.473,266.115,228.238,308.573,228.164,354.743z M460.654,355.265c-0.288,58.37-47.687,105.535-106.057,105.535
				c-58.574-0.001-106.057-47.485-106.056-106.058c0.001-58.574,47.485-106.057,106.058-106.056s106.057,47.485,106.056,106.058
				C460.655,354.918,460.655,355.092,460.654,355.265z"/>
		</g>
	</g>
</g>
<g>
</g>
<g>
</g>
<g>
</g>
<g>
</g>
<g>
</g>
<g>
</g>
<g>
</g>
<g>
</g>
<g>
</g>
<g>
</g>
<g>
</g>
<g>
</g>
<g>
</g>
<g>
</g>
<g>
</g>
</svg>
