<?xml version="1.0" encoding="iso-8859-1"?>
<!-- Generator: Adobe Illustrator 19.0.0, SVG Export Plug-In . SVG Version: 6.00 Build 0)  -->
<svg version="1.1" id="Capa_1" xmlns="http://www.w3.org/2000/svg" xmlns:xlink="http://www.w3.org/1999/xlink" x="0px" y="0px"
	 viewBox="0 0 386.641 386.641" style="enable-background:new 0 0 386.641 386.641;" xml:space="preserve">
<g>
	<g>
		<path d="M300.974,26.144c-1.054-0.019-2.109-0.019-3.163,0H88.831C40.652,25.271,0.888,63.619,0.014,111.797
			c-0.019,1.054-0.019,2.109,0,3.163v144.196c0,5.747,2.612,12.539,8.359,12.539H193.32v80.457c0,5.747,4.702,8.359,10.449,8.359
			h52.245c5.747,0,10.449-2.612,10.449-8.359v-80.457h111.804c5.747,0,8.359-6.792,8.359-12.539V114.961
			C387.5,66.782,349.152,27.018,300.974,26.144z M109.729,250.797H67.933V126.454c0-11.542,9.356-20.898,20.898-20.898
			s20.898,9.356,20.898,20.898V250.797z M156.749,250.797h-26.122V126.454c0-23.083-18.713-41.796-41.796-41.796
			s-41.796,18.713-41.796,41.796v124.343H20.912V114.961c0-37.51,30.408-67.918,67.918-67.918c37.51,0,67.918,30.408,67.918,67.918
			V250.797z M245.565,339.614h-31.347v-67.918h31.347V339.614z M365.729,114.961v135.837H177.647V114.961
			c0.539-26.368-11.244-51.481-31.869-67.918H297.81c36.634-0.876,67.042,28.112,67.918,64.746
			C365.754,112.845,365.754,113.903,365.729,114.961z"/>
	</g>
</g>
<g>
</g>
<g>
</g>
<g>
</g>
<g>
</g>
<g>
</g>
<g>
</g>
<g>
</g>
<g>
</g>
<g>
</g>
<g>
</g>
<g>
</g>
<g>
</g>
<g>
</g>
<g>
</g>
<g>
</g>
</svg>
