<?xml version="1.0" encoding="iso-8859-1"?>
<!-- Generator: Adobe Illustrator 19.0.0, SVG Export Plug-In . SVG Version: 6.00 Build 0)  -->
<svg version="1.1" id="Capa_1" xmlns="http://www.w3.org/2000/svg" xmlns:xlink="http://www.w3.org/1999/xlink" x="0px" y="0px"
	 viewBox="0 0 428.408 428.408" style="enable-background:new 0 0 428.408 428.408;" xml:space="preserve">
<g>
	<g>
		<g>
			<path d="M360.49,0H73.143C58.514,0,44.408,9.927,44.408,24.555v365.714c0,21.943,20.375,38.139,42.318,38.139h252.865
				c14.629,0,23.51-9.927,23.51-24.555v-32.914c15.673-2.612,20.898-13.061,20.898-25.6V24.555C384,9.927,375.118,0,360.49,0z
				 M339.592,407.51H86.727c-10.099,0-18.286-8.187-18.286-18.286s8.187-18.286,18.286-18.286h255.478v32.914
				C342.204,406.988,342.727,407.51,339.592,407.51z M360.49,350.041H86.727c-6.792,0-10.971,2.09-21.42,5.224V24.555
				c0-3.135,4.702-3.657,7.837-3.657H360.49c3.135,0,2.612,0.522,2.612,3.657v320.784
				C363.102,348.473,363.624,350.041,360.49,350.041z"/>
			<path d="M111.282,243.984c-0.019,0.358-0.019,0.716,0,1.074c0.297,5.474,4.975,9.672,10.449,9.375h190.171
				c0.358,0.019,0.716,0.019,1.074,0c5.474-0.297,9.672-4.975,9.375-10.449V65.306c0.019-0.358,0.019-0.716,0-1.074
				c-0.297-5.474-4.975-9.672-10.449-9.375H121.731c-0.358-0.019-0.716-0.019-1.074,0c-5.474,0.297-9.672,4.975-9.375,10.449
				V243.984z M132.18,75.755h169.273v157.78H132.18L132.18,75.755z"/>
			<path d="M322.351,286.824H111.282c-5.771,0-10.449,4.678-10.449,10.449s4.678,10.449,10.449,10.449h211.069
				c5.771,0,10.449-4.678,10.449-10.449S328.122,286.824,322.351,286.824z"/>
		</g>
	</g>
</g>
<g>
</g>
<g>
</g>
<g>
</g>
<g>
</g>
<g>
</g>
<g>
</g>
<g>
</g>
<g>
</g>
<g>
</g>
<g>
</g>
<g>
</g>
<g>
</g>
<g>
</g>
<g>
</g>
<g>
</g>
</svg>
