<?xml version="1.0" encoding="iso-8859-1"?>
<!-- Generator: Adobe Illustrator 19.0.0, SVG Export Plug-In . SVG Version: 6.00 Build 0)  -->
<svg version="1.1" id="Capa_1" xmlns="http://www.w3.org/2000/svg" xmlns:xlink="http://www.w3.org/1999/xlink" x="0px" y="0px"
	 viewBox="0 0 470.382 470.382" style="enable-background:new 0 0 470.382 470.382;" xml:space="preserve">
<g>
	<g>
		<g>
			<path d="M203.844,114.983h62.694c5.771,0,10.449-4.678,10.449-10.449s-4.678-10.449-10.449-10.449h-62.694
				c-5.771,0-10.449,4.678-10.449,10.449S198.074,114.983,203.844,114.983z"/>
			<path d="M203.844,188.126h62.694c5.771,0,10.449-4.678,10.449-10.449c0-5.771-4.678-10.449-10.449-10.449h-62.694
				c-5.771,0-10.449,4.678-10.449,10.449C193.396,183.448,198.074,188.126,203.844,188.126z"/>
			<path d="M203.844,261.269h62.694c5.771,0,10.449-4.678,10.449-10.449c0-5.771-4.678-10.449-10.449-10.449h-62.694
				c-5.771,0-10.449,4.678-10.449,10.449C193.396,256.59,198.074,261.269,203.844,261.269z"/>
			<path d="M54.947,152.599h50.155c5.771,0,10.449-4.678,10.449-10.449s-4.678-10.449-10.449-10.449H54.947
				c-5.771,0-10.449,4.678-10.449,10.449S49.176,152.599,54.947,152.599z"/>
			<path d="M54.947,217.383h50.155c5.771,0,10.449-4.678,10.449-10.449s-4.678-10.449-10.449-10.449H54.947
				c-5.771,0-10.449,4.678-10.449,10.449S49.176,217.383,54.947,217.383z"/>
			<path d="M54.947,282.167h50.155c5.771,0,10.449-4.678,10.449-10.449s-4.678-10.449-10.449-10.449H54.947
				c-5.771,0-10.449,4.678-10.449,10.449S49.176,282.167,54.947,282.167z"/>
			<path d="M470.293,435.767V79.979c0-5.747-2.612-12.016-8.359-12.016H329.232V34.526c0-5.747-6.792-8.359-12.539-8.359H153.689
				c-5.747,0-12.539,2.612-12.539,8.359v33.437H8.449c-5.747,0-8.359,6.269-8.359,12.016v355.788
				c-0.626,3.991,2.102,7.733,6.093,8.359c0.751,0.118,1.516,0.118,2.266,0h453.486c3.991,0.626,7.733-2.102,8.359-6.093
				C470.411,437.282,470.411,436.517,470.293,435.767z M141.151,423.228H20.987V88.86h120.163V423.228z M308.334,423.228H162.049
				V47.065h146.286V423.228z M449.396,423.228H329.232V88.86h120.163V423.228z"/>
			<path d="M365.281,152.599h50.155c5.771,0,10.449-4.678,10.449-10.449s-4.678-10.449-10.449-10.449h-50.155
				c-5.771,0-10.449,4.678-10.449,10.449S359.51,152.599,365.281,152.599z"/>
			<path d="M365.281,217.383h50.155c5.771,0,10.449-4.678,10.449-10.449s-4.678-10.449-10.449-10.449h-50.155
				c-5.771,0-10.449,4.678-10.449,10.449S359.51,217.383,365.281,217.383z"/>
			<path d="M365.281,282.167h50.155c5.771,0,10.449-4.678,10.449-10.449s-4.678-10.449-10.449-10.449h-50.155
				c-5.771,0-10.449,4.678-10.449,10.449S359.51,282.167,365.281,282.167z"/>
			<path d="M235.191,317.171c-22.506,0-40.751,18.245-40.751,40.751s18.245,40.751,40.751,40.751s40.751-18.245,40.751-40.751
				S257.698,317.171,235.191,317.171z M235.191,377.775c-10.965,0-19.853-8.889-19.853-19.853s8.889-19.853,19.853-19.853v0h0
				c10.965,0,19.853,8.889,19.853,19.853C255.044,368.886,246.156,377.775,235.191,377.775z"/>
			<path d="M78.457,398.673c22.506,0,40.751-18.245,40.751-40.751c0-22.506-18.245-40.751-40.751-40.751
				c-22.506,0-40.751,18.245-40.751,40.751S55.951,398.673,78.457,398.673z M78.457,338.069L78.457,338.069
				C78.457,338.069,78.457,338.069,78.457,338.069c10.965,0,19.853,8.889,19.853,19.853c0,10.965-8.888,19.853-19.853,19.853
				s-19.853-8.889-19.853-19.853S67.492,338.069,78.457,338.069z"/>
			<path d="M391.926,398.673C391.926,398.673,391.926,398.673,391.926,398.673c22.506,0,40.751-18.245,40.751-40.751
				s-18.245-40.751-40.751-40.751c-22.506,0-40.751,18.245-40.751,40.751S369.42,398.673,391.926,398.673z M391.926,338.069
				L391.926,338.069C391.926,338.069,391.926,338.069,391.926,338.069c10.965,0,19.853,8.889,19.853,19.853
				c0,10.965-8.888,19.853-19.853,19.853c-10.965,0-19.853-8.889-19.853-19.853C372.073,346.957,380.962,338.069,391.926,338.069z"
				/>
		</g>
	</g>
</g>
<g>
</g>
<g>
</g>
<g>
</g>
<g>
</g>
<g>
</g>
<g>
</g>
<g>
</g>
<g>
</g>
<g>
</g>
<g>
</g>
<g>
</g>
<g>
</g>
<g>
</g>
<g>
</g>
<g>
</g>
</svg>
