<?xml version="1.0" encoding="iso-8859-1"?>
<!-- Generator: Adobe Illustrator 19.0.0, SVG Export Plug-In . SVG Version: 6.00 Build 0)  -->
<svg version="1.1" id="Capa_1" xmlns="http://www.w3.org/2000/svg" xmlns:xlink="http://www.w3.org/1999/xlink" x="0px" y="0px"
	 viewBox="0 0 486.922 486.922" style="enable-background:new 0 0 486.922 486.922;" xml:space="preserve">
<g>
	<g>
		<g>
			<path d="M420.049,248.686v-44.408c0.019-0.358,0.019-0.716,0-1.074c-0.297-5.474-4.975-9.672-10.449-9.375H77.322
				c-0.358-0.019-0.716-0.019-1.074,0c-5.474,0.297-9.672,4.975-9.375,10.449v44.408c-0.221,3.069,1.163,6.034,3.657,7.837
				l125.91,108.669v111.282c0.156,3.645,2.115,6.974,5.224,8.882c1.561,1,3.371,1.543,5.224,1.567l4.702-1.045l73.143-36.571
				c3.465-1.875,5.659-5.465,5.747-9.404v-74.71l125.91-108.669C418.886,254.72,420.27,251.755,420.049,248.686z M399.151,243.984
				l-125.91,108.147c-2.353,1.916-3.7,4.803-3.657,7.837v73.665l-52.245,26.122v-99.788c0.043-3.034-1.305-5.921-3.657-7.837
				L87.771,243.984v-29.257h311.38V243.984z"/>
			<path d="M124.865,181.812c24.697-0.282,44.648-20.234,44.931-44.931c0-24.815-20.116-44.931-44.931-44.931
				c-24.815,0-44.931,20.116-44.931,44.931C79.935,161.696,100.051,181.812,124.865,181.812z M124.865,112.849
				c13.273,0,24.033,10.76,24.033,24.033s-10.76,24.033-24.033,24.033c-13.273,0-24.033-10.76-24.033-24.033
				S111.592,112.849,124.865,112.849z"/>
			<path d="M280.033,133.224c0,28.854,23.391,52.245,52.245,52.245s52.245-23.391,52.245-52.245S361.132,80.98,332.278,80.98
				S280.033,104.37,280.033,133.224z M300.935,132.698c0.289-17.021,14.321-30.586,31.343-30.298
				c0.176-0.003,0.351-0.004,0.527-0.004c17.024,0.002,30.823,13.805,30.82,30.829c0,17.312-14.035,31.347-31.347,31.347
				c-17.312,0-31.347-14.035-31.347-31.347C300.931,133.049,300.932,132.873,300.935,132.698z"/>
			<path d="M227.265,126.433c18.926-0.28,34.201-15.555,34.482-34.482c0-19.044-15.438-34.482-34.482-34.482
				s-34.482,15.438-34.482,34.482S208.222,126.433,227.265,126.433z M227.265,78.367c7.502,0,13.584,6.082,13.584,13.584
				s-6.082,13.584-13.584,13.584s-13.584-6.082-13.584-13.584S219.763,78.367,227.265,78.367z"/>
			<polygon points="289.959,68.963 289.959,68.963 289.959,68.963 			"/>
			<path d="M289.959,68.963c19.044,0,34.482-15.438,34.482-34.482C324.441,15.438,309.003,0,289.959,0
				c-19.044,0-34.482,15.438-34.482,34.482C255.758,53.408,271.033,68.683,289.959,68.963z M289.959,20.898
				c7.502,0,13.584,6.082,13.584,13.584c0,7.502-6.082,13.584-13.584,13.584c-7.502,0-13.584-6.082-13.584-13.584
				C276.375,26.98,282.457,20.898,289.959,20.898z"/>
		</g>
	</g>
</g>
<g>
</g>
<g>
</g>
<g>
</g>
<g>
</g>
<g>
</g>
<g>
</g>
<g>
</g>
<g>
</g>
<g>
</g>
<g>
</g>
<g>
</g>
<g>
</g>
<g>
</g>
<g>
</g>
<g>
</g>
</svg>
