<?xml version="1.0" encoding="iso-8859-1"?>
<!-- Generator: Adobe Illustrator 19.0.0, SVG Export Plug-In . SVG Version: 6.00 Build 0)  -->
<svg version="1.1" id="Capa_1" xmlns="http://www.w3.org/2000/svg" xmlns:xlink="http://www.w3.org/1999/xlink" x="0px" y="0px"
	 viewBox="0 0 438.857 438.857" style="enable-background:new 0 0 438.857 438.857;" xml:space="preserve">
<g>
	<g>
		<path d="M438.857,121.731v-13.061c-0.018-4.548-2.976-8.562-7.314-9.927l-13.584-8.359V76.278
			c0.017-21.929-17.746-39.72-39.675-39.737c-0.533,0-1.066,0.01-1.598,0.031H62.171c-21.912-0.866-40.377,16.196-41.243,38.108
			c-0.021,0.533-0.031,1.065-0.031,1.598v15.673L8.359,98.743C3.688,99.486,0.19,103.421,0,108.147v13.061
			c0,15.673,10.449,29.257,20.898,37.616v159.869h-5.747c-5.747,0-9.927,2.612-9.927,8.359v35.527
			C5.207,384.509,22.971,402.3,44.9,402.317c0.533,0,1.066-0.01,1.598-0.031h345.861c21.912,0.866,40.377-16.196,41.243-38.108
			c0.021-0.532,0.031-1.065,0.031-1.598v-35.527c0-5.747-4.18-8.359-9.927-8.359h-5.747V159.347
			C428.408,150.988,438.857,137.404,438.857,121.731z M41.796,76.278C41.76,65.89,50.151,57.44,60.539,57.404
			c0.545-0.002,1.09,0.02,1.633,0.065h314.514c10.949-0.577,20.293,7.831,20.87,18.781c0.019,0.357,0.028,0.715,0.028,1.072
			l-8.882-6.792c-1.634-1.39-3.625-2.295-5.747-2.612H64.784l-4.702,1.567L41.796,79.935V76.278z M64.784,303.02h309.29
			c6.607-1.103,11.706-6.414,12.539-13.061v-123.82c2.522,0.844,5.182,1.198,7.837,1.045h2.612v151.51H287.347
			c-4.008-0.16-7.718,2.107-9.404,5.747l-7.314,15.151h-102.4l-7.314-15.151c-1.686-3.64-5.396-5.907-9.404-5.747H41.796V166.661
			h2.612c2.655,0.154,5.315-0.201,7.837-1.045v124.343C53.077,296.606,58.176,301.917,64.784,303.02z M365.714,282.122H73.143
			V156.735h1.567l1.567-1.567c9.642,19.159,29.23,31.275,50.678,31.347c18.384,0.2,35.646-8.824,45.975-24.033
			c17.796,25.581,52.961,31.892,78.542,14.095c5.673-3.946,10.572-8.901,14.454-14.618c17.569,25.737,52.676,32.359,78.414,14.79
			c8.003-5.463,14.465-12.896,18.762-21.581l1.567,1.567h1.045V282.122z M161.959,120.163v9.404
			c0,20.198-16.374,36.571-36.571,36.571c-20.198,0-36.571-16.374-36.571-36.571v-9.404H161.959z M115.461,99.265l14.629-10.449
			h44.931l-6.792,10.449H115.461z M77.845,99.265H51.722l15.673-10.449h24.033L77.845,99.265z M256,120.163v9.404
			c0,20.198-16.374,36.571-36.571,36.571c-20.198,0-36.571-16.374-36.571-36.571v-9.404H256z M194.351,99.265l6.792-10.449h36.571
			l6.792,10.449H194.351z M270.629,99.265l-6.792-10.449h52.245l12.016,10.449H270.629z M350.041,120.163v9.404
			c0,20.198-16.374,36.571-36.571,36.571c-20.198,0-36.571-16.374-36.571-36.571v-9.404H350.041z M361.535,99.265l-11.494-10.449
			h29.78l13.061,10.449H361.535z M20.898,120.163h47.02v1.567c0,12.984-10.526,23.51-23.51,23.51
			c-12.984,0-23.51-10.526-23.51-23.51V120.163z M412.735,362.58c0.036,10.387-8.355,18.837-18.743,18.873
			c-0.545,0.002-1.09-0.02-1.633-0.065H46.498c-10.351,0.866-19.445-6.824-20.31-17.175c-0.045-0.543-0.067-1.088-0.065-1.633
			v-22.988h119.118l4.702,9.404c3.187,7.197,10.419,11.742,18.286,11.494h102.4c7.867,0.249,15.099-4.297,18.286-11.494l4.702-9.404
			h119.118V362.58z M394.449,145.241c-12.984,0-23.51-10.526-23.51-23.51v-1.567h47.02v1.567
			C417.959,134.715,407.433,145.241,394.449,145.241z"/>
	</g>
</g>
<g>
</g>
<g>
</g>
<g>
</g>
<g>
</g>
<g>
</g>
<g>
</g>
<g>
</g>
<g>
</g>
<g>
</g>
<g>
</g>
<g>
</g>
<g>
</g>
<g>
</g>
<g>
</g>
<g>
</g>
</svg>
