<?xml version="1.0" encoding="iso-8859-1"?>
<!-- Generator: Adobe Illustrator 19.0.0, SVG Export Plug-In . SVG Version: 6.00 Build 0)  -->
<svg version="1.1" id="Capa_1" xmlns="http://www.w3.org/2000/svg" xmlns:xlink="http://www.w3.org/1999/xlink" x="0px" y="0px"
	 viewBox="0 0 458.696 458.696" style="enable-background:new 0 0 458.696 458.696;" xml:space="preserve">
<g>
	<g>
		<path d="M351.601,33.422C351.593,14.967,336.634,0.008,318.179,0c-18.467-0.008-33.443,14.956-33.451,33.422
			c0,5.771,4.678,10.449,10.449,10.449c5.771,0,10.449-4.678,10.449-10.449c0.004-6.919,5.612-12.527,12.531-12.531
			c6.925-0.004,12.542,5.606,12.546,12.531c0,0.511,0.039,1.272,0.111,2.216c-0.065,0.472-0.111,0.951-0.111,1.441v56.425H173.968
			V37.079c0-0.476-0.043-0.942-0.105-1.401c0.069-0.985,0.105-1.757,0.105-2.256C173.96,14.967,159.001,0.008,140.546,0
			c-18.467-0.008-33.443,14.956-33.451,33.422c0,5.771,4.678,10.449,10.449,10.449s10.449-4.678,10.449-10.449
			c0-0.005,0-0.01,0-0.015c0.004-6.925,5.621-12.535,12.546-12.531c6.925,0.004,12.535,5.621,12.531,12.546
			c0,0.499,0.036,1.271,0.105,2.256c-0.062,0.46-0.105,0.925-0.105,1.401v411.167c0,5.771,4.678,10.449,10.449,10.449
			s10.449-4.678,10.449-10.449v-41.273h156.735v41.273c0,5.771,4.678,10.449,10.449,10.449s10.449-4.678,10.449-10.449V37.079
			c0-0.49-0.045-0.969-0.111-1.441C351.562,34.694,351.601,33.933,351.601,33.422z M330.703,114.402v52.245H173.968v-52.245H330.703
			z M173.968,260.687h156.735v52.245H173.968V260.687z M173.968,239.79v-52.245h156.735v52.245H173.968z M173.968,386.075V333.83
			h156.735v52.245H173.968z"/>
	</g>
</g>
<g>
</g>
<g>
</g>
<g>
</g>
<g>
</g>
<g>
</g>
<g>
</g>
<g>
</g>
<g>
</g>
<g>
</g>
<g>
</g>
<g>
</g>
<g>
</g>
<g>
</g>
<g>
</g>
<g>
</g>
</svg>
