<?xml version="1.0" encoding="iso-8859-1"?>
<!-- Generator: Adobe Illustrator 19.0.0, SVG Export Plug-In . SVG Version: 6.00 Build 0)  -->
<svg version="1.1" id="Capa_1" xmlns="http://www.w3.org/2000/svg" xmlns:xlink="http://www.w3.org/1999/xlink" x="0px" y="0px"
	 viewBox="0 0 400.1 400.1" style="enable-background:new 0 0 400.1 400.1;" xml:space="preserve">
<g>
	<g>
		<g>
			<path d="M341.897,28.633c-38.662-38.177-100.832-38.177-139.494,0c-35.518,35.727-38.445,92.465-6.792,131.657h-1.045
				L76.493,278.886l-44.408,44.408c-4.04,3.706-4.31,9.986-0.603,14.025c0.192,0.21,0.394,0.411,0.603,0.603l59.037,59.037
				c1.929,1.969,4.558,3.095,7.314,3.135c2.937,0.104,5.781-1.034,7.837-3.135c3.725-4.165,3.725-10.464,0-14.629L54.55,330.608
				l29.257-29.257l51.722,51.722c4.247,3.503,10.382,3.503,14.629,0c4.047-4.24,4.047-10.911,0-15.151L98.435,286.2l111.282-110.759
				h0.522c17.548,13.885,39.272,21.433,61.649,21.42c54.242,0.62,98.717-42.849,99.337-97.091
				C371.531,73.056,360.941,47.37,341.897,28.633z M327.11,152.611c-0.121,0.122-0.242,0.243-0.364,0.364
				c-30.297,30.095-79.255,29.931-109.35-0.366s-29.931-79.255,0.366-109.35c14.396-14.3,33.836-22.368,54.127-22.464
				c20.555-0.155,40.315,7.937,54.857,22.465C357.042,73.357,357.206,122.314,327.11,152.611z"/>
			<polygon points="271.888,47.441 271.889,47.441 271.889,47.441 			"/>
			<path d="M271.889,47.441c-13.462-0.001-26.394,5.247-36.049,14.629c-19.789,19.959-19.789,52.139,0,72.098
				c9.472,9.72,22.478,15.186,36.049,15.151c13.596,0.158,26.648-5.328,36.049-15.151c19.91-19.671,20.105-51.757,0.434-71.668
				C298.745,52.756,285.585,47.324,271.889,47.441z M293.309,119.539c-5.647,5.733-13.374,8.937-21.42,8.882
				c-7.902,0.097-15.483-3.125-20.898-8.882c-11.831-11.425-12.159-30.278-0.734-42.108c5.662-5.863,13.481-9.149,21.632-9.092
				c7.941-0.027,15.597,2.96,21.42,8.359C304.854,88.645,304.854,107.592,293.309,119.539z"/>
		</g>
	</g>
</g>
<g>
</g>
<g>
</g>
<g>
</g>
<g>
</g>
<g>
</g>
<g>
</g>
<g>
</g>
<g>
</g>
<g>
</g>
<g>
</g>
<g>
</g>
<g>
</g>
<g>
</g>
<g>
</g>
<g>
</g>
</svg>
