<?xml version="1.0" encoding="iso-8859-1"?>
<!-- Generator: Adobe Illustrator 19.0.0, SVG Export Plug-In . SVG Version: 6.00 Build 0)  -->
<svg version="1.1" id="Capa_1" xmlns="http://www.w3.org/2000/svg" xmlns:xlink="http://www.w3.org/1999/xlink" x="0px" y="0px"
	 viewBox="0 0 472.958 472.958" style="enable-background:new 0 0 472.958 472.958;" xml:space="preserve">
<g>
	<g>
		<path d="M398.179,163.758c-1.7-97.5-81.6-168.6-170.9-163.5c-82.2,4.7-152.5,76.7-152.5,163.5c0.9,60.6,34.8,115.8,88.3,144.2
			v13.6h-14.1c-5.8,0-10.4,4.7-10.4,10.4c0,5.7,4.7,10.4,10.4,10.4h14.1v15.7h-14.1c-5.8,0-10.4,4.7-10.4,10.4
			c0,5.7,4.7,10.4,10.4,10.4h14.1v10.4h-14.1c-5.8,0-10.4,4.7-10.4,10.4c0,5.7,4.7,10.4,10.4,10.4h14.1v19.3
			c-0.1,6.1,4.4,11.2,10.4,12h124.9c6.1-0.8,10.8-5.9,11-12v-19.3h14.1c5.8,0,10.4-4.7,10.4-10.4c0-5.7-4.7-10.4-10.4-10.4h-14.1
			v-10.4h14.1c5.8,0,10.4-4.7,10.4-10.4c0-5.7-4.7-10.4-10.4-10.4h-14.1v-15.7h14.1c5.8,0,10.4-4.7,10.4-10.4
			c0-5.7-4.7-10.4-10.4-10.4h-14.1v-13.6C361.579,280.258,398.179,224.358,398.179,163.758z M288.479,420.858h-0.1h-104.4v-10.4
			h104.5V420.858z M288.479,389.458h-0.1h-104.4v-10.4h104.5V389.458z M288.479,358.158h-0.1h-104.4v-15.7h104.5V358.158z
			 M294.179,291.758c-3.6,1.7-5.9,5.4-5.7,9.4v20.4h-104.5v-20.4c0.2-4.2-2.3-8-6.3-9.4c-71-32.2-102.4-115.8-70.2-186.7
			s115.7-102.4,186.7-70.2c71,32.2,102.4,115.8,70.2,186.7C350.279,252.658,325.279,277.658,294.179,291.758z"/>
	</g>
</g>
<g>
	<g>
		<path d="M286.879,452.158h-101.4c-5.8,0-10.4,4.7-10.4,10.4c0,5.7,4.7,10.4,10.4,10.4h101.4c5.8,0,10.4-4.7,10.4-10.4
			C297.279,456.858,292.579,452.158,286.879,452.158z"/>
	</g>
</g>
<g>
	<g>
		<path d="M338.079,186.358v-42.3l-20.4-3.7c-1.7-5.3-3.8-10.3-6.3-15.2l12-17.2l-30.3-29.8l-17.2,12c-4.9-2.7-9.9-4.8-15.2-6.3
			l-3.1-20.4h-42.8l-3.1,20.4c-5.3,1.6-10.4,3.7-15.2,6.3l-17.2-12l-30.3,30.3l12,16.7c-2.6,5.1-4.7,10.3-6.3,15.7l-20.4,3.1v42.8
			l20.4,3.1c1.6,5.3,3.7,10.4,6.3,15.2l-12,17.2l30.3,30.3l16.7-12c5.1,2.6,10.3,4.7,15.7,6.3l3.1,20.4h42.8l3.1-20.2
			c5.3-1.6,10.4-3.7,15.2-6.3l17.2,12l30.3-30.3l-12.5-17.2c2.7-4.9,4.8-9.9,6.3-15.2L338.079,186.358z M316.979,168.458l-17.2,3.1
			l-1,6.8c-1.6,7.6-4.6,14.9-8.9,21.4l-4.2,6.3l10.4,14.1l-5.2,5.2l-14.1-9.9l-5.7,3.7c-6.6,4.2-13.8,7.2-21.4,8.9l-7.3,1.6
			l-2.6,16.7h-7.3l-2.7-16.9l-7.3-1.6c-7.6-1.7-14.8-4.8-21.4-8.9l-5.7-3.7l-14.1,9.9l-5.2-5.2l9.9-14.1l-3.7-5.7
			c-4.2-6.6-7.2-13.8-8.9-21.4l-1.6-7.3l-16.7-2.6v-7.3l16.7-2.6l1.6-7.3c1.7-7.6,4.8-14.8,8.9-21.4l3.7-5.7l-9.9-14.1l5.2-5.2
			l14.1,9.9l5.7-3.7c6.6-4.2,13.8-7.2,21.4-8.9l7.3-1.6l2.6-16.7h7.3l2.6,16.7l7.3,1.6c7.6,1.7,14.8,4.8,21.4,8.9l5.7,3.7l14.1-9.9
			l5.2,5.2l-9.9,13.6l3.7,6.3c4.2,6.6,7.2,13.8,8.9,21.4l1.6,6.8l16.7,3.1V168.458z"/>
	</g>
</g>
<g>
	<g>
		<path d="M236.179,122.458c-23.6,0-42.8,19.2-42.8,42.9c0.2,23.4,19.3,42.3,42.8,42.3s42.6-18.9,42.9-42.4
			C279.079,141.658,259.879,122.458,236.179,122.458z M236.179,187.158c-12.1,0-21.9-9.8-21.9-21.9s9.8-21.9,21.9-21.9
			c12.1,0,21.9,9.9,21.9,21.9C258.079,177.358,248.279,187.158,236.179,187.158z"/>
	</g>
</g>
<g>
</g>
<g>
</g>
<g>
</g>
<g>
</g>
<g>
</g>
<g>
</g>
<g>
</g>
<g>
</g>
<g>
</g>
<g>
</g>
<g>
</g>
<g>
</g>
<g>
</g>
<g>
</g>
<g>
</g>
</svg>
