<?xml version="1.0" encoding="iso-8859-1"?>
<!-- Generator: Adobe Illustrator 19.0.0, SVG Export Plug-In . SVG Version: 6.00 Build 0)  -->
<svg version="1.1" id="Capa_1" xmlns="http://www.w3.org/2000/svg" xmlns:xlink="http://www.w3.org/1999/xlink" x="0px" y="0px"
	 viewBox="0 0 433.633 433.633" style="enable-background:new 0 0 433.633 433.633;" xml:space="preserve">
<g>
	<g>
		<g>
			<path d="M399.753,102.4C378.855,42.841,314.594,0,247.198,0C160.994,0,87.851,68.441,86.284,150.988L26.725,266.971
				c-1.708,3.326-1.508,7.31,0.522,10.449c1.963,2.982,5.312,4.755,8.882,4.702h50.678l1.045,80.98
				c0.231,2.818,1.541,5.439,3.657,7.314c1.861,2.019,4.595,2.996,7.314,2.612l66.873-3.657l4.18,54.857
				c0.539,5.359,5.063,9.431,10.449,9.404l198.531-2.612c0.179,0.009,0.357,0.014,0.536,0.014c5.482-0.008,9.92-4.458,9.913-9.94
				l6.792-135.837c1.045-12.539,2.612-27.69,4.702-43.886C407.068,190.694,413.859,133.747,399.753,102.4z M379.9,238.759
				c-1.567,16.196-3.657,31.869-4.702,45.453l-6.269,126.433l-179.2,2.09l-4.18-55.38c-0.517-5.453-4.976-9.69-10.449-9.927
				l-0.522,0.522l-65.829,3.657l-1.045-79.935c0-5.771-4.678-10.449-10.449-10.449H53.37l52.767-102.922
				c0.597-1.502,0.95-3.089,1.045-4.702c0-71.053,65.306-132.702,140.539-132.702c59.037,0,114.939,37.094,132.702,88.816v1.045
				C392.439,136.359,385.647,193.306,379.9,238.759z"/>
			<path d="M248.766,93.518c5.771,0,10.449-4.678,10.449-10.449V54.335c0-5.771-4.678-10.449-10.449-10.449
				s-10.449,4.678-10.449,10.449v28.735C238.317,88.84,242.995,93.518,248.766,93.518z"/>
			<path d="M169.876,150.988h-28.735c-5.771,0-10.449,4.678-10.449,10.449c-0.019,0.358-0.019,0.716,0,1.074
				c0.297,5.474,4.975,9.672,10.449,9.375h28.735c0.358,0.019,0.716,0.019,1.074,0c5.474-0.297,9.672-4.975,9.375-10.449
				C180.325,155.666,175.647,150.988,169.876,150.988z"/>
			<path d="M356.39,150.988h-28.735c-5.771,0-10.449,4.678-10.449,10.449c-0.019,0.358-0.019,0.716,0,1.074
				c0.297,5.474,4.975,9.672,10.449,9.375h28.735c0.358,0.019,0.716,0.019,1.074,0c5.474-0.297,9.672-4.975,9.375-10.449
				C366.839,155.666,362.161,150.988,356.39,150.988z"/>
			<path d="M193.386,116.506c2.756-0.039,5.385-1.166,7.314-3.135c0.21-0.192,0.411-0.394,0.603-0.603
				c3.706-4.04,3.436-10.319-0.603-14.025l-20.375-20.375c-4.24-4.047-10.911-4.047-15.151,0
				c-3.841,4.204-3.609,10.709,0.522,14.629l20.375,20.376C188.001,115.34,190.63,116.467,193.386,116.506z"/>
			<path d="M304.145,116.506c2.756-0.039,5.385-1.166,7.314-3.135l20.376-20.376c2.786-3.715,2.786-8.824,0-12.539
				c-3.463-4.617-10.012-5.552-14.629-2.09l-20.375,20.375c-0.21,0.192-0.411,0.394-0.603,0.603
				c-3.706,4.04-3.436,10.319,0.603,14.025C298.76,115.34,301.389,116.467,304.145,116.506z"/>
			<path d="M294.219,126.433c-13.206-12.806-31.3-19.282-49.633-17.763c-35.039,1.96-62.265,31.262-61.649,66.351
				c0.266,23.84,13.204,45.736,33.959,57.469v21.943c0,18.755,15.204,33.959,33.959,33.959s33.959-15.204,33.959-33.959V232.49
				c15.674-12.016,31.869-33.959,31.869-57.469C316.224,156.418,308.094,138.833,294.219,126.433z M263.917,254.433
				c0,7.213-5.848,13.061-13.061,13.061c-7.214,0-13.061-5.848-13.061-13.061v-6.269h26.122V254.433z M268.619,216.816
				c-3.454,1.771-5.358,5.579-4.702,9.404v1.045h-26.122v-1.045c-0.425-4.403-3.235-8.216-7.314-9.927
				c-16.308-7.309-26.903-23.405-27.167-41.273c0.196-24.116,18.798-44.079,42.841-45.976h2.612c11.671,0,22.895,4.49,31.347,12.539
				c9.422,8.596,14.9,20.685,15.151,33.437C295.295,192.957,284.893,209.275,268.619,216.816z"/>
		</g>
	</g>
</g>
<g>
</g>
<g>
</g>
<g>
</g>
<g>
</g>
<g>
</g>
<g>
</g>
<g>
</g>
<g>
</g>
<g>
</g>
<g>
</g>
<g>
</g>
<g>
</g>
<g>
</g>
<g>
</g>
<g>
</g>
</svg>
