<?xml version="1.0" encoding="iso-8859-1"?>
<!-- Generator: Adobe Illustrator 19.0.0, SVG Export Plug-In . SVG Version: 6.00 Build 0)  -->
<svg version="1.1" id="Capa_1" xmlns="http://www.w3.org/2000/svg" xmlns:xlink="http://www.w3.org/1999/xlink" x="0px" y="0px"
	 viewBox="0 0 407.51 407.51" style="enable-background:new 0 0 407.51 407.51;" xml:space="preserve">
<g>
	<g>
		<g>
			<path d="M357.355,100.31L270.106,4.18c-1.809-2.549-4.712-4.098-7.837-4.18H91.951C67.454,0.275,47.582,19.916,47.02,44.408
				v318.694c0.562,24.492,20.433,44.133,44.931,44.408h223.608c24.497-0.275,44.369-19.916,44.931-44.408v-256
				C360.231,104.552,359.128,102.161,357.355,100.31z M271.673,40.229l54.335,59.037h-45.453c-3.657,0-8.882-4.18-8.882-7.314
				V40.229z M339.592,363.102c-0.549,12.952-11.072,23.246-24.033,23.51H91.951c-12.961-0.264-23.484-10.558-24.033-23.51V44.408
				c0.549-12.952,11.072-23.246,24.033-23.51h158.824v71.053c0,14.629,14.629,28.212,29.78,28.212h59.037V363.102z"/>
			<path d="M269.584,223.608l-39.184-5.747l-17.241-35.004c-0.991-2.933-3.293-5.235-6.226-6.226
				c-5.194-1.755-10.827,1.032-12.582,6.226l-17.241,35.004l-39.184,5.747c-4.017,0.505-7.325,3.4-8.359,7.314
				c-1.493,3.845-0.453,8.212,2.612,10.971l28.212,26.645l-6.792,39.184c-0.524,3.974,1.06,7.933,4.18,10.449
				c3.263,2.237,7.51,2.44,10.971,0.522l35.004-18.286l35.004,18.286c1.419,0.833,3.064,1.199,4.702,1.045l6.269-1.567
				c3.12-2.516,4.703-6.475,4.18-10.449l-6.792-39.184l28.212-26.645c3.065-2.759,4.105-7.127,2.612-10.971
				C276.909,227.008,273.601,224.113,269.584,223.608z M228.31,257.567c-2.327,2.339-3.478,5.6-3.135,8.882l4.18,24.033
				l-20.898-10.971c-1.373-0.986-3.012-1.532-4.702-1.567c-1.69,0.035-3.329,0.582-4.702,1.567l-20.898,10.971l4.18-24.033
				c0.344-3.281-0.808-6.543-3.135-8.882l-17.241-16.196l23.51-3.657c3.364-0.591,6.262-2.716,7.837-5.747l10.449-20.898
				l10.449,20.898c1.575,3.031,4.472,5.156,7.837,5.747l23.51,3.657L228.31,257.567z"/>
		</g>
	</g>
</g>
<g>
</g>
<g>
</g>
<g>
</g>
<g>
</g>
<g>
</g>
<g>
</g>
<g>
</g>
<g>
</g>
<g>
</g>
<g>
</g>
<g>
</g>
<g>
</g>
<g>
</g>
<g>
</g>
<g>
</g>
</svg>
