<?xml version="1.0" encoding="iso-8859-1"?>
<!-- Generator: Adobe Illustrator 19.0.0, SVG Export Plug-In . SVG Version: 6.00 Build 0)  -->
<svg version="1.1" id="Capa_1" xmlns="http://www.w3.org/2000/svg" xmlns:xlink="http://www.w3.org/1999/xlink" x="0px" y="0px"
	 viewBox="0 0 396.016 396.016" style="enable-background:new 0 0 396.016 396.016;" xml:space="preserve">
<g>
	<g>
		<g>
			<path d="M338.547,264.359l-96.131-69.486l96.131-69.486c2.777-1.848,4.368-5.029,4.18-8.359V10.449
				C342.727,4.678,338.048,0,332.278,0H63.739C57.968,0,53.29,4.678,53.29,10.449v106.58c-0.188,3.331,1.402,6.511,4.18,8.359
				l96.131,69.486l-96.131,69.486c-2.57,2.024-4.102,5.089-4.18,8.359v112.849c0,5.771,4.678,10.449,10.449,10.449h268.539h0
				c5.771,0,10.449-4.678,10.449-10.449V272.718C342.649,269.448,341.117,266.383,338.547,264.359z M321.829,375.118H74.188v-97.176
				l102.922-74.71c1.207-0.773,2.233-1.799,3.006-3.006c2.957-4.617,1.611-10.756-3.006-13.713l-102.922-74.71V20.898h247.641
				v90.906l-102.922,74.71c-1.207,0.773-2.233,1.799-3.006,3.006c-2.957,4.617-1.611,10.756,3.006,13.713l102.922,74.71V375.118z"/>
			<path d="M198.008,181.812c2.267,0.04,4.48-0.698,6.269-2.09l102.4-76.8c2.57-2.024,4.102-5.089,4.18-8.359v-51.2
				c0-5.771-4.678-10.449-10.449-10.449h-204.8c-5.771,0-10.449,4.678-10.449,10.449v51.2c0.077,3.27,1.61,6.335,4.18,8.359
				l102.4,76.8C193.529,181.115,195.741,181.852,198.008,181.812z M106.057,53.812h183.902v35.527l-91.951,68.963l-91.951-68.963
				V53.812z"/>
			<path d="M192.261,207.412l-102.4,71.576c-2.847,2.082-4.581,5.356-4.702,8.882v61.649c0,5.771,4.678,10.449,10.449,10.449h204.8
				c5.771,0,10.449-4.678,10.449-10.449v-61.649c-0.121-3.525-1.855-6.799-4.702-8.882l-102.4-71.576
				C200.37,204.798,195.647,204.798,192.261,207.412z M289.959,339.069H106.057v-45.976l91.951-64.261l91.951,64.261V339.069z"/>
		</g>
	</g>
</g>
<g>
</g>
<g>
</g>
<g>
</g>
<g>
</g>
<g>
</g>
<g>
</g>
<g>
</g>
<g>
</g>
<g>
</g>
<g>
</g>
<g>
</g>
<g>
</g>
<g>
</g>
<g>
</g>
<g>
</g>
</svg>
