<?xml version="1.0" encoding="iso-8859-1"?>
<!-- Generator: Adobe Illustrator 19.0.0, SVG Export Plug-In . SVG Version: 6.00 Build 0)  -->
<svg version="1.1" id="Capa_1" xmlns="http://www.w3.org/2000/svg" xmlns:xlink="http://www.w3.org/1999/xlink" x="0px" y="0px"
	 viewBox="0 0 469.682 469.682" style="enable-background:new 0 0 469.682 469.682;" xml:space="preserve">
<g>
	<g>
		<g>
			<path d="M420.291,387.135V42.318C420.291,19.331,404.095,0,381.108,0H156.455c-22.988,0-44.408,19.331-44.408,42.318v20.376
				H93.761c-22.988,0-44.408,17.763-44.408,40.751v345.339c0.68,6.37,4.644,11.919,10.449,14.629
				c6.009,2.654,13.026,1.416,17.763-3.135l31.869-28.735l38.139,33.959c2.845,2.639,6.569,4.128,10.449,4.18
				c3.861-0.144,7.554-1.621,10.449-4.18l37.616-33.959l37.616,33.959c5.95,5.322,14.948,5.322,20.898,0l38.139-33.959
				l31.347,28.735c3.795,4.671,10.374,5.987,15.673,3.135c5.191-2.98,8.232-8.656,7.837-14.629v-74.188l6.269-4.702l31.869,28.735
				c2.947,2.811,6.901,4.318,10.971,4.18c1.806,0.163,3.62-0.2,5.224-1.045C417.423,399.029,420.723,393.253,420.291,387.135z
				 M336.7,437.29l-24.555-24.033c-5.533-5.656-14.56-5.887-20.376-0.522l-38.139,33.959l-37.094-33.959
				c-6.108-4.89-14.79-4.89-20.898,0l-37.616,33.959l-38.139-33.959c-6.589-5.4-16.134-5.178-22.465,0.522L70.251,437.29V103.445
				c0-11.494,12.016-19.853,23.51-19.853h224.653c11.494,0,18.286,8.359,18.286,19.853V437.29z M399.393,375.641l-26.122-24.033
				c-4.18-4.18-5.224-5.224-15.673-3.657V103.445c1.157-21.321-15.19-39.542-36.51-40.699c-0.89-0.048-1.782-0.066-2.673-0.052
				H132.944V42.318c0-11.494,12.016-21.42,23.51-21.42h224.653c11.494,0,18.286,9.927,18.286,21.42V375.641z"/>
			<path d="M120.406,297.796h87.771c5.771,0,10.449-4.678,10.449-10.449s-4.678-10.449-10.449-10.449h-87.771
				c-5.771,0-10.449,4.678-10.449,10.449S114.635,297.796,120.406,297.796z"/>
			<path d="M291.769,318.694H120.406c-5.771,0-10.449,4.678-10.449,10.449s4.678,10.449,10.449,10.449h171.363
				c5.771,0,10.449-4.678,10.449-10.449S297.54,318.694,291.769,318.694z"/>
			<path d="M291.769,360.49H120.406c-5.771,0-10.449,4.678-10.449,10.449s4.678,10.449,10.449,10.449h171.363
				c5.771,0,10.449-4.678,10.449-10.449S297.54,360.49,291.769,360.49z"/>
			<path d="M147.461,189.195c0.22-0.188,0.432-0.385,0.635-0.591v48.065c0,5.747,6.269,8.882,12.016,8.882h91.429
				c5.747,0,12.016-3.135,12.016-8.882v-48.065c1.787,1.801,4.259,2.751,6.792,2.612c2.756-0.039,5.385-1.166,7.314-3.135
				c3.768-4.514,3.307-11.197-1.045-15.151l-63.739-56.947c-3.819-3.583-9.765-3.583-13.584,0l-64.261,56.947
				c-4.274,3.93-4.947,10.43-1.567,15.151C137.024,192.253,143.289,192.752,147.461,189.195z M169.516,169.273l36.571-31.347
				l36.571,31.347v55.38h-73.143V169.273z"/>
		</g>
	</g>
</g>
<g>
</g>
<g>
</g>
<g>
</g>
<g>
</g>
<g>
</g>
<g>
</g>
<g>
</g>
<g>
</g>
<g>
</g>
<g>
</g>
<g>
</g>
<g>
</g>
<g>
</g>
<g>
</g>
<g>
</g>
</svg>
