<?xml version="1.0" encoding="iso-8859-1"?>
<!-- Generator: Adobe Illustrator 19.0.0, SVG Export Plug-In . SVG Version: 6.00 Build 0)  -->
<svg version="1.1" id="Capa_1" xmlns="http://www.w3.org/2000/svg" xmlns:xlink="http://www.w3.org/1999/xlink" x="0px" y="0px"
	 viewBox="0 0 448.249 448.249" style="enable-background:new 0 0 448.249 448.249;" xml:space="preserve">
<g>
	<g>
		<path d="M283.161,77.31c-18.254,0.094-35.727,7.421-48.588,20.375V70.518c15.094-4.746,25.424-18.66,25.6-34.482
			C260.166,16.127,244.021-0.007,224.112,0c-19.899,0.007-36.029,16.137-36.036,36.036c0.176,15.822,10.506,29.736,25.6,34.482
			v26.645c-13.068-12.576-30.452-19.679-48.588-19.853h-24.555v24.555c-0.29,38.086,30.351,69.196,68.437,69.486
			c0.35,0.003,0.699,0.003,1.049,0h3.657v32.914c-12.681-13.491-30.096-21.543-48.588-22.465h-24.555v27.167
			c0,38.139,30.825,72.098,69.486,72.098h3.657v30.302c-12.946-12.763-30.408-19.898-48.588-19.853h-24.555v24.555
			c0,38.376,31.11,69.486,69.486,69.486h3.657v41.796h-48.588c-5.771,0-10.449,4.678-10.449,10.449
			c0,5.771,4.678,10.449,10.449,10.449h118.074c5.771,0,10.449-4.678,10.449-10.449c0-5.771-4.678-10.449-10.449-10.449h-48.588
			v-41.796h3.657c38.376,0,69.486-31.11,69.486-69.486v-24.555h-24.555c-18.191-0.102-35.674,7.041-48.588,19.853v-30.302h3.657
			c38.661,0,69.486-33.959,69.486-72.098V181.8h-24.555c-18.808,0-36.049,10.449-48.588,22.465v-32.914h3.657
			c38.086,0.29,69.196-30.351,69.486-68.437c0.003-0.35,0.003-0.699,0-1.049V77.31H283.161z M213.675,364.657h-3.657
			c-26.834,0-48.588-21.753-48.588-48.588v-3.657h4.18c12.621-0.144,24.733,4.966,33.437,14.106
			c9.389,9.008,14.676,21.47,14.629,34.482V364.657z M213.675,260.167h-3.657c-26.645,0-48.588-24.555-48.588-51.2v-6.269h4.18
			c12.698,0.484,24.701,5.923,33.437,15.151c9.382,9.655,14.63,22.587,14.629,36.049V260.167z M213.675,150.453h-3.657
			c-26.834,0-48.588-21.753-48.588-48.588v-3.657h4.18c12.572,0.096,24.595,5.168,33.437,14.106
			c9.319,9.271,14.58,21.859,14.629,35.004V150.453z M283.161,312.412h3.657v3.657c0,26.834-21.753,48.588-48.588,48.588h-3.657V361
			C234.573,334.165,256.327,312.412,283.161,312.412z M283.161,202.698h3.657v6.269c0,26.645-21.943,51.2-48.588,51.2h-3.657v-6.269
			C234.573,227.253,256.516,202.698,283.161,202.698z M224.124,51.187c-8.368,0-15.151-6.783-15.151-15.151
			s6.783-15.151,15.151-15.151s15.151,6.783,15.151,15.151S232.492,51.187,224.124,51.187z M286.818,101.865
			c0,26.834-21.753,48.588-48.588,48.588h-3.657v-3.135c-0.002-26.92,21.669-48.824,48.588-49.11h3.657V101.865z"/>
	</g>
</g>
<g>
</g>
<g>
</g>
<g>
</g>
<g>
</g>
<g>
</g>
<g>
</g>
<g>
</g>
<g>
</g>
<g>
</g>
<g>
</g>
<g>
</g>
<g>
</g>
<g>
</g>
<g>
</g>
<g>
</g>
</svg>
