<?xml version="1.0" encoding="iso-8859-1"?>
<!-- Generator: Adobe Illustrator 19.0.0, SVG Export Plug-In . SVG Version: 6.00 Build 0)  -->
<svg version="1.1" id="Capa_1" xmlns="http://www.w3.org/2000/svg" xmlns:xlink="http://www.w3.org/1999/xlink" x="0px" y="0px"
	 viewBox="0 0 458.791 458.791" style="enable-background:new 0 0 458.791 458.791;" xml:space="preserve">
<g>
	<g>
		<g>
			<path d="M256.185,287.428c0.174,0.001,0.349,0.001,0.523,0.001c76.752-0.001,138.971-62.221,138.97-138.972
				c0.001-0.174,0.001-0.348,0.001-0.521C395.68,70.895,333.227,8.441,256.187,8.44c-77.04-0.001-139.494,62.453-139.495,139.493
				C116.691,224.973,179.145,287.427,256.185,287.428z M256.185,29.861c65.499,0,118.596,53.097,118.596,118.596
				s-53.097,118.596-118.596,118.596s-118.596-53.097-118.596-118.596S190.686,29.861,256.185,29.861z"/>
			<path d="M405.605,296.832c1.969-1.929,3.095-4.558,3.135-7.314c0.104-2.937-1.034-5.781-3.135-7.837l-29.78-27.69
				c-0.192-0.21-0.394-0.411-0.603-0.603c-4.04-3.706-10.319-3.436-14.025,0.603c-57.42,57.275-150.398,57.158-207.673-0.261
				s-57.158-150.398,0.261-207.673c0.21-0.192,0.411-0.394,0.603-0.603c3.706-4.04,3.436-10.319-0.603-14.025L125.573,3.216
				c-0.192-0.21-0.394-0.411-0.603-0.603c-4.04-3.706-10.319-3.436-14.025,0.603C84.341,29.782,65.46,63.08,56.318,99.548
				C28.466,210.661,95.962,323.314,207.075,351.167v44.931h-41.796c-5.771,0-10.449,4.678-10.449,10.449v41.796
				c0,5.771,4.678,10.449,10.449,10.449h161.959c5.771,0,10.449-4.678,10.449-10.449v-41.796c0-5.771-4.678-10.449-10.449-10.449
				h-47.02v-39.706C327.637,351.613,371.941,330.568,405.605,296.832z M259.32,346.987v59.559c0,5.771,4.678,10.449,10.449,10.449
				h47.02v20.898H175.728v-20.898h41.796c5.771,0,10.449-4.678,10.449-10.449v-63.739c-0.145-4.848-3.607-8.959-8.359-9.927
				c-35.566-7.505-68.215-25.099-94.041-50.677c-69.965-70.087-73.172-182.563-7.314-256.522l13.584,13.061
				C73.341,105.33,76.54,205.886,139.156,268.62c62.557,62.547,162.94,65.748,229.355,7.314l14.629,13.584
				c-31.474,28.231-71.671,44.826-113.894,47.02c-0.179,0-0.358,0.004-0.536,0.014C263.235,336.84,259.031,341.512,259.32,346.987z"
				/>
		</g>
	</g>
</g>
<g>
</g>
<g>
</g>
<g>
</g>
<g>
</g>
<g>
</g>
<g>
</g>
<g>
</g>
<g>
</g>
<g>
</g>
<g>
</g>
<g>
</g>
<g>
</g>
<g>
</g>
<g>
</g>
<g>
</g>
</svg>
