<?xml version="1.0" encoding="iso-8859-1"?>
<!-- Generator: Adobe Illustrator 19.0.0, SVG Export Plug-In . SVG Version: 6.00 Build 0)  -->
<svg version="1.1" id="Capa_1" xmlns="http://www.w3.org/2000/svg" xmlns:xlink="http://www.w3.org/1999/xlink" x="0px" y="0px"
	 viewBox="0 0 470.204 470.204" style="enable-background:new 0 0 470.204 470.204;" xml:space="preserve">
<g>
	<g>
		<g>
			<path d="M84.558,390.977c18.499-4.786,32.23-21.475,32.471-41.458c0-23.949-19.414-43.363-43.363-43.363
				c-23.949,0-43.363,19.414-43.363,43.363c0.244,20.271,14.373,37.145,33.276,41.65c-33.082,5.329-58.353,34.002-58.353,68.587
				c0,5.771,4.678,10.449,10.449,10.449h118.073c5.771,0,10.449-4.678,10.449-10.449
				C144.196,424.724,118.268,395.761,84.558,390.977z M51.2,349.518c-0.003-12.495,9.974-22.704,22.465-22.988
				c12.491,0.284,22.469,10.493,22.465,22.988c0,12.407-10.058,22.465-22.465,22.465C61.258,371.984,51.2,361.926,51.2,349.518z
				 M27.167,449.306c4.878-22.406,24.613-38.454,47.543-38.661c22.93,0.207,42.665,16.255,47.543,38.661H27.167z"/>
			<path d="M245.642,391.065c18.676-4.664,32.581-21.436,32.823-41.546c0-23.949-19.414-43.363-43.363-43.363
				s-43.363,19.414-43.363,43.363c0.242,20.11,14.147,36.882,32.823,41.546c-33.374,5.079-58.946,33.898-58.946,68.69
				c0,5.771,4.678,10.449,10.449,10.449h118.074c5.771,0,10.449-4.678,10.449-10.449
				C304.588,424.963,279.016,396.143,245.642,391.065z M212.637,349.518c-0.003-12.495,9.974-22.704,22.465-22.988
				c12.491,0.284,22.469,10.493,22.465,22.988c0,12.407-10.058,22.465-22.465,22.465
				C222.695,371.984,212.637,361.926,212.637,349.518z M187.559,449.306c3.97-18.835,18.686-33.55,37.521-37.521
				c26.257-5.535,52.03,11.263,57.565,37.521H187.559z"/>
			<path d="M406.976,391.208c18.989-4.443,33.204-21.357,33.449-41.689c0-0.012,0-0.024,0-0.036
				c-0.01-23.949-19.432-43.355-43.381-43.345c-23.949,0.01-43.355,19.433-43.345,43.381c0.24,19.904,13.865,36.536,32.252,41.397
				c-33.867,4.655-59.954,33.696-59.942,68.84c0,5.771,4.678,10.449,10.449,10.449h118.073c5.771,0,10.449-4.678,10.449-10.449
				c0-0.016,0-0.031,0-0.046C464.968,425.254,439.876,396.681,406.976,391.208z M374.596,349.518
				c-0.003-12.495,9.974-22.704,22.465-22.988c12.491,0.284,22.469,10.493,22.465,22.988c-0.008,12.396-10.055,22.442-22.45,22.45
				C384.669,371.977,374.604,361.926,374.596,349.518z M347.951,449.306c3.971-18.835,18.686-33.55,37.521-37.521
				c26.257-5.535,52.03,11.263,57.565,37.521H347.951z"/>
			<path d="M88.816,250.775h287.347c5.771,0,10.449-4.678,10.449-10.449V47.02c0-5.771-4.678-10.449-10.449-10.449H88.816
				c-5.771,0-10.449,4.678-10.449,10.449v193.306C78.367,246.097,83.046,250.775,88.816,250.775z M181.29,229.878
				c5.885-29.72,34.748-49.041,64.468-43.156c21.799,4.317,38.84,21.358,43.156,43.156H181.29z M208.98,120.163
				c0-14.427,11.695-26.122,26.122-26.122c14.427,0,26.122,11.695,26.122,26.122s-11.695,26.122-26.122,26.122
				C220.675,146.286,208.98,134.59,208.98,120.163z M99.265,57.469h266.449v172.408h-55.902
				c-6.52-34.274-34.778-60.195-69.486-63.739c23.828-2.422,41.919-22.547,41.796-46.498c0-25.969-21.052-47.02-47.02-47.02
				s-47.02,21.052-47.02,47.02c-0.123,23.951,17.968,44.076,41.796,46.498c-34.708,3.544-62.966,29.465-69.486,63.739H99.265V57.469
				z"/>
			<path d="M86.204,287.347H384c23.083,0,41.796-18.713,41.796-41.796V41.796C425.796,18.713,407.083,0,384,0H86.204
				C63.121,0,44.408,18.713,44.408,41.796v203.755C44.408,268.634,63.121,287.347,86.204,287.347z M65.306,41.796
				c0-11.542,9.356-20.898,20.898-20.898H384c11.542,0,20.898,9.356,20.898,20.898v203.755c0.009,0.353,0.009,0.706,0,1.059
				c-0.292,11.249-9.649,20.132-20.898,19.839H86.204c-0.353,0.009-0.706,0.009-1.059,0c-11.249-0.292-20.132-9.649-19.839-20.898
				V41.796z"/>
		</g>
	</g>
</g>
<g>
</g>
<g>
</g>
<g>
</g>
<g>
</g>
<g>
</g>
<g>
</g>
<g>
</g>
<g>
</g>
<g>
</g>
<g>
</g>
<g>
</g>
<g>
</g>
<g>
</g>
<g>
</g>
<g>
</g>
</svg>
