<?xml version="1.0" encoding="iso-8859-1"?>
<!-- Generator: Adobe Illustrator 19.0.0, SVG Export Plug-In . SVG Version: 6.00 Build 0)  -->
<svg version="1.1" id="Capa_1" xmlns="http://www.w3.org/2000/svg" xmlns:xlink="http://www.w3.org/1999/xlink" x="0px" y="0px"
	 viewBox="0 0 480.598 480.598" style="enable-background:new 0 0 480.598 480.598;" xml:space="preserve">
<g>
	<g>
		<g>
			<path d="M240.299,113.659c-70.115,0-126.955,56.84-126.955,126.955s56.84,126.955,126.955,126.955s126.955-56.84,126.955-126.955
				S310.414,113.659,240.299,113.659z M194.324,145.529c-6.416,7.552-11.696,16-15.673,25.078l-9.927-7.837
				C176.361,155.793,184.988,149.983,194.324,145.529z M154.617,178.443c5.177,4.296,10.583,8.308,16.196,12.016
				c-4.159,12.841-6.446,26.213-6.792,39.706h-29.257C136.848,211.51,143.684,193.702,154.617,178.443z M134.764,251.063h29.257
				c0.346,13.493,2.633,26.866,6.792,39.706c-5.613,3.709-11.019,7.72-16.196,12.016
				C143.684,287.527,136.848,269.719,134.764,251.063z M168.724,318.459l9.927-7.837c3.977,9.077,9.257,17.525,15.673,25.078
				C184.988,331.245,176.361,325.436,168.724,318.459z M229.85,340.402c-14.595-10.121-26.155-24.029-33.437-40.229
				c10.666-4.537,21.925-7.528,33.437-8.882V340.402z M229.85,270.394c-13.813,1.383-27.358,4.726-40.229,9.927
				c-2.704-9.535-4.282-19.355-4.702-29.257h44.931V270.394z M229.85,230.166h-44.931c0.42-9.902,1.998-19.722,4.702-29.257
				c12.871,5.201,26.416,8.543,40.229,9.927V230.166z M229.85,189.937c-11.512-1.354-22.771-4.344-33.437-8.882
				c7.282-16.2,18.842-30.108,33.437-40.229V189.937z M345.834,230.166h-29.257c-0.558-13.471-2.841-26.815-6.792-39.706
				c5.666-3.595,10.922-7.8,15.673-12.539C336.704,193.253,343.73,211.268,345.834,230.166z M311.352,162.77
				c-2.903,2.722-6.051,5.17-9.404,7.314c-4.104-8.848-9.376-17.107-15.673-24.555C295.63,149.672,304.134,155.518,311.352,162.77z
				 M250.748,140.827c14.572,10.009,25.99,23.963,32.914,40.229c-10.484,4.537-21.571,7.529-32.914,8.882V140.827z M250.748,210.835
				c13.881-1.313,27.463-4.841,40.229-10.449c2.663,9.722,4.24,19.71,4.702,29.78h-44.931V210.835z M250.748,251.063h44.931
				c-0.462,10.07-2.039,20.057-4.702,29.78c-12.766-5.608-26.347-9.136-40.229-10.449V251.063z M250.748,340.402v-49.11
				c11.343,1.353,22.43,4.344,32.914,8.882C276.738,316.439,265.32,330.394,250.748,340.402z M286.275,335.7
				c6.298-7.448,11.569-15.707,15.673-24.555c3.353,2.144,6.501,4.593,9.404,7.314C304.134,325.711,295.63,331.557,286.275,335.7z
				 M325.458,303.308c-4.751-4.739-10.007-8.944-15.673-12.539c3.951-12.891,6.234-26.235,6.792-39.706h29.257
				C343.73,269.961,336.704,287.976,325.458,303.308z"/>
			<path d="M218.356,48.353c0.792-0.594,1.496-1.298,2.09-2.09l9.404-9.927v38.139c0,5.771,4.678,10.449,10.449,10.449
				s10.449-4.678,10.449-10.449V36.337l9.404,9.927c1.854,2.076,4.532,3.224,7.314,3.135c2.756-0.039,5.385-1.166,7.314-3.135
				c4.04-3.706,4.31-9.986,0.603-14.025c-0.192-0.21-0.394-0.411-0.603-0.603L247.613,3.423c-3.706-4.04-9.986-4.31-14.025-0.603
				c-0.21,0.192-0.411,0.394-0.603,0.603l-27.167,28.212c-4.617,3.463-5.552,10.012-2.09,14.629
				C207.19,50.88,213.74,51.816,218.356,48.353z"/>
			<path d="M262.242,432.876c-0.792,0.594-1.496,1.298-2.09,2.09l-9.404,9.927v-38.139c0-5.771-4.678-10.449-10.449-10.449
				s-10.449,4.678-10.449,10.449v38.139l-9.404-9.927c-3.462-4.617-10.012-5.552-14.629-2.09c-4.617,3.462-5.552,10.012-2.09,14.629
				c0.594,0.792,1.298,1.496,2.09,2.09l27.167,28.212l1.045,1.045h0.522c3.556,2.053,7.938,2.053,11.494,0h0.522l1.045-1.045
				l27.167-28.212c4.617-3.462,5.552-10.012,2.09-14.629C273.408,430.349,266.859,429.413,262.242,432.876z"/>
			<path d="M479.058,235.39h-0.522c-0.522-0.522-0.522-1.045-1.045-1.045l-28.212-28.212c-3.462-4.617-10.012-5.552-14.629-2.09
				c-4.617,3.463-5.552,10.012-2.09,14.629c0.594,0.792,1.298,1.496,2.09,2.09l9.404,9.404h-37.616
				c-5.771,0-10.449,4.678-10.449,10.449s4.678,10.449,10.449,10.449h37.616l-9.404,9.404c-4.04,3.706-4.31,9.986-0.603,14.025
				c0.192,0.21,0.394,0.411,0.603,0.603c3.706,4.04,9.986,4.31,14.025,0.603c0.21-0.192,0.411-0.394,0.603-0.603l28.212-27.167
				c0.522,0,0.522-0.522,1.045-1.045h0.522C481.111,243.328,481.111,238.946,479.058,235.39z"/>
			<path d="M45.948,260.467l-9.404-9.404H74.16c5.771,0,10.449-4.678,10.449-10.449s-4.678-10.449-10.449-10.449H36.544l9.404-9.404
				c4.617-3.462,5.552-10.012,2.09-14.629c-3.462-4.617-10.012-5.552-14.629-2.09c-0.792,0.594-1.496,1.298-2.09,2.09L3.107,233.3
				c-0.522,0-0.522,0.522-1.045,1.045H1.54c-2.053,3.556-2.053,7.938,0,11.494h0.522c0.522,0.522,0.522,1.045,1.045,1.045
				l28.212,28.212c3.706,4.04,9.986,4.31,14.025,0.603c0.21-0.192,0.411-0.394,0.603-0.603c4.04-3.706,4.31-9.986,0.603-14.025
				C46.359,260.861,46.158,260.66,45.948,260.467z"/>
			<path d="M357.85,133.512c2.756-0.039,5.385-1.166,7.314-3.135l26.645-26.645v12.016c-0.297,5.185,3.666,9.629,8.851,9.927
				c0.358,0.021,0.717,0.021,1.076,0h0.522c5.162,0.577,9.814-3.139,10.391-8.301c0.041-0.366,0.06-0.735,0.058-1.103V77.61v-1.567
				c-0.531-2.003-1.617-3.814-3.135-5.224c-1.473-1.928-3.863-2.924-6.269-2.612h-39.706c-5.659-1.13-11.163,2.543-12.292,8.202
				c-1.13,5.659,2.543,11.162,8.202,12.292c1.527,0.305,3.103,0.264,4.613-0.118h13.061l-26.645,26.645
				c-4.047,4.24-4.047,10.911,0,15.151C352.523,132.26,355.117,133.372,357.85,133.512z"/>
			<path d="M115.434,350.851l-26.645,26.645V365.48c0.297-5.185-3.666-9.63-8.851-9.927c-0.358-0.021-0.717-0.021-1.076,0H78.34
				c-5.162-0.577-9.814,3.139-10.391,8.301c-0.041,0.366-0.06,0.735-0.058,1.103v38.661v1.567c0.531,2.003,1.617,3.814,3.135,5.224
				l1.567,1.567h44.931c5.659,1.129,11.163-2.543,12.292-8.202s-2.543-11.162-8.202-12.292c-1.527-0.305-3.103-0.264-4.613,0.118
				h-13.584l26.645-26.645c4.047-4.24,4.047-10.911,0-15.151C125.72,346.099,119.206,346.565,115.434,350.851z"/>
			<path d="M403.362,355.495c-0.369-0.002-0.737,0.017-1.103,0.058h-0.522c-5.185-0.297-9.629,3.666-9.927,8.851
				c-0.021,0.358-0.021,0.717,0,1.076v12.539l-26.645-27.167c-4.617-3.463-11.166-2.527-14.629,2.09
				c-2.786,3.715-2.786,8.824,0,12.539l26.645,26.645h-13.584c-5.658,0.264-10.185,4.791-10.449,10.449
				c-0.008,5.482,4.43,9.933,9.913,9.94c0.179,0,0.358-0.004,0.536-0.014h44.931l1.567-1.567c1.517-1.411,2.604-3.222,3.135-5.224
				v-1.567l-0.522-39.184C412.739,359.764,408.555,355.527,403.362,355.495z"/>
			<path d="M77.237,125.734c0.369,0.002,0.737-0.017,1.103-0.058h0.522c5.185,0.297,9.629-3.666,9.927-8.851
				c0.021-0.358,0.021-0.717,0-1.076V103.21l26.645,27.167c1.929,1.969,4.558,3.095,7.314,3.135c2.782,0.089,5.46-1.059,7.314-3.135
				c4.04-3.706,4.31-9.986,0.603-14.025c-0.192-0.21-0.394-0.411-0.603-0.603l-26.645-26.645h13.584
				c5.658-0.264,10.185-4.791,10.449-10.449c0-5.771-4.678-10.449-10.449-10.449H75.728c-4.008,1.216-7.144,4.352-8.359,8.359v1.567
				l0.522,38.139C67.859,121.465,72.043,125.702,77.237,125.734z"/>
		</g>
	</g>
</g>
<g>
</g>
<g>
</g>
<g>
</g>
<g>
</g>
<g>
</g>
<g>
</g>
<g>
</g>
<g>
</g>
<g>
</g>
<g>
</g>
<g>
</g>
<g>
</g>
<g>
</g>
<g>
</g>
<g>
</g>
</svg>
