<?xml version="1.0" encoding="iso-8859-1"?>
<!-- Generator: Adobe Illustrator 19.0.0, SVG Export Plug-In . SVG Version: 6.00 Build 0)  -->
<svg version="1.1" id="Capa_1" xmlns="http://www.w3.org/2000/svg" xmlns:xlink="http://www.w3.org/1999/xlink" x="0px" y="0px"
	 viewBox="0 0 437.992 437.992" style="enable-background:new 0 0 437.992 437.992;" xml:space="preserve">
<g>
	<g>
		<g>
			<path d="M355.265,85.536V40.606c-0.552-5.854-5.622-10.233-11.494-9.927H11.494c-5.741-0.583-10.868,3.599-11.451,9.34
				C0.023,40.214,0.009,40.41,0,40.606v44.931c0.259,2.705,1.354,5.262,3.135,7.314l127.478,129.045v175.02
				c0.156,3.645,2.115,6.974,5.224,8.882c1.534,1.058,3.362,1.606,5.224,1.567l4.702-1.045l73.143-36.571
				c3.465-1.875,5.659-5.465,5.747-9.404V221.895L352.131,92.851C353.911,90.798,355.007,88.241,355.265,85.536z M206.367,210.402
				c-1.623,2.1-2.538,4.661-2.612,7.314v136.359l-52.245,25.6V217.716c-0.039-2.756-1.166-5.385-3.135-7.314L33.437,93.373h288.392
				L206.367,210.402z M334.367,72.475H20.898V51.577h313.469V72.475z"/>
			<path d="M411.69,207.267c-0.376-0.383-0.756-0.762-1.139-1.139c-35.202-34.573-91.766-34.063-126.339,1.139
				c-0.383,0.376-0.762,0.756-1.139,1.139c-34.573,35.202-34.063,91.766,1.139,126.339c16.746,17.17,39.755,26.789,63.739,26.645
				c23.768-0.09,46.544-9.539,63.396-26.301C446.739,299.886,446.892,242.658,411.69,207.267z M397.061,320.116
				c-26.746,25.137-68.429,25.137-95.175,0c-27.964-26.282-29.328-70.257-3.046-98.22c27.13-27.104,71.09-27.104,98.22,0
				C423.604,249.256,423.604,292.755,397.061,320.116z"/>
			<path d="M388.18,230.255c-3.706-4.04-9.986-4.31-14.025-0.603c-0.21,0.192-0.411,0.394-0.603,0.603l-25.6,26.122l-26.122-26.122
				c-3.706-4.04-9.986-4.31-14.025-0.603c-0.21,0.192-0.411,0.394-0.603,0.603c-4.047,4.24-4.047,10.911,0,15.151l25.6,25.6
				l-25.6,25.6c-4.047,4.24-4.047,10.911,0,15.151c3.706,4.04,9.986,4.31,14.025,0.603c0.21-0.192,0.411-0.394,0.603-0.603
				l26.122-26.122l25.6,26.122c1.929,1.969,4.558,3.095,7.314,3.135c2.782,0.089,5.46-1.059,7.314-3.135
				c4.047-4.24,4.047-10.911,0-15.151l-25.6-25.6l25.6-25.6C392.226,241.166,392.226,234.494,388.18,230.255z"/>
		</g>
	</g>
</g>
<g>
</g>
<g>
</g>
<g>
</g>
<g>
</g>
<g>
</g>
<g>
</g>
<g>
</g>
<g>
</g>
<g>
</g>
<g>
</g>
<g>
</g>
<g>
</g>
<g>
</g>
<g>
</g>
<g>
</g>
</svg>
