<?xml version="1.0" encoding="iso-8859-1"?>
<!-- Generator: Adobe Illustrator 19.0.0, SVG Export Plug-In . SVG Version: 6.00 Build 0)  -->
<svg version="1.1" id="Capa_1" xmlns="http://www.w3.org/2000/svg" xmlns:xlink="http://www.w3.org/1999/xlink" x="0px" y="0px"
	 viewBox="0 0 454.573 454.573" style="enable-background:new 0 0 454.573 454.573;" xml:space="preserve">
<g>
	<g>
		<g>
			<path d="M452.441,156.234l-65.829-47.02V41.817c-0.66-6.728-5.843-12.128-12.539-13.061H85.682
				c-6.695,0.934-11.879,6.333-12.539,13.061v67.396l-68.441,47.02c-2.711,1.968-4.428,5.021-4.702,8.359v248.163
				c0.89,6.811,6.25,12.172,13.061,13.061h433.633c5.747,0,7.837-6.792,7.837-13.061V164.593
				C454.531,161.458,455.053,158.323,452.441,156.234z M386.612,134.291l44.931,31.347l-44.931,34.482V134.291z M94.041,49.654
				h271.673v166.139l-135.837,102.4l-135.837-102.4V49.654z M73.143,134.291v65.829l-44.931-34.482L73.143,134.291z M20.898,187.058
				l144.718,110.237L20.898,394.993V187.058z M49.633,404.919l135.837-92.996l38.139,28.735c1.917,1.061,4.079,1.602,6.269,1.567
				c2.234-0.148,4.393-0.867,6.269-2.09l38.139-28.212l136.359,92.996H49.633z M433.633,394.993l-144.718-97.698l144.718-110.237
				V394.993z"/>
			<path d="M271.673,248.185v-21.42l26.122,6.269v4.18c0,5.771,4.678,10.449,10.449,10.449c5.771,0,10.449-4.678,10.449-10.449
				V96.152c0-5.771-4.678-10.449-10.449-10.449c-5.771,0-10.449,4.678-10.449,10.449v4.18l-123.298,27.69h-13.584
				c-14.136,0.277-25.371,11.96-25.094,26.096c0.004,0.183,0.009,0.366,0.017,0.549v24.033c0,14.629,10.971,27.69,25.078,27.69
				h13.584l18.808,2.612v39.184H271.673z M167.184,183.923h-4.702c-2.981,0.012-5.476-2.256-5.747-5.224v-24.033
				c0-3.135,1.567-5.747,4.18-5.747h6.269V183.923z M250.775,227.287h-36.571v-13.584l36.571,8.359V227.287z M188.082,186.013
				v-38.661l109.714-25.6v89.861L188.082,186.013z"/>
		</g>
	</g>
</g>
<g>
</g>
<g>
</g>
<g>
</g>
<g>
</g>
<g>
</g>
<g>
</g>
<g>
</g>
<g>
</g>
<g>
</g>
<g>
</g>
<g>
</g>
<g>
</g>
<g>
</g>
<g>
</g>
<g>
</g>
</svg>
