<?xml version="1.0" encoding="iso-8859-1"?>
<!-- Generator: Adobe Illustrator 19.0.0, SVG Export Plug-In . SVG Version: 6.00 Build 0)  -->
<svg version="1.1" id="Capa_1" xmlns="http://www.w3.org/2000/svg" xmlns:xlink="http://www.w3.org/1999/xlink" x="0px" y="0px"
	 viewBox="0 0 501.58 501.58" style="enable-background:new 0 0 501.58 501.58;" xml:space="preserve">
<g>
	<g>
		<path d="M497.915,68.99c-2.654-1.662-5.914-2.045-8.882-1.045l-202.188,63.216h-82.025c-12.672-0.066-24.724,5.481-32.914,15.151
			l-10.971,1.045c-23.134,2.646-40.637,22.169-40.751,45.453c0.083,23.395,17.536,43.084,40.751,45.975l8.359,1.045
			c5.333,9.204,13.9,16.094,24.033,19.331v23.51h-4.18c-10.547-0.486-20.225,5.825-24.033,15.673h-39.706v-6.792
			c0.034-4.905-3.915-8.909-8.82-8.943c-0.37-0.003-0.74,0.018-1.107,0.061H9.425c-4.579-0.589-8.768,2.646-9.357,7.225
			c-0.071,0.549-0.086,1.104-0.047,1.656v112.849c-0.326,4.605,3.143,8.603,7.748,8.929c0.552,0.039,1.107,0.023,1.656-0.047
			h106.057c4.871,0.577,9.288-2.904,9.865-7.775c0.044-0.367,0.064-0.737,0.062-1.107v-22.465h39.706
			c3.808,9.848,13.485,16.159,24.033,15.673h4.18v27.69c0,5.747,2.612,8.882,8.359,8.882h63.739c5.747,0,11.494-3.135,11.494-8.882
			v-27.69h2.612c12.692,0.318,23.239-9.712,23.557-22.404c0.018-0.717,0.002-1.435-0.047-2.151v-65.829
			c0.87-12.666-8.693-23.639-21.359-24.508c-0.716-0.049-1.434-0.065-2.151-0.047h-2.612v-20.898h9.927l202.188,62.171h3.135
			c2.103,0.006,4.139-0.735,5.747-2.09c2.435-2.079,3.783-5.16,3.657-8.359V77.35C501.698,74.15,500.351,71.069,497.915,68.99z
			 M161.98,171.39v46.498c-12.077-2.405-20.933-12.773-21.42-25.078c0.128-12.627,9.445-23.274,21.943-25.078
			C162.503,168.778,161.98,170.345,161.98,171.39z M104.511,392.386H20.919V303.57h83.592V392.386z M161.98,361.039h-36.571v-41.796
			h36.571V361.039z M256.021,413.284h-41.796v-15.673h41.796V413.284z M282.144,307.684c0.044,0.369,0.044,0.742,0,1.111v67.918
			c0.307,2.579-1.535,4.918-4.114,5.224c-0.369,0.044-0.742,0.044-1.111,0h-88.816c-2.579,0.307-4.918-1.535-5.224-4.114
			c-0.044-0.369-0.044-0.742,0-1.111v-67.918c-0.307-2.579,1.535-4.918,4.114-5.224c0.369-0.044,0.742-0.044,1.111,0h88.816
			C279.498,303.263,281.837,305.105,282.144,307.684z M214.225,282.672v-20.898h41.796v20.898H214.225z M276.919,240.876h-72.098
			c-11.808-0.262-21.396-9.622-21.943-21.42V171.39c0.543-11.24,10.094-19.912,21.335-19.369c0.203,0.01,0.406,0.023,0.608,0.039
			h72.098V240.876z M423.205,281.627l-125.388-38.661V147.88l125.388-38.661V281.627z M480.674,299.39l-36.571-11.494V102.95
			l36.571-11.494V299.39z"/>
	</g>
</g>
<g>
</g>
<g>
</g>
<g>
</g>
<g>
</g>
<g>
</g>
<g>
</g>
<g>
</g>
<g>
</g>
<g>
</g>
<g>
</g>
<g>
</g>
<g>
</g>
<g>
</g>
<g>
</g>
<g>
</g>
</svg>
