<?xml version="1.0" encoding="iso-8859-1"?>
<!-- Generator: Adobe Illustrator 19.0.0, SVG Export Plug-In . SVG Version: 6.00 Build 0)  -->
<svg version="1.1" id="Capa_1" xmlns="http://www.w3.org/2000/svg" xmlns:xlink="http://www.w3.org/1999/xlink" x="0px" y="0px"
	 viewBox="0 0 458.71 458.71" style="enable-background:new 0 0 458.71 458.71;" xml:space="preserve">
<g>
	<g>
		<g>
			<path d="M229.355,236.147c26.257,0,47.543-21.286,47.543-47.543s-21.286-47.543-47.543-47.543s-47.543,21.286-47.543,47.543
				C182.095,214.743,203.216,235.864,229.355,236.147z M229.355,161.959c14.716,0,26.645,11.929,26.645,26.645
				s-11.929,26.645-26.645,26.645s-26.645-11.929-26.645-26.645S214.64,161.959,229.355,161.959z"/>
			<path d="M330.188,218.906h-12.539c-21.671-0.194-42.026,10.375-54.335,28.212c-8.535-4.56-18.016-7.064-27.69-7.314h-12.539
				c-9.673,0.25-19.155,2.755-27.69,7.314c-12.309-17.837-32.664-28.406-54.335-28.212h-12.539
				c-36.571,0-66.351,27.167-66.351,63.216V307.2c0.265,5.946,5.025,10.707,10.971,10.971h83.069v10.971
				c0.552,5.854,5.622,10.233,11.494,9.927h123.298c5.872,0.306,10.942-4.072,11.494-9.927v-10.971h83.069
				c5.946-0.265,10.707-5.025,10.971-10.971v-25.078C396.539,246.073,366.759,218.906,330.188,218.906z M158.302,297.273H83.069
				v-15.151c0-24.555,20.375-42.318,45.453-42.318h12.539c14.922-0.538,29.094,6.548,37.616,18.808
				C167.542,268.695,160.326,282.388,158.302,297.273z M281.6,318.171H177.11v-10.449c0.266-25.454,20.534-46.183,45.975-47.02
				h12.539c25.442,0.838,45.71,21.566,45.975,47.02V318.171z M375.641,297.273h-75.233c-2.05-14.763-9.049-28.393-19.853-38.661
				c8.42-12.102,22.355-19.168,37.094-18.808h12.539c25.078,0,45.453,17.763,45.453,42.318V297.273z"/>
			<path d="M324.441,214.727c26.546,0,48.065-21.52,48.065-48.065c0-26.546-21.52-48.065-48.065-48.065
				c-26.546,0-48.065,21.52-48.065,48.065C276.375,193.207,297.895,214.727,324.441,214.727z M297.273,166.661
				c-0.003-14.716,11.924-26.647,26.64-26.65c0.176,0,0.352,0.002,0.528,0.005c15.004,0.003,27.165,12.168,27.162,27.172
				c-0.003,15.004-12.168,27.165-27.172,27.162s-27.165-12.168-27.162-27.172C297.268,167.006,297.27,166.834,297.273,166.661z"/>
			<path d="M134.792,214.727c26.544,0.289,48.296-20.996,48.585-47.54c0.289-26.544-20.996-48.296-47.54-48.585
				c-26.544-0.289-48.296,20.996-48.585,47.54c-0.002,0.173-0.003,0.346-0.003,0.52C87.247,193.004,108.45,214.44,134.792,214.727z
				 M108.147,166.661c0-14.716,11.929-26.645,26.645-26.645c0,0,0,0,0,0c15.001-0.286,27.394,11.643,27.68,26.645
				c0.286,15.001-11.643,27.394-26.645,27.68c-15.001,0.286-27.394-11.644-27.68-26.645
				C108.14,167.351,108.14,167.006,108.147,166.661z"/>
			<path d="M229.355,0C102.686,0,0,102.686,0,229.355S102.686,458.71,229.355,458.71S458.71,356.024,458.71,229.355
				C458.423,102.805,355.905,0.287,229.355,0z M239.804,437.812v-39.706c0-5.771-4.678-10.449-10.449-10.449
				s-10.449,4.678-10.449,10.449v39.706c-106.794-5.954-192.054-91.215-198.008-198.008h39.706c5.771,0,10.449-4.678,10.449-10.449
				s-4.678-10.449-10.449-10.449H20.898c5.954-106.794,91.215-192.054,198.008-198.008v39.706c0,5.771,4.678,10.449,10.449,10.449
				s10.449-4.678,10.449-10.449V20.898c106.794,5.954,192.054,91.215,198.008,198.008h-39.706c-5.771,0-10.449,4.678-10.449,10.449
				s4.678,10.449,10.449,10.449h39.706C431.859,346.598,346.598,431.859,239.804,437.812z"/>
		</g>
	</g>
</g>
<g>
</g>
<g>
</g>
<g>
</g>
<g>
</g>
<g>
</g>
<g>
</g>
<g>
</g>
<g>
</g>
<g>
</g>
<g>
</g>
<g>
</g>
<g>
</g>
<g>
</g>
<g>
</g>
<g>
</g>
</svg>
