<?xml version="1.0" encoding="iso-8859-1"?>
<!-- Generator: Adobe Illustrator 19.0.0, SVG Export Plug-In . SVG Version: 6.00 Build 0)  -->
<svg version="1.1" id="Capa_1" xmlns="http://www.w3.org/2000/svg" xmlns:xlink="http://www.w3.org/1999/xlink" x="0px" y="0px"
	 viewBox="0 0 428.358 428.358" style="enable-background:new 0 0 428.358 428.358;" xml:space="preserve">
<g>
	<g>
		<g>
			<path d="M214.153,220.971c26.257,0,47.543-21.286,47.543-47.543s-21.286-47.543-47.543-47.543s-47.543,21.286-47.543,47.543
				C166.893,199.567,188.014,220.688,214.153,220.971z M214.153,146.783c14.716,0,26.645,11.929,26.645,26.645
				s-11.929,26.645-26.645,26.645s-26.645-11.929-26.645-26.645S199.438,146.783,214.153,146.783z"/>
			<path d="M314.986,203.73h-12.539c-21.671-0.194-42.026,10.375-54.335,28.212c-8.535-4.56-18.016-7.064-27.69-7.314h-12.539
				c-9.673,0.25-19.155,2.755-27.69,7.314c-12.309-17.837-32.664-28.406-54.335-28.212h-12.539
				c-36.571,0-66.351,27.167-66.351,63.216v25.078c0.265,5.946,5.025,10.707,10.971,10.971h83.069v10.971
				c0.552,5.854,5.622,10.233,11.494,9.927h123.298c5.872,0.306,10.942-4.072,11.494-9.927v-10.971h83.069
				c5.946-0.265,10.707-5.025,10.971-10.971v-25.078C381.337,230.897,351.557,203.73,314.986,203.73z M143.1,282.097H67.868v-15.151
				c0-24.555,20.375-42.318,45.453-42.318h12.539c14.922-0.538,29.094,6.548,37.616,18.808
				C152.34,253.519,145.124,267.212,143.1,282.097z M266.398,302.995h-104.49v-10.449c0.266-25.454,20.534-46.183,45.975-47.02
				h12.539c25.442,0.838,45.71,21.566,45.975,47.02V302.995z M360.439,282.097h-75.233c-2.05-14.763-9.049-28.393-19.853-38.661
				c8.42-12.102,22.355-19.168,37.094-18.808h12.539c25.078,0,45.453,17.763,45.453,42.318V282.097z"/>
			<path d="M309.239,199.55c26.546,0,48.065-21.52,48.065-48.065c0-26.546-21.52-48.065-48.065-48.065
				c-26.546,0-48.065,21.52-48.065,48.065C261.174,178.031,282.693,199.55,309.239,199.55z M282.072,151.485
				c-0.003-14.716,11.924-26.647,26.64-26.65c0.176,0,0.352,0.002,0.528,0.005c15.004,0.003,27.165,12.168,27.162,27.172
				c-0.003,15.004-12.168,27.165-27.172,27.162s-27.165-12.168-27.162-27.172C282.067,151.83,282.068,151.657,282.072,151.485z"/>
			<path d="M119.59,199.55c26.544,0.289,48.296-20.996,48.585-47.54c0.289-26.544-20.996-48.296-47.54-48.585
				c-26.544-0.289-48.296,20.996-48.585,47.54c-0.002,0.173-0.003,0.346-0.003,0.52C72.046,177.828,93.249,199.264,119.59,199.55z
				 M92.945,151.485c0-14.716,11.929-26.645,26.645-26.645c0,0,0,0,0,0c15.001-0.286,27.394,11.643,27.68,26.645
				c0.286,15.001-11.643,27.394-26.645,27.68c-15.001,0.286-27.394-11.644-27.68-26.645
				C92.939,152.175,92.939,151.83,92.945,151.485z"/>
			<path d="M428.357,214.179c0.086-53.118-19.663-104.355-55.38-143.673l42.318-42.841l-14.629-14.629l-42.841,42.318
				c-81.577-73.772-205.769-73.772-287.347,0L27.639,13.036L13.011,27.665l42.318,42.841c-73.772,81.577-73.772,205.769,0,287.347
				l-42.318,42.841l14.629,14.629l42.841-42.318c81.577,73.772,205.769,73.772,287.347,0l42.841,42.318l14.629-14.629
				l-42.318-42.841C408.694,318.534,428.444,267.297,428.357,214.179z M214.153,407.485c-106.76,0-193.306-86.546-193.306-193.306
				S107.393,20.873,214.153,20.873s193.306,86.546,193.306,193.306S320.913,407.485,214.153,407.485z"/>
		</g>
	</g>
</g>
<g>
</g>
<g>
</g>
<g>
</g>
<g>
</g>
<g>
</g>
<g>
</g>
<g>
</g>
<g>
</g>
<g>
</g>
<g>
</g>
<g>
</g>
<g>
</g>
<g>
</g>
<g>
</g>
<g>
</g>
</svg>
