<?xml version="1.0" encoding="iso-8859-1"?>
<!-- Generator: Adobe Illustrator 19.0.0, SVG Export Plug-In . SVG Version: 6.00 Build 0)  -->
<svg version="1.1" id="Capa_1" xmlns="http://www.w3.org/2000/svg" xmlns:xlink="http://www.w3.org/1999/xlink" x="0px" y="0px"
	 viewBox="0 0 491.102 491.102" style="enable-background:new 0 0 491.102 491.102;" xml:space="preserve">
<g>
	<g>
		<g>
			<path d="M350.041,329.143c55.4,0,100.31-44.91,100.31-100.31s-44.91-100.31-100.31-100.31s-100.31,44.91-100.31,100.31
				C249.731,284.232,294.641,329.143,350.041,329.143z M350.041,149.42c43.858,0,79.412,35.554,79.412,79.412
				s-35.554,79.412-79.412,79.412c-43.858,0-79.412-35.554-79.412-79.412S306.183,149.42,350.041,149.42z"/>
			<path d="M350.041,337.502c-77.906,0-141.061,63.155-141.061,141.061c0,5.771,4.678,10.449,10.449,10.449h261.224
				c5.771,0,10.449-4.678,10.449-10.449C491.102,400.657,427.947,337.502,350.041,337.502z M230.4,468.114
				c5.381-57.518,50.93-103.067,108.448-108.448c66.076-6.182,124.652,42.372,130.834,108.448H230.4z"/>
			<path d="M29.257,281.078c0,35.779,29.005,64.784,64.784,64.784c35.661-0.284,64.5-29.123,64.784-64.784
				c0-35.779-29.005-64.784-64.784-64.784S29.257,245.298,29.257,281.078z M137.927,281.078c0,24.237-19.648,43.886-43.886,43.886
				s-43.886-19.648-43.886-43.886c0-24.237,19.648-43.886,43.886-43.886C118.16,237.474,137.644,256.958,137.927,281.078z"/>
			<path d="M94.563,353.698c-49.34,0-89.339,39.998-89.339,89.339c0,5.771,4.678,10.449,10.449,10.449h157.78
				c5.771,0,10.449-4.678,10.449-10.449C183.902,393.696,143.904,353.698,94.563,353.698z M27.167,432.588
				c3.848-30.844,28.144-55.14,58.988-58.988c37.222-4.644,71.16,21.766,75.804,58.988H27.167z"/>
			<path d="M10.449,234.057c2.756-0.039,5.385-1.166,7.314-3.135l44.931-44.931h171.363c5.771,0,10.449-4.678,10.449-10.449V12.539
				c0-5.771-4.678-10.449-10.449-10.449H10.449C4.678,2.09,0,6.768,0,12.539v211.069c0.068,4.092,2.518,7.768,6.269,9.404
				C7.495,233.843,8.976,234.214,10.449,234.057z M20.898,22.988h202.71v142.106H58.514c-2.756,0.039-5.385,1.166-7.314,3.135
				l-30.302,30.302V22.988z"/>
		</g>
	</g>
</g>
<g>
</g>
<g>
</g>
<g>
</g>
<g>
</g>
<g>
</g>
<g>
</g>
<g>
</g>
<g>
</g>
<g>
</g>
<g>
</g>
<g>
</g>
<g>
</g>
<g>
</g>
<g>
</g>
<g>
</g>
</svg>
