<?xml version="1.0" encoding="iso-8859-1"?>
<!-- Generator: Adobe Illustrator 19.0.0, SVG Export Plug-In . SVG Version: 6.00 Build 0)  -->
<svg version="1.1" id="Capa_1" xmlns="http://www.w3.org/2000/svg" xmlns:xlink="http://www.w3.org/1999/xlink" x="0px" y="0px"
	 viewBox="0 0 501.611 501.611" style="enable-background:new 0 0 501.611 501.611;" xml:space="preserve">
<g>
	<g>
		<g>
			<path d="M190.201,303.603c0,33.471,27.133,60.604,60.604,60.604c33.471,0,60.604-27.133,60.604-60.604
				c0-33.471-27.133-60.604-60.604-60.604S190.201,270.132,190.201,303.603z M290.511,303.603c0,21.929-17.777,39.706-39.706,39.706
				s-39.706-17.777-39.706-39.706c0-21.929,17.777-39.706,39.706-39.706S290.511,281.673,290.511,303.603z"/>
			<path d="M387.693,344.883c-0.35-0.004-0.701-0.007-1.051-0.007h-17.241c-29.278,0.376-56.309,15.766-71.576,40.751
				c-11.8-6.572-25.161-9.822-38.661-9.404h-16.718c-13.5-0.418-26.861,2.832-38.661,9.404
				c-15.266-24.985-42.298-40.375-71.576-40.751h-17.241c-46.167-0.004-83.595,37.419-83.598,83.585
				c0,0.351,0.002,0.701,0.007,1.051v33.437c0,5.747,3.657,12.539,9.404,12.539h115.984v17.241c0,5.747,5.224,8.882,10.971,8.882
				h166.139c5.747,0,10.971-3.135,10.971-8.882v-17.241H460.83c5.747,0,9.404-6.792,9.404-12.539v-33.437
				C470.811,383.35,433.856,345.46,387.693,344.883z M158.332,454.59H52.275v-25.078c-0.577-34.62,27.02-63.153,61.64-63.73
				c0.351-0.006,0.702-0.009,1.054-0.009h17.241c22.592,0.33,43.38,12.407,54.857,31.869
				C170.245,412.009,159.893,432.525,158.332,454.59z M323.948,480.713H177.662v-16.718c-0.018-36.132,28.669-65.744,64.784-66.873
				h16.718c36.115,1.129,64.801,30.741,64.784,66.873V480.713z M449.336,429.513v25.078H343.279
				c-1.561-22.066-11.913-42.582-28.735-56.947c11.477-19.463,32.265-31.539,54.857-31.869h17.241
				c34.625-0.005,62.698,28.06,62.703,62.685C449.345,428.81,449.342,429.162,449.336,429.513z"/>
			<path d="M378.283,213.741c-33.471,0-60.604,27.133-60.604,60.604s27.133,60.604,60.604,60.604s60.604-27.133,60.604-60.604
				S411.754,213.741,378.283,213.741z M378.283,314.052c-21.929,0-39.706-17.777-39.706-39.706
				c0-21.929,17.777-39.706,39.706-39.706s39.706,17.777,39.706,39.706S400.212,314.052,378.283,314.052z"/>
			<path d="M123.85,334.949c33.471,0,60.604-27.133,60.604-60.604s-27.133-60.604-60.604-60.604
				c-33.471,0-60.604,27.133-60.604,60.604S90.38,334.949,123.85,334.949z M123.85,234.639c21.929,0,39.706,17.777,39.706,39.706
				s-17.777,39.706-39.706,39.706c-21.929,0-39.706-17.777-39.706-39.706S101.921,234.639,123.85,234.639z"/>
			<path d="M83.622,177.692h41.796v18.808c-0.052,3.703,1.962,7.128,5.224,8.882c1.373,0.986,3.012,1.532,4.702,1.567
				c2.075-0.138,4.068-0.863,5.747-2.09l38.661-27.167h93.518c5.187-0.256,9.185-4.668,8.93-9.856
				c-0.01-0.198-0.026-0.396-0.048-0.593v-31.347h51.722l48.065,50.678c2.001,2.241,4.834,3.562,7.837,3.657h4.702
				c4.367-1.116,7.526-4.907,7.837-9.404v-44.931h15.673c5.747,0,10.449-2.09,10.449-8.359V8.941
				c-0.256-5.187-4.668-9.185-9.856-8.93c-0.198,0.01-0.396,0.026-0.593,0.048H179.752c-5.747,0-12.539,3.135-12.539,8.882v12.016
				H83.622c-5.747,0-10.449,2.612-10.449,8.359v137.927C73.173,173.014,77.851,177.692,83.622,177.692z M188.111,20.958H407.54
				v94.041h-17.763c-5.747,0-8.359,6.792-8.359,12.539v27.167l-34.482-35.527c-2.365-2.412-5.516-3.895-8.882-4.18H188.111V20.958z
				 M94.071,41.856h73.143v85.682c0,6.269,6.792,8.359,12.539,8.359h81.502v20.898h-84.637c-2.103-0.006-4.139,0.735-5.747,2.09
				l-24.555,17.241v-8.882c-0.279-5.854-5.11-10.456-10.971-10.449H94.071V41.856z"/>
		</g>
	</g>
</g>
<g>
</g>
<g>
</g>
<g>
</g>
<g>
</g>
<g>
</g>
<g>
</g>
<g>
</g>
<g>
</g>
<g>
</g>
<g>
</g>
<g>
</g>
<g>
</g>
<g>
</g>
<g>
</g>
<g>
</g>
</svg>
