<?xml version="1.0" encoding="iso-8859-1"?>
<!-- Generator: Adobe Illustrator 19.0.0, SVG Export Plug-In . SVG Version: 6.00 Build 0)  -->
<svg version="1.1" id="Capa_1" xmlns="http://www.w3.org/2000/svg" xmlns:xlink="http://www.w3.org/1999/xlink" x="0px" y="0px"
	 viewBox="0 0 490.803 490.803" style="enable-background:new 0 0 490.803 490.803;" xml:space="preserve">
<g>
	<g>
		<path d="M370.702,89.533c-5.8,0-10.4,4.7-10.4,10.4v10.4l-10.4,3.1v-39.1c0-5.7-6.3-7.8-12-7.8h-257c-5.2-0.6-9.8,3.1-10.4,8.3
			c0,0.2,0,0.4,0,0.6l-2.1,252.3h-58c-5.9,0.3-10.5,5.1-10.4,11v17.2c0,36.6,31.3,66.9,67.9,68.4h213.2c37.9,0,68.7-30.6,69-68.4
			v-65.8l10.4,3.1v9.9c0,5.8,4.7,10.4,10.4,10.4c5.8,0,10.4-4.7,10.4-10.4v-203.2C381.102,94.133,376.502,89.533,370.702,89.533z
			 M68.202,400.833c-26.1,0-47.6-18.8-47.6-44.9v-7.3h188.1v7.3c0.6,17.4,8.6,33.8,21.9,44.9H68.202z M279.302,403.433
			c-26.1,0-49.6-21.4-49.6-47.5v-17.2c0-5.7-2.1-11-8.4-11h-132.2l2.1-240.3h237.7v30.8l-148.9,31.9h-43.9c-5.8-0.3-10.7,4.1-11,9.9
			v83.1c0.2,6,4.9,11,11,11.5h43.9l23.5,4.7v46c0.9,6.4,6.1,11.4,12.5,12h86.7c6-0.8,10.5-5.9,10.4-12v-23l15.7,3.1v70.5h0.1
			C328.902,382.033,305.402,403.433,279.302,403.433z M172.202,171.033v62.7h-26.1v-62.7H172.202z M224.402,296.433v-32.4l67.9,14.1
			v18.3H224.402z M360.302,271.733l-167.2-37v-66.4l167.2-36.6V271.733z"/>
	</g>
</g>
<g>
	<g>
		<path d="M480.402,186.633h-62.7c-5.8,0-10.4,4.7-10.4,10.4c0,5.8,4.7,10.4,10.4,10.4h62.7c5.8,0,10.4-4.7,10.4-10.4
			C490.902,191.333,486.202,186.633,480.402,186.633z"/>
	</g>
</g>
<g>
	<g>
		<path d="M477.202,124.533c-2.3-5.3-8.5-7.7-13.8-5.4c-0.1,0.1-0.2,0.1-0.3,0.2l-51.7,23.5c-5.2,2.5-7.3,8.8-4.8,14
			c0,0,0,0.1,0.1,0.1c1.7,3.7,5.3,6.2,9.4,6.2l4.2-1l51.7-24C477.102,135.733,479.402,129.733,477.202,124.533z"/>
	</g>
</g>
<g>
	<g>
		<path d="M472.002,246.233l-51.7-23.5c-4.9-2.5-10.9-0.6-13.4,4.3c-0.1,0.1-0.1,0.3-0.2,0.4c-2.6,5.1-0.6,11.4,4.6,14
			c0,0,0.1,0,0.1,0.1l51.7,23.5c1.4,0.8,3.1,1.2,4.7,1c3.9-0.1,7.5-2.3,9.4-5.7C479.502,255.033,477.202,248.833,472.002,246.233z"
			/>
	</g>
</g>
<g>
</g>
<g>
</g>
<g>
</g>
<g>
</g>
<g>
</g>
<g>
</g>
<g>
</g>
<g>
</g>
<g>
</g>
<g>
</g>
<g>
</g>
<g>
</g>
<g>
</g>
<g>
</g>
<g>
</g>
</svg>
