<?xml version="1.0" encoding="iso-8859-1"?>
<!-- Generator: Adobe Illustrator 19.0.0, SVG Export Plug-In . SVG Version: 6.00 Build 0)  -->
<svg version="1.1" id="Capa_1" xmlns="http://www.w3.org/2000/svg" xmlns:xlink="http://www.w3.org/1999/xlink" x="0px" y="0px"
	 viewBox="0 0 411.69 411.69" style="enable-background:new 0 0 411.69 411.69;" xml:space="preserve">
<g>
	<g>
		<g>
			<path d="M369.894,32.653H41.796C18.713,32.653,0,51.366,0,74.449v188.082c0,23.083,18.713,41.796,41.796,41.796h101.355v53.812
				h-21.42c-5.771,0-10.449,4.678-10.449,10.449s4.678,10.449,10.449,10.449h168.229c5.771,0,10.449-4.678,10.449-10.449
				s-4.678-10.449-10.449-10.449h-21.42v-53.812h101.355c23.083,0,41.796-18.713,41.796-41.796V74.449
				C411.69,51.366,392.977,32.653,369.894,32.653z M247.641,358.139h-83.592v-53.812h83.592V358.139z M390.792,262.531
				c0,11.542-9.356,20.898-20.898,20.898H41.796c-11.542,0-20.898-9.356-20.898-20.898V74.449c0-11.542,9.356-20.898,20.898-20.898
				h328.098c11.542,0,20.898,9.356,20.898,20.898V262.531z"/>
			<path d="M225.176,81.763h-38.661c-5.771,0-10.449,4.678-10.449,10.449v157.78c0,5.771,4.678,10.449,10.449,10.449h38.661
				c5.771,0,10.449-4.678,10.449-10.449V92.212C235.624,86.441,230.946,81.763,225.176,81.763z M214.727,239.543h-17.763V102.661
				h17.763V239.543z"/>
			<path d="M293.616,131.918h-38.661c-5.771,0-10.449,4.678-10.449,10.449v107.625c0,5.771,4.678,10.449,10.449,10.449h38.661
				c5.771,0,10.449-4.678,10.449-10.449V142.367C304.065,136.597,299.387,131.918,293.616,131.918z M283.167,239.543h-17.763
				v-86.727h17.763V239.543z"/>
			<path d="M156.735,167.967h-38.661c-5.771,0-10.449,4.678-10.449,10.449v71.576c0,5.771,4.678,10.449,10.449,10.449h38.661h0
				c5.771,0,10.449-4.678,10.449-10.449v-71.576C167.184,172.645,162.505,167.967,156.735,167.967z M146.286,239.543h-17.763
				v-50.678h17.763V239.543z"/>
		</g>
	</g>
</g>
<g>
</g>
<g>
</g>
<g>
</g>
<g>
</g>
<g>
</g>
<g>
</g>
<g>
</g>
<g>
</g>
<g>
</g>
<g>
</g>
<g>
</g>
<g>
</g>
<g>
</g>
<g>
</g>
<g>
</g>
</svg>
