<?xml version="1.0" encoding="iso-8859-1"?>
<!-- Generator: Adobe Illustrator 19.0.0, SVG Export Plug-In . SVG Version: 6.00 Build 0)  -->
<svg version="1.1" id="Capa_1" xmlns="http://www.w3.org/2000/svg" xmlns:xlink="http://www.w3.org/1999/xlink" x="0px" y="0px"
	 viewBox="0 0 411.69 411.69" style="enable-background:new 0 0 411.69 411.69;" xml:space="preserve">
<g>
	<g>
		<g>
			<path d="M369.894,29.518H41.796C18.713,29.518,0,48.231,0,71.314v187.559c0,23.083,18.713,41.796,41.796,41.796h101.355v60.604
				h-21.42c-5.771,0-10.449,4.678-10.449,10.449s4.678,10.449,10.449,10.449h168.229c5.771,0,10.449-4.678,10.449-10.449
				s-4.678-10.449-10.449-10.449h-21.42v-60.604h101.355c23.083,0,41.796-18.713,41.796-41.796V71.314
				C411.69,48.231,392.977,29.518,369.894,29.518z M247.641,361.273h-83.592v-60.604h83.592V361.273z M390.792,258.874
				c0.009,0.353,0.009,0.706,0,1.059c-0.292,11.249-9.649,20.132-20.898,19.839H41.796c-0.353,0.009-0.706,0.009-1.059,0
				c-11.249-0.292-20.132-9.649-19.839-20.898V71.314c0-11.542,9.356-20.898,20.898-20.898h328.098
				c11.542,0,20.898,9.356,20.898,20.898V258.874z"/>
			<path d="M266.971,95.347H144.718c-17.312,0-31.347,14.034-31.347,31.347v76.8c0,17.312,14.034,31.347,31.347,31.347h122.253
				c17.312,0,31.347-14.034,31.347-31.347v-76.8C298.318,109.381,284.284,95.347,266.971,95.347z M144.718,116.245h122.253
				l4.702,1.045L204.8,155.951l-64.784-38.661L144.718,116.245z M277.42,203.494c0,5.771-4.678,10.449-10.449,10.449H144.718
				c-5.771,0-10.449-4.678-10.449-10.449v-65.306l65.306,38.661c3.163,2.113,7.286,2.113,10.449,0l67.396-38.661V203.494z"/>
		</g>
	</g>
</g>
<g>
</g>
<g>
</g>
<g>
</g>
<g>
</g>
<g>
</g>
<g>
</g>
<g>
</g>
<g>
</g>
<g>
</g>
<g>
</g>
<g>
</g>
<g>
</g>
<g>
</g>
<g>
</g>
<g>
</g>
</svg>
