<?xml version="1.0" encoding="iso-8859-1"?>
<!-- Generator: Adobe Illustrator 19.0.0, SVG Export Plug-In . SVG Version: 6.00 Build 0)  -->
<svg version="1.1" id="Capa_1" xmlns="http://www.w3.org/2000/svg" xmlns:xlink="http://www.w3.org/1999/xlink" x="0px" y="0px"
	 viewBox="0 0 411.69 411.69" style="enable-background:new 0 0 411.69 411.69;" xml:space="preserve">
<g>
	<g>
		<g>
			<path d="M369.894,32.653H41.796C18.713,32.653,0,51.366,0,74.449v188.082c0,23.083,18.713,41.796,41.796,41.796h101.355v53.812
				h-21.42c-5.771,0-10.449,4.678-10.449,10.449s4.678,10.449,10.449,10.449h168.229c5.771,0,10.449-4.678,10.449-10.449
				s-4.678-10.449-10.449-10.449h-21.42v-53.812h101.355c23.083,0,41.796-18.713,41.796-41.796V74.449
				C411.69,51.366,392.977,32.653,369.894,32.653z M247.641,358.139h-83.592v-53.812h83.592V358.139z M390.792,262.531
				c0,11.542-9.356,20.898-20.898,20.898H41.796c-11.542,0-20.898-9.356-20.898-20.898V74.449c0-11.542,9.356-20.898,20.898-20.898
				h328.098c11.542,0,20.898,9.356,20.898,20.898V262.531z"/>
			<path d="M278.988,123.559V88.555c-0.137-3.515-2.125-6.695-5.224-8.359c-2.769-2.276-6.475-3.057-9.927-2.09l-87.249,34.482
				h-42.841c-15.667,0.845-27.761,14.101-27.167,29.78v31.869c-0.099,9.603,4.606,18.62,12.539,24.033l10.971,40.229
				c3.289,12.011,14.192,20.348,26.645,20.375c8.826,0.211,17.204-3.881,22.465-10.971c5.144-6.878,6.874-15.724,4.702-24.033
				l-5.747-20.898l85.682,34.482h4.18c2.017-0.032,3.993-0.571,5.747-1.567c2.966-1.803,4.903-4.903,5.224-8.359v-37.094
				c16.287-2.797,28.196-16.911,28.212-33.437C307.184,140.471,295.275,126.356,278.988,123.559z M162.482,235.363
				c-1.422,1.695-3.535,2.656-5.747,2.612c-3.154-0.094-5.892-2.2-6.792-5.224l-8.359-31.347h14.629l7.314,27.69
				C164.079,231.237,163.7,233.515,162.482,235.363z M169.273,180.506h-35.527c-3.159,0.303-5.966-2.013-6.269-5.172
				c-0.035-0.365-0.035-0.732,0-1.097v-31.869c0-4.18,2.09-8.882,6.269-8.882h35.527V180.506z M258.09,212.376l-67.918-27.69v-53.29
				l67.918-27.167V212.376z M278.988,169.012v-23.51c4.691,1.818,7.654,6.475,7.314,11.494
				C286.552,162.121,283.655,166.881,278.988,169.012z"/>
		</g>
	</g>
</g>
<g>
</g>
<g>
</g>
<g>
</g>
<g>
</g>
<g>
</g>
<g>
</g>
<g>
</g>
<g>
</g>
<g>
</g>
<g>
</g>
<g>
</g>
<g>
</g>
<g>
</g>
<g>
</g>
<g>
</g>
</svg>
