<?xml version="1.0" encoding="iso-8859-1"?>
<!-- Generator: Adobe Illustrator 19.0.0, SVG Export Plug-In . SVG Version: 6.00 Build 0)  -->
<svg version="1.1" id="Capa_1" xmlns="http://www.w3.org/2000/svg" xmlns:xlink="http://www.w3.org/1999/xlink" x="0px" y="0px"
	 viewBox="0 0 438.891 438.891" style="enable-background:new 0 0 438.891 438.891;" xml:space="preserve">
<g>
	<g>
		<g>
			<path d="M229.895,198.564h67.918c5.771,0,10.449-4.678,10.449-10.449s-4.678-10.449-10.449-10.449h-67.918
				c-5.771,0-10.449,4.678-10.449,10.449S224.124,198.564,229.895,198.564z"/>
			<path d="M191.756,154.679h-51.722c-5.771,0-10.449,4.678-10.449,10.449v45.976c0,5.771,4.678,10.449,10.449,10.449h51.722
				c5.771,0,10.449-4.678,10.449-10.449v-45.976C202.205,159.357,197.527,154.679,191.756,154.679z M181.307,200.654h-30.824
				v-25.078h30.824V200.654z"/>
			<path d="M297.813,287.381h-67.918c-5.771,0-10.449,4.678-10.449,10.449c0,5.771,4.678,10.449,10.449,10.449h67.918
				c5.771,0,10.449-4.678,10.449-10.449C308.262,292.059,303.584,287.381,297.813,287.381z"/>
			<path d="M191.756,264.393h-51.722c-5.771,0-10.449,4.678-10.449,10.449v45.976c0,5.771,4.678,10.449,10.449,10.449h51.722
				c5.771,0,10.449-4.678,10.449-10.449v-45.976C202.205,269.071,197.527,264.393,191.756,264.393z M181.307,310.369h-30.824
				v-25.078h30.824V310.369z"/>
		</g>
	</g>
</g>
<g>
	<g>
		<path d="M347.968,57.503h-39.706V39.74c0-5.747-6.269-8.359-12.016-8.359h-30.824c-7.314-20.898-25.6-31.347-46.498-31.347
			c-20.668-0.777-39.467,11.896-46.498,31.347h-30.302c-5.747,0-11.494,2.612-11.494,8.359v17.763H90.923
			c-23.53,0.251-42.78,18.813-43.886,42.318v299.363c0,22.988,20.898,39.706,43.886,39.706h257.045
			c22.988,0,43.886-16.718,43.886-39.706V99.822C390.748,76.316,371.498,57.754,347.968,57.503z M151.527,52.279h28.735
			c5.016-0.612,9.045-4.428,9.927-9.404c3.094-13.474,14.915-23.146,28.735-23.51c13.692,0.415,25.335,10.117,28.212,23.51
			c0.937,5.148,5.232,9.013,10.449,9.404h29.78v41.796H151.527V52.279z M109.731,83.626h20.898v21.42
			c0.552,5.854,5.622,10.233,11.494,9.927h154.122c5.98,0.327,11.209-3.992,12.016-9.927v-21.42h20.898v271.673H109.731V83.626z
			 M370.956,399.185c0,11.494-11.494,18.808-22.988,18.808H90.923c-11.494,0-22.988-7.314-22.988-18.808V99.822
			c0.275-11.426,9.472-20.623,20.898-20.898v287.347c0,6.269,6.792,9.927,12.539,9.927h236.147c5.747,0,12.539-3.657,12.539-9.927
			V78.924c11.426,0.275,20.622,9.472,20.898,20.898V399.185z"/>
	</g>
</g>
<g>
</g>
<g>
</g>
<g>
</g>
<g>
</g>
<g>
</g>
<g>
</g>
<g>
</g>
<g>
</g>
<g>
</g>
<g>
</g>
<g>
</g>
<g>
</g>
<g>
</g>
<g>
</g>
<g>
</g>
</svg>
