<?xml version="1.0" encoding="iso-8859-1"?>
<!-- Generator: Adobe Illustrator 19.0.0, SVG Export Plug-In . SVG Version: 6.00 Build 0)  -->
<svg version="1.1" id="Capa_1" xmlns="http://www.w3.org/2000/svg" xmlns:xlink="http://www.w3.org/1999/xlink" x="0px" y="0px"
	 viewBox="0 0 407.51 407.51" style="enable-background:new 0 0 407.51 407.51;" xml:space="preserve">
<g>
	<g>
		<g>
			<path d="M167.184,118.072h57.469c0.358,0.019,0.716,0.019,1.074,0c5.474-0.297,9.672-4.975,9.375-10.449
				c0-5.771-4.678-10.449-10.449-10.449h-57.469c-5.771,0-10.449,4.678-10.449,10.449c-0.019,0.358-0.019,0.716,0,1.074
				C157.031,114.171,161.709,118.369,167.184,118.072z"/>
			<path d="M167.184,206.889h177.633c0.358,0.019,0.716,0.019,1.074,0c5.474-0.297,9.672-4.975,9.375-10.449
				c0-5.771-4.678-10.449-10.449-10.449H167.184c-5.771,0-10.449,4.678-10.449,10.449c-0.019,0.358-0.019,0.716,0,1.074
				C157.031,202.988,161.709,207.185,167.184,206.889z"/>
			<path d="M167.184,159.868h177.633c0.358,0.019,0.716,0.019,1.074,0c5.474-0.297,9.672-4.975,9.375-10.449
				c0-5.771-4.678-10.449-10.449-10.449H167.184c-5.771,0-10.449,4.678-10.449,10.449c-0.019,0.358-0.019,0.716,0,1.074
				C157.031,155.967,161.709,160.165,167.184,159.868z"/>
			<path d="M396.016,41.795H115.984c-5.961-0.025-10.952,4.512-11.494,10.449v41.796H11.494C5.533,94.015,0.542,98.552,0,104.488
				v250.776c0.139,3.943,2.6,7.43,6.269,8.882c1.534,1.058,3.362,1.606,5.224,1.567c2.027,0.046,4.024-0.498,5.747-1.567
				l63.739-45.453h210.547c6.048-0.241,10.972-4.942,11.494-10.971v-41.273h23.51l63.216,45.453c1.94,1.001,4.086,1.537,6.269,1.567
				c5.787-0.405,10.541-4.726,11.494-10.449V52.244C406.968,46.307,401.978,41.77,396.016,41.795z M282.122,297.795H77.845
				c-2.351,0.023-4.668,0.558-6.792,1.567l-50.155,35.527V114.937h83.592v140.539c0.522,6.03,5.446,10.731,11.494,10.971h166.139
				V297.795z M386.612,282.644l-50.155-35.526c-2.123-1.009-4.441-1.544-6.792-1.567H125.388V62.693h261.224V282.644z"/>
		</g>
	</g>
</g>
<g>
</g>
<g>
</g>
<g>
</g>
<g>
</g>
<g>
</g>
<g>
</g>
<g>
</g>
<g>
</g>
<g>
</g>
<g>
</g>
<g>
</g>
<g>
</g>
<g>
</g>
<g>
</g>
<g>
</g>
</svg>
