<?xml version="1.0" encoding="iso-8859-1"?>
<!-- Generator: Adobe Illustrator 19.0.0, SVG Export Plug-In . SVG Version: 6.00 Build 0)  -->
<svg version="1.1" id="Capa_1" xmlns="http://www.w3.org/2000/svg" xmlns:xlink="http://www.w3.org/1999/xlink" x="0px" y="0px"
	 viewBox="0 0 447.216 447.216" style="enable-background:new 0 0 447.216 447.216;" xml:space="preserve">
<g>
	<g>
		<g>
			<path d="M364.669,0H82.547C59.464,0,40.751,18.713,40.751,41.796V405.42c0,23.083,18.713,41.796,41.796,41.796h282.122
				c23.083,0,41.796-18.713,41.796-41.796V41.796C406.465,18.713,387.753,0,364.669,0z M385.567,405.42
				c0.009,0.353,0.009,0.706,0,1.059c-0.292,11.249-9.649,20.132-20.898,19.839H82.547c-0.353,0.009-0.706,0.009-1.059,0
				c-11.249-0.292-20.132-9.649-19.839-20.898V41.796c-0.009-0.353-0.009-0.706,0-1.059c0.292-11.249,9.649-20.132,20.898-19.839
				h282.122c0.353-0.009,0.706-0.009,1.059,0c11.249,0.292,20.132,9.649,19.839,20.898V405.42z"/>
			<path d="M356.833,41.796H90.384c-5.771,0-10.449,4.678-10.449,10.449v59.559c0,5.771,4.678,10.449,10.449,10.449h266.449
				c5.771,0,10.449-4.678,10.449-10.449V52.245C367.282,46.474,362.603,41.796,356.833,41.796z M346.384,101.355H100.833V62.694
				h245.551V101.355z"/>
			<path d="M134.269,205.845H90.384c-5.771,0-10.449,4.678-10.449,10.449v40.751c0,5.771,4.678,10.449,10.449,10.449h43.886
				c0,0,0,0,0,0c5.771,0,10.449-4.678,10.449-10.449v-40.751c0,0,0,0,0,0C144.718,210.523,140.04,205.845,134.269,205.845z
				 M123.82,246.596h-22.988v-19.853h22.988V246.596z"/>
			<path d="M134.269,275.331H90.384c-5.771,0-10.449,4.678-10.449,10.449v40.229c0,5.771,4.678,10.449,10.449,10.449h43.886h0
				c5.771,0,10.449-4.678,10.449-10.449V285.78c0,0,0,0,0,0C144.718,280.009,140.04,275.331,134.269,275.331z M123.82,315.559
				h-22.988v-19.331h22.988V315.559z"/>
			<path d="M208.457,205.845h-43.886c-5.771,0-10.449,4.678-10.449,10.449v40.751c0,5.771,4.678,10.449,10.449,10.449h43.886h0
				c5.771,0,10.449-4.678,10.449-10.449v-40.751C218.906,210.523,214.228,205.845,208.457,205.845z M198.008,246.596H175.02v-19.853
				h22.988V246.596z"/>
			<path d="M208.457,275.331h-43.886c-5.771,0-10.449,4.678-10.449,10.449v40.229c0,5.771,4.678,10.449,10.449,10.449h43.886
				c5.771,0,10.449-4.678,10.449-10.449V285.78C218.906,280.009,214.228,275.331,208.457,275.331z M198.008,315.559H175.02v-19.331
				h22.988V315.559z"/>
			<path d="M282.645,205.845h-43.886c-5.771,0-10.449,4.678-10.449,10.449v40.751c0,5.771,4.678,10.449,10.449,10.449h43.886
				c5.771,0,10.449-4.678,10.449-10.449v-40.751C293.094,210.523,288.416,205.845,282.645,205.845z M272.196,246.596h-22.988
				v-19.853h22.988V246.596z"/>
			<path d="M282.645,275.331h-43.886c-5.771,0-10.449,4.678-10.449,10.449v40.229c0,5.771,4.678,10.449,10.449,10.449h43.886
				c5.771,0,10.449-4.678,10.449-10.449V285.78C293.094,280.009,288.416,275.331,282.645,275.331z M272.196,315.559h-22.988v-19.331
				h22.988V315.559z"/>
			<path d="M282.645,136.882h-43.886c-5.771,0-10.449,4.678-10.449,10.449v40.229c0,5.771,4.678,10.449,10.449,10.449h43.886
				c5.771,0,10.449-4.678,10.449-10.449v-40.229C293.094,141.56,288.416,136.882,282.645,136.882z M272.196,177.11h-22.988V157.78
				h22.988V177.11z"/>
			<path d="M356.833,136.882h-43.886c-5.771,0-10.449,4.678-10.449,10.449v40.229c0,5.771,4.678,10.449,10.449,10.449h43.886
				c5.771,0,10.449-4.678,10.449-10.449v-40.229C367.282,141.56,362.603,136.882,356.833,136.882z M346.384,177.11h-22.988V157.78
				h22.988V177.11z"/>
			<path d="M134.269,136.882H90.384c-5.771,0-10.449,4.678-10.449,10.449v40.229c0,5.771,4.678,10.449,10.449,10.449h43.886
				c5.771,0,10.449-4.678,10.449-10.449v-40.229c0,0,0,0,0,0C144.718,141.56,140.04,136.882,134.269,136.882z M123.82,177.11
				h-22.988V157.78h22.988V177.11z"/>
			<path d="M208.457,136.882h-43.886c-5.771,0-10.449,4.678-10.449,10.449v40.229c0,5.771,4.678,10.449,10.449,10.449h43.886
				c5.771,0,10.449-4.678,10.449-10.449v-40.229C218.906,141.56,214.228,136.882,208.457,136.882z M198.008,177.11H175.02V157.78
				h22.988V177.11z"/>
			<path d="M356.833,205.845h-43.886c-5.771,0-10.449,4.678-10.449,10.449v40.751c0,5.771,4.678,10.449,10.449,10.449h43.886
				c0,0,0,0,0,0c5.771,0,10.449-4.678,10.449-10.449v-40.751C367.282,210.523,362.603,205.845,356.833,205.845z M346.384,246.596
				h-22.988v-19.853h22.988V246.596z"/>
			<path d="M134.269,344.294H90.384c-5.771,0-10.449,4.678-10.449,10.449v40.229c0,5.771,4.678,10.449,10.449,10.449h43.886
				c0,0,0,0,0,0c5.771,0,10.449-4.678,10.449-10.449v-40.229C144.718,348.972,140.04,344.294,134.269,344.294z M123.82,384.522
				h-22.988v-19.331h22.988V384.522z"/>
			<path d="M282.645,344.294h-43.886c-5.771,0-10.449,4.678-10.449,10.449v40.229c0,5.771,4.678,10.449,10.449,10.449h43.886
				c0,0,0,0,0,0c5.771,0,10.449-4.678,10.449-10.449v-40.229C293.094,348.972,288.416,344.294,282.645,344.294z M272.196,384.522
				h-22.988v-19.331h22.988V384.522z"/>
			<path d="M208.457,344.294h-43.886c-5.771,0-10.449,4.678-10.449,10.449v40.229c0,5.771,4.678,10.449,10.449,10.449h43.886
				c0,0,0,0,0,0c5.771,0,10.449-4.678,10.449-10.449v-40.229C218.906,348.972,214.228,344.294,208.457,344.294z M198.008,384.522
				H175.02v-19.331h22.988V384.522z"/>
			<path d="M356.833,276.375h-43.886c-5.771,0-10.449,4.678-10.449,10.449v105.012c0,5.771,4.678,10.449,10.449,10.449h43.886
				c5.771,0,10.449-4.678,10.449-10.449V286.824C367.282,281.054,362.603,276.375,356.833,276.375z M346.384,381.388h-22.988
				v-84.114h22.988V381.388z"/>
		</g>
	</g>
</g>
<g>
</g>
<g>
</g>
<g>
</g>
<g>
</g>
<g>
</g>
<g>
</g>
<g>
</g>
<g>
</g>
<g>
</g>
<g>
</g>
<g>
</g>
<g>
</g>
<g>
</g>
<g>
</g>
<g>
</g>
</svg>
