<?xml version="1.0" encoding="iso-8859-1"?>
<!-- Generator: Adobe Illustrator 19.0.0, SVG Export Plug-In . SVG Version: 6.00 Build 0)  -->
<svg version="1.1" id="Capa_1" xmlns="http://www.w3.org/2000/svg" xmlns:xlink="http://www.w3.org/1999/xlink" x="0px" y="0px"
	 viewBox="0 0 449.829 449.829" style="enable-background:new 0 0 449.829 449.829;" xml:space="preserve">
<g>
	<g>
		<g>
			<path d="M307.461,138.449c-24.123-22.86-56.7-34.603-89.861-32.392c-63.469,3.833-113.187,56.06-113.894,119.641
				c-0.522,45.453,27.167,86.727,63.739,107.102v59.559c0,31.739,25.73,57.469,57.469,57.469s57.469-25.73,57.469-57.469v-59.037
				c38.589-22.021,62.787-62.682,63.739-107.102C345.668,192.932,331.715,161.254,307.461,138.449z M224.914,427.886
				c-17.642-0.784-32.286-13.898-35.004-31.347h70.008C257.2,413.988,242.557,427.101,224.914,427.886z M261.486,375.641h-73.143
				v-15.673h73.143V375.641z M266.71,317.127c-3.345,1.929-5.354,5.545-5.224,9.404v12.539h-73.143v-12.539
				c0.209-4.016-1.795-7.825-5.224-9.927c-35.845-15.692-58.869-51.256-58.514-90.384c0.945-52.435,41.734-95.489,94.041-99.265
				h6.269c54.878,0.278,99.458,44.393,100.31,99.265C325.246,265.379,302.362,300.93,266.71,317.127z"/>
			<path d="M224.914,77.322c5.771,0,10.449-4.678,10.449-10.449V10.449C235.363,4.678,230.685,0,224.914,0
				s-10.449,4.678-10.449,10.449v56.424C214.465,72.644,219.143,77.322,224.914,77.322z"/>
			<path d="M70.792,208.457H14.367c-5.771,0-10.449,4.678-10.449,10.449s4.678,10.449,10.449,10.449h56.424
				c5.771,0,10.449-4.678,10.449-10.449S76.563,208.457,70.792,208.457z"/>
			<path d="M435.461,208.457h-56.424c-5.771,0-10.449,4.678-10.449,10.449s4.678,10.449,10.449,10.449h56.424
				c5.771,0,10.449-4.678,10.449-10.449S441.232,208.457,435.461,208.457z"/>
			<path d="M68.702,79.412l40.229,39.706c3.706,4.04,9.986,4.31,14.025,0.603c0.21-0.192,0.411-0.394,0.603-0.603
				c4.04-3.706,4.31-9.986,0.603-14.025c-0.192-0.21-0.394-0.411-0.603-0.603L83.331,64.784c-3.462-4.617-10.012-5.552-14.629-2.09
				c-4.617,3.462-5.552,10.012-2.09,14.629C67.206,78.114,67.91,78.818,68.702,79.412z"/>
			<path d="M326.269,119.118c1.929,1.969,4.558,3.095,7.314,3.135c2.756-0.039,5.385-1.166,7.314-3.135l40.229-39.706
				c4.617-3.462,5.552-10.012,2.09-14.629c-3.462-4.617-10.012-5.552-14.629-2.09c-0.792,0.594-1.496,1.298-2.09,2.09
				l-40.229,39.706c-4.04,3.706-4.31,9.986-0.603,14.025C325.858,118.725,326.06,118.926,326.269,119.118z"/>
		</g>
	</g>
</g>
<g>
</g>
<g>
</g>
<g>
</g>
<g>
</g>
<g>
</g>
<g>
</g>
<g>
</g>
<g>
</g>
<g>
</g>
<g>
</g>
<g>
</g>
<g>
</g>
<g>
</g>
<g>
</g>
<g>
</g>
</svg>
