<?xml version="1.0" encoding="iso-8859-1"?>
<!-- Generator: Adobe Illustrator 19.0.0, SVG Export Plug-In . SVG Version: 6.00 Build 0)  -->
<svg version="1.1" id="Capa_1" xmlns="http://www.w3.org/2000/svg" xmlns:xlink="http://www.w3.org/1999/xlink" x="0px" y="0px"
	 viewBox="0 0 433.633 433.633" style="enable-background:new 0 0 433.633 433.633;" xml:space="preserve">
<g>
	<g>
		<g>
			<path d="M399.753,102.4C378.855,42.841,314.594,0,247.198,0C160.994,0,87.851,68.441,86.284,150.988L26.725,266.971
				c-1.708,3.326-1.508,7.31,0.522,10.449c1.963,2.982,5.312,4.755,8.882,4.702h50.678l1.045,80.98
				c0.231,2.818,1.541,5.439,3.657,7.314c1.861,2.019,4.595,2.996,7.314,2.612l66.873-3.657l4.18,54.857
				c0.539,5.359,5.063,9.431,10.449,9.404l198.531-2.612c0.179,0.009,0.357,0.014,0.536,0.014c5.482-0.008,9.92-4.458,9.913-9.94
				l6.792-135.837c1.045-12.539,2.612-27.69,4.702-43.886C407.068,190.694,413.859,133.747,399.753,102.4z M379.9,238.759
				c-1.567,16.196-3.657,31.869-4.702,45.453l-6.269,126.433l-179.2,2.09l-4.18-55.38c-0.517-5.453-4.976-9.69-10.449-9.927
				l-0.522,0.522l-65.829,3.657l-1.045-79.935c0-5.771-4.678-10.449-10.449-10.449H53.37l52.767-102.922
				c0.597-1.502,0.95-3.089,1.045-4.702c0-71.053,65.306-132.702,140.539-132.702c59.037,0,114.939,37.094,132.702,88.816v1.045
				C392.439,136.359,385.647,193.306,379.9,238.759z"/>
			<path d="M338.104,126.955l-9.927-2.09c-1.013-4.534-2.593-8.922-4.702-13.061l6.269-7.837c2.907-3.939,2.69-9.367-0.522-13.061
				l-15.151-16.718c-3.333-3.746-8.937-4.419-13.061-1.567l-8.359,5.224l-12.539-5.747l-1.045-9.927
				c-0.514-5.165-4.741-9.17-9.927-9.404l-22.465-1.045c-4.888-0.155-9.229,3.101-10.449,7.837l-2.09,9.927
				c-4.534,1.013-8.922,2.593-13.061,4.702l-7.837-6.269c-4.103-2.99-9.722-2.774-13.584,0.522l-16.196,15.151
				c-3.714,3.303-4.588,8.765-2.09,13.061l5.747,8.359c-2.612,4.18-4.18,8.359-6.269,12.539l-9.927,1.045
				c-5.071,0.537-8.91,4.828-8.882,9.927l-1.045,22.465c-0.37,4.953,2.978,9.417,7.837,10.449l9.927,2.09
				c1.013,4.534,2.593,8.922,4.702,13.061l-6.269,7.837c-3.197,4.038-2.976,9.803,0.522,13.584l14.629,16.196
				c3.51,3.824,9.295,4.491,13.584,1.567l8.359-5.224c3.959,2.504,8.16,4.604,12.539,6.269l1.045,9.927
				c0.537,5.071,4.828,8.91,9.927,8.882l21.943,1.045h0.522c4.888,0.155,9.229-3.101,10.449-7.837l2.09-10.449l13.061-4.18
				l7.837,6.269c4.103,2.99,9.722,2.774,13.584-0.522l16.196-15.151c3.714-3.303,4.588-8.765,2.09-13.061l-5.747-8.359
				c2.612-4.18,4.18-8.359,6.269-12.539l9.927-1.045c5.071-0.537,8.91-4.828,8.882-9.927l1.045-22.465
				C346.311,132.451,342.963,127.987,338.104,126.955z M324.521,149.943l-7.837,1.045c-4.104,0.566-7.539,3.395-8.882,7.314
				c-1.449,6.878-4.491,13.32-8.882,18.808c-2.296,3.487-2.296,8.007,0,11.494l4.18,6.792l-3.657,3.135l-6.269-5.224
				c-3.265-2.771-7.991-2.986-11.494-0.522c-6.011,3.345-12.548,5.641-19.331,6.792c-4.165,0.578-7.514,3.718-8.359,7.837
				l-1.567,7.837h-4.702l-0.522-7.837c-0.52-4.298-3.637-7.831-7.837-8.882c-6.6-1.784-12.804-4.797-18.286-8.882
				c-3.605-2.534-8.411-2.534-12.016,0l-6.269,4.18l-3.135-3.657l4.702-5.747c2.716-3.438,3.127-8.162,1.045-12.016
				c-3.57-5.908-5.882-12.488-6.792-19.331c-1.03-4.116-4.244-7.329-8.359-8.359l-7.837-1.567v-4.702l7.837-1.045
				c4.104-0.566,7.539-3.395,8.882-7.314c1.449-6.878,4.491-13.32,8.882-18.808c2.297-3.487,2.297-8.007,0-11.494l-4.18-6.792
				l3.657-3.135l5.747,4.702c3.38,2.858,8.194,3.277,12.016,1.045c5.908-3.57,12.488-5.882,19.331-6.792
				c4.116-1.03,7.329-4.244,8.359-8.359l1.567-7.314h4.702l1.045,7.837c0.566,4.104,3.395,7.539,7.314,8.882
				c6.801,1.67,13.197,4.69,18.808,8.882c3.382,2.458,7.903,2.663,11.494,0.522l6.792-4.18l3.135,3.135l-5.224,6.269
				c-2.458,3.382-2.663,7.903-0.522,11.494c3.57,5.908,5.882,12.488,6.792,19.331c1.03,4.116,4.244,7.329,8.359,8.359l7.314,1.567
				V149.943z"/>
			<path d="M227.084,114.678c-16.158,14.571-17.445,39.483-2.873,55.641c7.445,8.324,18.089,13.076,29.257,13.061
				c9.853-0.147,19.319-3.859,26.645-10.449c0.009-0.009,0.019-0.017,0.028-0.026c15.999-14.572,17.156-39.355,2.584-55.354
				C268.153,101.393,243.242,100.106,227.084,114.678z M266.006,157.78c-0.109,0.099-0.219,0.196-0.33,0.292
				c-7.636,6.609-19.184,5.776-25.793-1.859c-0.17-0.185-0.337-0.373-0.499-0.564c-6.343-7.484-5.418-18.693,2.066-25.036
				c3.246-3.064,7.553-4.749,12.016-4.702c5.122-0.014,10.027,2.062,13.584,5.747C273.801,139.223,273.339,150.777,266.006,157.78z"
				/>
			<path d="M244.063,283.167c-7.683,2.719-11.838,11.03-9.404,18.808c2.044,6.024,7.746,10.037,14.106,9.927l4.702-0.522
				c0.392-0.121,0.778-0.26,1.158-0.415c7.212-2.946,10.67-11.181,7.724-18.393C259.857,284.959,251.705,280.767,244.063,283.167z"
				/>
			<path d="M299.443,295.184c3.261-1.638,4.646-5.56,3.135-8.882l-4.702-12.539c-0.772-3.336-3.908-5.576-7.314-5.224h-4.702
				l-4.18-4.702l1.567-5.224c1.168-3.458-0.393-7.248-3.657-8.882l-12.016-6.792c-3.517-1.503-7.605-0.427-9.927,2.612l-2.612,4.18
				h-6.792l-2.612-4.18c-1.633-3.265-5.423-4.825-8.882-3.657l-12.539,4.18c-3.576,1.408-5.732,5.072-5.224,8.882l1.045,4.702
				l-5.224,4.18l-4.702-1.045c-3.6-1.024-7.442,0.47-9.404,3.657l-5.747,12.016c-1.502,3.517-0.427,7.605,2.612,9.927l4.18,2.612
				c-0.412,2.239-0.588,4.516-0.522,6.792l-4.702,2.612c-3.103,1.779-4.608,5.433-3.657,8.882l4.702,12.539
				c1.018,3.64,4.641,5.904,8.359,5.224l4.702-1.045l4.702,5.224l-1.567,5.224c-1.095,3.595,0.712,7.434,4.18,8.882l12.016,5.747
				c3.342,1.654,7.394,0.528,9.404-2.612l3.135-3.657h6.792l2.09,3.657c1.029,2.244,3.278,3.676,5.747,3.657l2.612,0l12.539-4.702
				c3.336-0.772,5.576-3.908,5.224-7.314v-4.702l4.702-4.18l5.224,1.567c3.595,1.095,7.434-0.712,8.882-4.18l5.747-12.016
				c0.007-0.011,0.014-0.023,0.022-0.034c2.004-3.171,1.059-7.366-2.111-9.37l-4.18-3.135v-6.792L299.443,295.184z M255.035,316.082
				c-5.008,1.514-10.398,1.142-15.151-1.045c-4.701-2.364-8.272-6.498-9.927-11.494c-1.479-4.837-1.107-10.051,1.045-14.629
				c2.211-4.819,6.405-8.44,11.494-9.927c1.972-0.859,4.125-1.218,6.269-1.045c8.312-0.166,15.747,5.145,18.286,13.061
				C270.547,301.241,265.203,312.392,255.035,316.082z"/>
		</g>
	</g>
</g>
<g>
</g>
<g>
</g>
<g>
</g>
<g>
</g>
<g>
</g>
<g>
</g>
<g>
</g>
<g>
</g>
<g>
</g>
<g>
</g>
<g>
</g>
<g>
</g>
<g>
</g>
<g>
</g>
<g>
</g>
</svg>
