<?xml version="1.0" encoding="iso-8859-1"?>
<!-- Generator: Adobe Illustrator 19.0.0, SVG Export Plug-In . SVG Version: 6.00 Build 0)  -->
<svg version="1.1" id="Capa_1" xmlns="http://www.w3.org/2000/svg" xmlns:xlink="http://www.w3.org/1999/xlink" x="0px" y="0px"
	 viewBox="0 0 428.417 428.417" style="enable-background:new 0 0 428.417 428.417;" xml:space="preserve">
<g>
	<g>
		<g>
			<path d="M345.315,75.237c0.019-0.358,0.019-0.716,0-1.074c-0.297-5.474-4.975-9.672-10.449-9.375h-183.38
				c-0.358-0.019-0.716-0.019-1.074,0c-5.474,0.297-9.672,4.975-9.375,10.449V297.8c-0.019,0.358-0.019,0.716,0,1.074
				c0.297,5.474,4.975,9.672,10.449,9.375h183.38c0.358,0.019,0.716,0.019,1.074,0c5.474-0.297,9.672-4.975,9.375-10.449V75.237z
				 M324.417,287.351H161.935V85.686h162.482V287.351z"/>
			<path d="M334.866,342.208h-183.38c-0.358-0.019-0.716-0.019-1.074,0c-5.474,0.297-9.672,4.975-9.375,10.449
				c0,5.771,4.678,10.449,10.449,10.449h183.38c5.771,0,10.449-4.678,10.449-10.449c0.019-0.358,0.019-0.716,0-1.074
				C345.018,346.109,340.34,341.912,334.866,342.208z"/>
			<path d="M408.531,41.278c1.157-21.61-15.424-40.065-37.034-41.222c-0.89-0.048-1.781-0.065-2.673-0.052H95.584
				C72.503-0.286,53.556,18.19,53.266,41.271c0,0.002,0,0.004,0,0.007v21.42H30.278c-5.771,0-10.449,4.678-10.449,10.449
				s4.678,10.449,10.449,10.449h22.988v47.02H30.278c-5.771,0-10.449,4.678-10.449,10.449s4.678,10.449,10.449,10.449h22.988v52.245
				H30.278c-5.771,0-10.449,4.678-10.449,10.449s4.678,10.449,10.449,10.449h22.988v47.02H30.278
				c-5.771,0-10.449,4.678-10.449,10.449c0,5.771,4.678,10.449,10.449,10.449h22.988v52.245H30.278
				c-5.771,0-10.449,4.678-10.449,10.449s4.678,10.449,10.449,10.449h22.988v21.42c0.287,23.081,19.23,41.56,42.312,41.274
				c0.002,0,0.004,0,0.007,0h273.241c21.638,0.319,39.438-16.963,39.758-38.601c0.013-0.891-0.004-1.783-0.052-2.672V41.278z
				 M387.633,387.139c0,12.016-7.314,20.375-18.808,20.375H95.584c-11.538,0.292-21.128-8.825-21.42-20.362c0-0.004,0-0.009,0-0.013
				v-21.42h22.988c5.771,0,10.449-4.678,10.449-10.449s-4.678-10.449-10.449-10.449H74.164v-52.245h22.988
				c5.771,0,10.449-4.678,10.449-10.449c0-5.771-4.678-10.449-10.449-10.449H74.164v-47.02h22.988
				c5.771,0,10.449-4.678,10.449-10.449s-4.678-10.449-10.449-10.449H74.164v-52.245h22.988c5.771,0,10.449-4.678,10.449-10.449
				s-4.678-10.449-10.449-10.449H74.164v-47.02h22.988c5.771,0,10.449-4.678,10.449-10.449s-4.678-10.449-10.449-10.449H74.164
				v-21.42c0.285-11.538,9.869-20.661,21.407-20.376c0.004,0,0.009,0,0.013,0h273.241c11.494,0,18.808,8.359,18.808,20.376V387.139z
				"/>
		</g>
	</g>
</g>
<g>
</g>
<g>
</g>
<g>
</g>
<g>
</g>
<g>
</g>
<g>
</g>
<g>
</g>
<g>
</g>
<g>
</g>
<g>
</g>
<g>
</g>
<g>
</g>
<g>
</g>
<g>
</g>
<g>
</g>
</svg>
