<?xml version="1.0" encoding="iso-8859-1"?>
<!-- Generator: Adobe Illustrator 19.0.0, SVG Export Plug-In . SVG Version: 6.00 Build 0)  -->
<svg version="1.1" id="Capa_1" xmlns="http://www.w3.org/2000/svg" xmlns:xlink="http://www.w3.org/1999/xlink" x="0px" y="0px"
	 viewBox="0 0 428.428 428.428" style="enable-background:new 0 0 428.428 428.428;" xml:space="preserve">
<g>
	<g>
		<path d="M414.312,67.918h-43.363V52.245h24.033c5.747,0,12.539-4.18,12.539-9.927V9.927C407.52,4.18,400.728,0,394.981,0h-68.963
			c-5.747,0-12.539,4.18-12.539,9.927v32.392c0,5.747,6.792,9.927,12.539,9.927h24.033v15.673H224.663V52.245h24.033
			c5.747,0,12.539-4.18,12.539-9.927V9.927c0-5.747-6.792-9.927-12.539-9.927h-68.963c-5.747,0-12.539,4.18-12.539,9.927v32.392
			c0,5.747,6.792,9.927,12.539,9.927h24.033v15.673H78.377V52.245h24.033c5.747,0,12.539-4.18,12.539-9.927V9.927
			C114.949,4.18,108.157,0,102.41,0H33.447C27.7,0,20.908,4.18,20.908,9.927v32.392c0,5.747,6.792,9.927,12.539,9.927h24.033v15.673
			H14.116c-5.747,0-8.882,5.747-8.882,11.494v205.845c0,6.269,3.135,12.539,8.882,12.539H47.03v120.686
			c-0.588,4.87,2.883,9.294,7.753,9.882c0.548,0.066,1.1,0.081,1.651,0.045h33.437c4.895,0.324,9.125-3.381,9.449-8.276
			c0.036-0.55,0.021-1.103-0.045-1.651V297.796h229.878v120.686c-0.588,4.87,2.883,9.294,7.753,9.882
			c0.548,0.066,1.1,0.081,1.651,0.045h33.437c4.894,0.324,9.125-3.381,9.449-8.276c0.036-0.55,0.021-1.103-0.045-1.651V297.796
			h32.914c5.747,0,8.882-6.269,8.882-12.539V79.412C423.194,73.665,420.059,67.918,414.312,67.918z M334.377,31.347V20.898h52.245
			v10.449H334.377z M188.092,31.347V20.898h52.245v10.449H188.092z M41.806,31.347V20.898h52.245v10.449H41.806z M78.377,407.51
			H67.928V297.796h10.449V407.51z M360.5,407.51h-10.449V297.796H360.5V407.51z M402.296,276.898H26.132V88.816h376.163V276.898z"/>
	</g>
</g>
<g>
</g>
<g>
</g>
<g>
</g>
<g>
</g>
<g>
</g>
<g>
</g>
<g>
</g>
<g>
</g>
<g>
</g>
<g>
</g>
<g>
</g>
<g>
</g>
<g>
</g>
<g>
</g>
<g>
</g>
</svg>
