<?xml version="1.0" encoding="iso-8859-1"?>
<!-- Generator: Adobe Illustrator 19.0.0, SVG Export Plug-In . SVG Version: 6.00 Build 0)  -->
<svg version="1.1" id="Capa_1" xmlns="http://www.w3.org/2000/svg" xmlns:xlink="http://www.w3.org/1999/xlink" x="0px" y="0px"
	 viewBox="0 0 428.375 428.375" style="enable-background:new 0 0 428.375 428.375;" xml:space="preserve">
<g>
	<g>
		<path d="M414.188,67.9h-43.4V52.2h24c5.7,0,12.5-4.2,12.5-9.9V9.9c0-5.7-6.8-9.9-12.5-9.9h-69c-5.7,0-12.5,4.2-12.5,9.9v32.4
			c0,5.7,6.8,9.9,12.5,9.9h24v15.7h-125.3V52.2h24c5.7,0,12.5-4.2,12.5-9.9V9.9c0-5.7-6.8-9.9-12.5-9.9h-69
			c-5.7,0-12.5,4.2-12.5,9.9v32.4c0,5.7,6.8,9.9,12.5,9.9h24v15.7h-125.2V52.2h24c5.7,0,12.5-4.2,12.5-9.9V9.9
			c0-5.7-6.8-9.9-12.5-9.9h-69c-5.7,0-12.5,4.2-12.5,9.9v32.4c0,5.7,6.8,9.9,12.5,9.9h24v15.7h-43.3c-5.7,0-8.9,5.7-8.9,11.5v205.8
			c0,6.3,3.1,12.5,8.9,12.5h168.8v120.7c-0.6,4.9,2.9,9.3,7.8,9.9c0.5,0.1,1.1,0.1,1.7,0h43.9c4.9,0.3,9.1-3.4,9.4-8.3
			c0-0.6,0-1.1,0-1.7V297.8h168.8c5.7,0,8.9-6.3,8.9-12.5V79.4C423.087,73.7,419.887,67.9,414.188,67.9z M334.288,31.3V20.9h52.2
			v10.4H334.288z M187.988,31.3V20.9h52.2v10.4H187.988z M41.687,31.3V20.9h52.2v10.4H41.687z M224.488,407.5h-20.9V297.8h20.9
			V407.5z M402.188,276.9h-376.2V88.8h376.2V276.9z"/>
	</g>
</g>
<g>
	<g>
		<path d="M358.788,193.4h-108.1c-5.8,0-10.4,4.7-10.4,10.4c-0.1,5.7,4.6,10.4,10.4,10.4h108.1c5.8,0,10.4-4.7,10.4-10.4
			C369.188,198,364.488,193.4,358.788,193.4z"/>
	</g>
</g>
<g>
	<g>
		<path d="M358.788,151.6h-108.1c-5.8,0-10.4,4.7-10.4,10.4c-0.1,5.7,4.6,10.4,10.4,10.4h108.1c5.8,0,10.4-4.7,10.4-10.4
			C369.188,156.2,364.488,151.6,358.788,151.6z"/>
	</g>
</g>
<g>
	<g>
		<path d="M203.688,120.2h-135.9c-5.8,0-10.4,4.7-10.4,10.4v99.3c0,5.8,4.7,10.4,10.4,10.4h135.8c5.8,0,10.4-4.7,10.4-10.4v-99.3
			C214.087,124.8,209.387,120.2,203.688,120.2z M196.387,223.9h-121.4v-87.3h121.4V223.9z"/>
	</g>
</g>
<g>
</g>
<g>
</g>
<g>
</g>
<g>
</g>
<g>
</g>
<g>
</g>
<g>
</g>
<g>
</g>
<g>
</g>
<g>
</g>
<g>
</g>
<g>
</g>
<g>
</g>
<g>
</g>
<g>
</g>
</svg>
