<?xml version="1.0" encoding="iso-8859-1"?>
<!-- Generator: Adobe Illustrator 19.0.0, SVG Export Plug-In . SVG Version: 6.00 Build 0)  -->
<svg version="1.1" id="Capa_1" xmlns="http://www.w3.org/2000/svg" xmlns:xlink="http://www.w3.org/1999/xlink" x="0px" y="0px"
	 viewBox="0 0 417.959 417.959" style="enable-background:new 0 0 417.959 417.959;" xml:space="preserve">
<g>
	<g>
		<g>
			<path d="M376.163,62.694H41.796C18.713,62.694,0,81.407,0,104.49v208.98c0,23.083,18.713,41.796,41.796,41.796h334.367
				c23.083,0,41.796-18.713,41.796-41.796V104.49C417.959,81.407,399.246,62.694,376.163,62.694z M397.061,313.992
				c-0.285,11.538-9.869,20.661-21.407,20.376c-0.004,0-0.009,0-0.013,0H42.318c-11.538,0.292-21.128-8.825-21.42-20.362
				c0-0.004,0-0.009,0-0.013v-99.788h376.163V313.992z M397.061,193.306H20.898v-52.245h376.163V193.306z M397.061,120.163H20.898
				v-16.196c0.285-11.538,9.869-20.661,21.407-20.376c0.004,0,0.009,0,0.013,0h333.322c11.538-0.292,21.128,8.825,21.42,20.362
				c0,0.004,0,0.009,0,0.013V120.163z"/>
			<path d="M89.861,306.155c0.175,0.003,0.351,0.004,0.526,0.004c7.392-0.001,14.235-2.335,19.848-6.296
				c5.754,4.06,12.796,6.407,20.377,6.292c0.176,0,0.351-0.001,0.526-0.004c18.753-0.289,33.721-15.725,33.433-34.478
				c0-0.173-0.001-0.346-0.004-0.518c-0.289-19.041-15.959-34.244-35-33.955c-7.206,0.109-13.859,2.424-19.334,6.288
				c-5.477-3.864-12.129-6.178-19.328-6.288c-19.042-0.289-34.712,14.914-35,33.955C55.617,290.196,70.82,305.867,89.861,306.155z
				 M130.612,258.612c7.214,0,13.061,5.848,13.061,13.061c0.013,0.342,0.013,0.684,0,1.026c-0.283,7.497-6.59,13.344-14.087,13.061
				c-2.527-0.095-4.857-0.887-6.838-2.166c1.368-3.715,2.117-7.73,2.116-11.92c0-3.878-0.651-7.603-1.833-11.084
				C125.235,259.245,127.841,258.508,130.612,258.612z M73.888,269.284c1.464-7.358,8.616-12.135,15.974-10.671
				c1.75-0.348,3.552-0.348,5.302,0c0.942,0.187,1.839,0.47,2.688,0.833c-1.504,3.96-2.308,8.262-2.24,12.755
				c0.065,4.288,0.916,8.378,2.404,12.143c-2.475,1.1-5.297,1.483-8.155,0.914c-1.75,0.348-3.552,0.348-5.302,0
				C77.201,283.793,72.423,276.641,73.888,269.284z"/>
			<path d="M266.971,297.796h92.474c0.358,0.019,0.716,0.019,1.074,0c5.474-0.297,9.672-4.975,9.375-10.449V256
				c0-5.771-4.678-10.449-10.449-10.449h-92.474c-5.771,0-10.449,4.678-10.449,10.449v31.347c-0.019,0.358-0.019,0.716,0,1.074
				C256.819,293.895,261.497,298.092,266.971,297.796z M277.42,266.449h71.576v10.449H277.42V266.449z"/>
		</g>
	</g>
</g>
<g>
</g>
<g>
</g>
<g>
</g>
<g>
</g>
<g>
</g>
<g>
</g>
<g>
</g>
<g>
</g>
<g>
</g>
<g>
</g>
<g>
</g>
<g>
</g>
<g>
</g>
<g>
</g>
<g>
</g>
</svg>
