<?xml version="1.0" encoding="iso-8859-1"?>
<!-- Generator: Adobe Illustrator 19.0.0, SVG Export Plug-In . SVG Version: 6.00 Build 0)  -->
<svg version="1.1" id="Capa_1" xmlns="http://www.w3.org/2000/svg" xmlns:xlink="http://www.w3.org/1999/xlink" x="0px" y="0px"
	 viewBox="0 0 459.76 459.76" style="enable-background:new 0 0 459.76 459.76;" xml:space="preserve">
<g>
	<g>
		<path d="M452.966,443.562L296.231,181.815c-2.448-4.905-8.41-6.897-13.315-4.448c-1.926,0.961-3.487,2.523-4.449,4.448
			l-48.588,80.98l-47.02-78.89v-63.739h142.629c4.76,0.106,8.925-3.182,9.927-7.837c1.413-4.337-0.311-9.078-4.18-11.494
			l-61.649-40.751l61.649-40.229c3.81-2.706,5.488-7.53,4.18-12.016c-1.001-4.655-5.166-7.943-9.927-7.837H172.411
			c-5.854,0.279-10.456,5.11-10.449,10.971v172.931L6.794,443.562c-2.113,3.162-2.113,7.286,0,10.449
			c1.5,3.557,5.022,5.836,8.882,5.747h428.408c3.859,0.089,7.381-2.19,8.882-5.747C455.079,450.848,455.079,446.724,452.966,443.562
			z M182.86,20.9h107.624l-45.453,30.302c-3.061,1.89-4.86,5.288-4.702,8.882c0.04,3.547,1.791,6.855,4.702,8.882l45.453,30.302
			H182.86V20.9z M130.615,438.86H33.962l138.449-230.922L310.86,438.86H130.615z M334.892,438.86l-92.996-155.69l45.453-75.233
			L425.798,438.86H334.892z"/>
	</g>
</g>
<g>
</g>
<g>
</g>
<g>
</g>
<g>
</g>
<g>
</g>
<g>
</g>
<g>
</g>
<g>
</g>
<g>
</g>
<g>
</g>
<g>
</g>
<g>
</g>
<g>
</g>
<g>
</g>
<g>
</g>
</svg>
